<svg xmlns="http://www.w3.org/2000/svg" xmlns:xlink="http://www.w3.org/1999/xlink" width="372" height="240.018" viewBox="0 0 372 240.018">
  <defs>
    <linearGradient id="linear-gradient" x1="-0.158" y1="0.5" x2="0.842" y2="0.5" gradientUnits="objectBoundingBox">
      <stop offset="0.004" stop-color="#e3edfe"/>
      <stop offset="0.269" stop-color="#f1f6fe"/>
      <stop offset="0.603" stop-color="#fbfcfe"/>
      <stop offset="1" stop-color="#fff"/>
    </linearGradient>
  </defs>
  <g id="Illustration" transform="translate(-162.14 -1540.079)">
    <g id="Group_1805" data-name="Group 1805" transform="translate(163.14 1540.079)">
      <path id="Path_11149" data-name="Path 11149" d="M526.652,1647.661a54.549,54.549,0,0,0-29.806-17.982c-10.071-2.167-20.948-1.521-30.156-6.1-8.389-4.169-14.249-12.244-17.614-20.905-6.938-17.862-4.452-35.513-20.047-49.625-8.9-8.055-21.167-11.569-33.191-12.615a99.494,99.494,0,0,0-68.7,20.123c-32.256,24.951-31.179,68.82-68.871,90.281l-35.709,20.332c-6.577,3.745-13.31,7.618-18.1,13.44-11.292,13.738-6.961,37.084,8.528,45.971,8.758,5.025,19.311,5.527,29.327,7s20.737,4.612,26.5,12.842c6.115,8.738,6.221,22.448,16.043,26.769,12.911,5.681,31.823,1.2,45.456,1.251l121.352.455h.014c8.039.03,18.44,1.605,25.915-.434-3.9,1.063,3.21-14.888,3.617-15.542,3.215-5.171,8.655-10.155,13.088-14.313,7.931-7.438,17.84-11.557,25.99-18.536,18.369-15.729,23.754-50.514,13.385-71.718A51.654,51.654,0,0,0,526.652,1647.661Z" transform="translate(-184.04 -1540.079)" fill="#dbe8fa"/>
      <g id="Group_1777" data-name="Group 1777" transform="translate(8.311 165.863)">
        <g id="Group_1739" data-name="Group 1739" transform="translate(49.474 0.472)">
          <path id="Path_11150" data-name="Path 11150" d="M306.8,1971.843a.425.425,0,0,1,.384-.053,3.441,3.441,0,0,1,1.816.939,6.7,6.7,0,0,1,.385-3.269.207.207,0,0,1,.083-.132.2.2,0,0,1,.12-.008,3.356,3.356,0,0,1,1.527.612,2.44,2.44,0,0,1,.712,1.293,4.13,4.13,0,0,1,.068-1.849,2.312,2.312,0,0,1,.322-.621c.139-.23.178-.6.361-.787a.321.321,0,0,1,.275-.08.959.959,0,0,1,.512.325l.992.985c.333.33.47.641.645.1a5.458,5.458,0,0,1,.964-1.9c.051-.061.492.625.522.686a12.664,12.664,0,0,1,1.474,6.054c-.129,2.2-1.935,6.063-1.935,6.063l-1.49-.178a2.635,2.635,0,0,1-1.563-.606,26.93,26.93,0,0,1-3.052-2.33,11.921,11.921,0,0,1-2.368-3.218C307.414,1973.61,306.54,1972.1,306.8,1971.843Z" transform="translate(-306.752 -1967.396)" fill="#1067db"/>
          <g id="Group_1736" data-name="Group 1736" transform="translate(7.989 2.041)">
            <path id="Path_11151" data-name="Path 11151" d="M328.229,1978.524a11.039,11.039,0,0,0-1.286-5.278,5.125,5.125,0,0,0-.336-.495,3.442,3.442,0,0,1,.2-.28c.045-.053.429.545.456.6a11.044,11.044,0,0,1,1.285,5.279,20.324,20.324,0,0,1-1.687,5.286l-.23-.027A18.988,18.988,0,0,0,328.229,1978.524Z" transform="translate(-326.607 -1972.468)" fill="#002daa"/>
          </g>
          <g id="Group_1737" data-name="Group 1737" transform="translate(2.242 5.047)">
            <path id="Path_11152" data-name="Path 11152" d="M314.7,1984.632a9.326,9.326,0,0,1-2.025-4.119,4.525,4.525,0,0,1-.05-.5,2.874,2.874,0,0,0-.283-.071c-.058-.011.017.586.028.634a9.335,9.335,0,0,0,2.025,4.119,17.164,17.164,0,0,0,3.956,2.514l.134-.142A16.022,16.022,0,0,1,314.7,1984.632Z" transform="translate(-312.325 -1979.939)" fill="#002daa"/>
          </g>
          <g id="Group_1738" data-name="Group 1738" transform="translate(5.052 3.628)">
            <path id="Path_11153" data-name="Path 11153" d="M319.66,1976.535q1.507,4.174,3.231,8.26c.087.206-.22.377-.308.169q-1.742-4.131-3.264-8.348c-.077-.212.266-.292.342-.081Z" transform="translate(-319.307 -1976.411)" fill="#002daa"/>
          </g>
          <path id="Path_11154" data-name="Path 11154" d="M323.028,1995.28c-.04-.028.184-.12.231-.11a1.238,1.238,0,0,1,.653.339,2.413,2.413,0,0,1,.139-1.176.073.073,0,0,1,.03-.047.072.072,0,0,1,.043,0,1.209,1.209,0,0,1,.55.22.875.875,0,0,1,.256.465,1.486,1.486,0,0,1,.025-.665.817.817,0,0,1,.116-.223c.05-.083.064-.214.13-.283a.115.115,0,0,1,.1-.029.349.349,0,0,1,.184.117l.357.354c.12.119.169.231.232.037a2.611,2.611,0,0,1,.429-.775.5.5,0,0,1,.105.337c-.193.7.573,1.446.53,2.178a8.392,8.392,0,0,1-.7,2.181l-.536-.064a1.245,1.245,0,0,1-.27-.052,1.273,1.273,0,0,1-.293-.165,6.448,6.448,0,0,1-.9-.668,4.7,4.7,0,0,1-.727-1.31A5.294,5.294,0,0,0,323.028,1995.28Z" transform="translate(-316.476 -1982.996)" fill="#002daa"/>
          <path id="Path_11155" data-name="Path 11155" d="M334.688,2015.747c-1.776-4.627-2.819-9.542-5.555-13.746-.247-.379.371-.716.616-.338,2.837,4.359,3.855,9.467,5.748,14.242.507,1.278,1.086,2.521,1.69,3.752l-.5.546C335.966,2018.743,335.273,2017.27,334.688,2015.747Z" transform="translate(-320.093 -1987.776)" fill="#002daa"/>
        </g>
        <g id="Group_1776" data-name="Group 1776" transform="translate(40.933)">
          <path id="Path_11156" data-name="Path 11156" d="M318.816,2031.107q-2.486-1.243-4.893-2.632c-8.409-4.856-35.425-22.2-26.676-34.185,2.327-3.188,6.622-4.243,10.569-4.333a32.048,32.048,0,0,1,10.846,1.634,3.6,3.6,0,0,0,2.218.271c1.185-.389,1.549-1.863,1.676-3.1.339-3.323.341-6.81,1.894-9.767,3.357-6.394,12.65-7.315,19.107-4.081,3.578,1.792,7.5,4.629,11.158,3.005,1.927-.855,3.135-2.757,4.677-4.195,3.755-3.5,9.287-4.117,14.405-4.553,3.956-.338,8.14-.635,11.7,1.122a16.44,16.44,0,0,1,5.384,4.664c10.813,13.541,7.127,33.7-1.626,47.471-6.515,10.251-15.374,18.988-27.974,17.909A90.071,90.071,0,0,1,318.816,2031.107Z" transform="translate(-285.525 -1967.828)" fill="#b3cdfa"/>
          <g id="Group_1751" data-name="Group 1751" transform="translate(10.757 28.848)">
            <g id="Group_1740" data-name="Group 1740" transform="translate(0 1.448)">
              <path id="Path_11157" data-name="Path 11157" d="M312.275,2041.706c19.167,11.129,35.808,25.832,53.873,38.563.121.086.535-.1.432-.171-18.066-12.731-34.705-27.434-53.873-38.563-.128-.074-.531.114-.431.172Z" transform="translate(-312.259 -2041.517)" fill="#002daa"/>
            </g>
            <g id="Group_1741" data-name="Group 1741" transform="translate(6.138)">
              <path id="Path_11158" data-name="Path 11158" d="M327.526,2038.151a47.49,47.49,0,0,0,4.854,8.31c.13.178.569-.008.422-.209a46.931,46.931,0,0,1-4.815-8.225c-.1-.212-.555-.081-.462.124Z" transform="translate(-327.514 -2037.919)" fill="#002daa"/>
            </g>
            <g id="Group_1742" data-name="Group 1742" transform="translate(13.82 2.104)">
              <path id="Path_11159" data-name="Path 11159" d="M346.609,2043.334a43.225,43.225,0,0,0,5.5,11.962c.073.111.522-.034.432-.172a42.96,42.96,0,0,1-5.471-11.914c-.04-.139-.5-.014-.462.124Z" transform="translate(-346.607 -2043.149)" fill="#002daa"/>
            </g>
            <g id="Group_1743" data-name="Group 1743" transform="translate(21.624 7.13)">
              <path id="Path_11160" data-name="Path 11160" d="M366,2055.8a80.851,80.851,0,0,0,5.683,13.051c.061.113.5-.054.461-.124a80.943,80.943,0,0,1-5.683-13.051c-.035-.106-.494.028-.462.124Z" transform="translate(-366 -2055.64)" fill="#002daa"/>
            </g>
            <g id="Group_1744" data-name="Group 1744" transform="translate(29.814 11.236)">
              <path id="Path_11161" data-name="Path 11161" d="M386.362,2066.073a56.2,56.2,0,0,0,7.507,16.425c.112.167.554-.006.424-.2a55.85,55.85,0,0,1-7.468-16.348c-.057-.206-.519-.082-.462.124Z" transform="translate(-386.357 -2065.844)" fill="#002daa"/>
            </g>
            <g id="Group_1745" data-name="Group 1745" transform="translate(36.288 15.525)">
              <path id="Path_11162" data-name="Path 11162" d="M402.454,2076.7q5.544,10.271,11.725,20.169c.091.145.538-.011.427-.189q-6.164-9.868-11.69-20.1c-.092-.17-.542-.024-.462.124Z" transform="translate(-402.445 -2076.503)" fill="#002daa"/>
            </g>
            <g id="Group_1746" data-name="Group 1746" transform="translate(2.197 7.631)">
              <path id="Path_11163" data-name="Path 11163" d="M317.79,2057.094a51.494,51.494,0,0,1,10.088,1.708c.115.031.526-.152.376-.193a51.9,51.9,0,0,0-10.169-1.723c-.113-.008-.532.191-.295.208Z" transform="translate(-317.718 -2056.885)" fill="#002daa"/>
            </g>
            <g id="Group_1747" data-name="Group 1747" transform="translate(13.18 14.55)">
              <path id="Path_11164" data-name="Path 11164" d="M345.105,2074.34a56.584,56.584,0,0,1,10.436,2.854c.144.055.562-.155.366-.229a56.987,56.987,0,0,0-10.521-2.884c-.153-.027-.544.213-.281.258Z" transform="translate(-345.016 -2074.08)" fill="#002daa"/>
            </g>
            <g id="Group_1748" data-name="Group 1748" transform="translate(24.089 22.605)">
              <path id="Path_11165" data-name="Path 11165" d="M372.3,2094.378c3.264-.4,6.1,1.45,9.193,2.1.127.027.538-.172.291-.225-3.2-.677-6.044-2.51-9.411-2.1-.208.025-.4.259-.073.22Z" transform="translate(-372.127 -2094.099)" fill="#002daa"/>
            </g>
            <g id="Group_1749" data-name="Group 1749" transform="translate(29.54 28.068)">
              <path id="Path_11166" data-name="Path 11166" d="M385.742,2107.875c4.047-.005,7.378,1.958,11.31,2.364.106.011.53-.173.3-.2a34.129,34.129,0,0,1-6.254-1.735,17.048,17.048,0,0,0-5.056-.629c-.1,0-.525.2-.3.2Z" transform="translate(-385.675 -2107.678)" fill="#002daa"/>
            </g>
            <g id="Group_1750" data-name="Group 1750" transform="translate(37.233 33.615)">
              <path id="Path_11167" data-name="Path 11167" d="M404.871,2121.689c3.548.55,7.437.757,10.759,2.186.12.052.542-.131.373-.2-3.359-1.444-7.263-1.65-10.841-2.205-.126-.019-.538.186-.291.224Z" transform="translate(-404.794 -2121.464)" fill="#002daa"/>
            </g>
          </g>
          <g id="Group_1763" data-name="Group 1763" transform="translate(38.368 10.809)">
            <g id="Group_1752" data-name="Group 1752" transform="translate(0.03)">
              <path id="Path_11168" data-name="Path 11168" d="M380.963,1993.17c14.267,16.962,24.945,36.432,37.632,54.528.085.121.537.088.464-.015-12.687-18.1-23.365-37.565-37.632-54.527-.1-.114-.538-.073-.464.015Z" transform="translate(-380.955 -1993.086)" fill="#002daa"/>
            </g>
            <g id="Group_1753" data-name="Group 1753" transform="translate(6.286 0.688)">
              <path id="Path_11169" data-name="Path 11169" d="M396.5,1994.949a47.461,47.461,0,0,0,1.754,9.463c.062.212.537.185.467-.053a46.932,46.932,0,0,1-1.745-9.37c-.019-.232-.5-.264-.477-.04Z" transform="translate(-396.503 -1994.796)" fill="#002daa"/>
            </g>
            <g id="Group_1754" data-name="Group 1754" transform="translate(12.712 5.284)">
              <path id="Path_11170" data-name="Path 11170" d="M412.571,2006.308a43.22,43.22,0,0,0,1.125,13.118c.031.129.5.145.464-.016a42.957,42.957,0,0,1-1.113-13.062c.01-.145-.467-.183-.476-.04Z" transform="translate(-412.473 -2006.218)" fill="#002daa"/>
            </g>
            <g id="Group_1755" data-name="Group 1755" transform="translate(18.435 12.662)">
              <path id="Path_11171" data-name="Path 11171" d="M426.718,2024.618a80.878,80.878,0,0,0,.928,14.2c.02.128.489.118.477.04a80.883,80.883,0,0,1-.928-14.2c0-.112-.475-.141-.477-.04Z" transform="translate(-426.697 -2024.556)" fill="#002daa"/>
            </g>
            <g id="Group_1756" data-name="Group 1756" transform="translate(24.582 19.284)">
              <path id="Path_11172" data-name="Path 11172" d="M442.146,2041.154a56.206,56.206,0,0,0,1.5,18c.049.2.523.182.467-.046a55.857,55.857,0,0,1-1.492-17.91c.017-.213-.46-.254-.477-.04Z" transform="translate(-441.975 -2041.012)" fill="#002daa"/>
            </g>
            <g id="Group_1757" data-name="Group 1757" transform="translate(29.405 25.512)">
              <path id="Path_11173" data-name="Path 11173" d="M453.962,2056.6q1.738,11.542,4.2,22.949c.036.167.51.171.466-.033q-2.458-11.374-4.191-22.875c-.029-.191-.5-.206-.477-.041Z" transform="translate(-453.961 -2056.491)" fill="#002daa"/>
            </g>
            <g id="Group_1758" data-name="Group 1758" transform="translate(0 6.57)">
              <path id="Path_11174" data-name="Path 11174" d="M380.938,2009.529a51.6,51.6,0,0,1,8.913,5.023c.1.069.547.035.419-.054a51.917,51.917,0,0,0-8.985-5.064c-.1-.045-.565,0-.347.1Z" transform="translate(-380.881 -2009.416)" fill="#002daa"/>
            </g>
            <g id="Group_1759" data-name="Group 1759" transform="translate(7.982 16.792)">
              <path id="Path_11175" data-name="Path 11175" d="M400.785,2035a56.6,56.6,0,0,1,8.853,6.219c.117.1.581.045.422-.091a57.1,57.1,0,0,0-8.923-6.276c-.135-.076-.584.016-.352.148Z" transform="translate(-400.72 -2034.819)" fill="#002daa"/>
            </g>
            <g id="Group_1760" data-name="Group 1760" transform="translate(15.509 28.097)">
              <path id="Path_11176" data-name="Path 11176" d="M419.575,2063.105c3.2.731,5.248,3.431,7.937,5.093.11.068.565.021.349-.113-2.783-1.721-4.836-4.408-8.143-5.162-.205-.047-.46.11-.143.182Z" transform="translate(-419.425 -2062.915)" fill="#002daa"/>
            </g>
            <g id="Group_1761" data-name="Group 1761" transform="translate(18.808 35.064)">
              <path id="Path_11177" data-name="Path 11177" d="M427.68,2080.328c3.81,1.366,6.28,4.341,9.841,6.054.1.046.557.016.346-.085a34.152,34.152,0,0,1-5.3-3.75,17.035,17.035,0,0,0-4.544-2.3c-.1-.035-.56.009-.346.085Z" transform="translate(-427.624 -2080.23)" fill="#002daa"/>
            </g>
            <g id="Group_1762" data-name="Group 1762" transform="translate(24.166 42.877)">
              <path id="Path_11178" data-name="Path 11178" d="M441,2099.786c3.152,1.719,6.74,3.231,9.383,5.7.1.089.555.06.42-.066-2.671-2.5-6.275-4.012-9.454-5.746-.112-.061-.569-.008-.349.112Z" transform="translate(-440.94 -2099.649)" fill="#002daa"/>
            </g>
          </g>
          <g id="Group_1775" data-name="Group 1775" transform="translate(75.646)">
            <g id="Group_1764" data-name="Group 1764" transform="translate(3.288)">
              <path id="Path_11179" data-name="Path 11179" d="M481.7,1966.258c3.96,21.807,3.56,44.01,5.585,66.017.014.147.422.344.411.217-2.026-22.008-1.626-44.209-5.586-66.017-.027-.146-.431-.331-.41-.218Z" transform="translate(-481.701 -1966.223)" fill="#002daa"/>
            </g>
            <g id="Group_1765" data-name="Group 1765" transform="translate(5.156 3.721)">
              <path id="Path_11180" data-name="Path 11180" d="M489.523,1975.544a47.507,47.507,0,0,0-3.177,9.084c-.051.216.374.428.432.186a47,47,0,0,1,3.138-9c.1-.211-.3-.475-.394-.271Z" transform="translate(-486.342 -1975.471)" fill="#002daa"/>
            </g>
            <g id="Group_1766" data-name="Group 1766" transform="translate(6.207 10.938)">
              <path id="Path_11181" data-name="Path 11181" d="M494.5,1993.438a43.222,43.222,0,0,0-5.537,11.945c-.037.128.364.375.41.217a42.977,42.977,0,0,1,5.521-11.891c.08-.121-.314-.391-.394-.271Z" transform="translate(-488.956 -1993.408)" fill="#002daa"/>
            </g>
            <g id="Group_1767" data-name="Group 1767" transform="translate(6.746 20.135)">
              <path id="Path_11182" data-name="Path 11182" d="M496.547,2016.282a80.944,80.944,0,0,0-6.248,12.79c-.046.12.365.345.394.271a80.927,80.927,0,0,1,6.248-12.79c.058-.1-.342-.358-.393-.271Z" transform="translate(-490.295 -2016.265)" fill="#002daa"/>
            </g>
            <g id="Group_1768" data-name="Group 1768" transform="translate(7.498 29.038)">
              <path id="Path_11183" data-name="Path 11183" d="M499.8,2038.449a56.2,56.2,0,0,0-7.634,16.366c-.055.194.364.418.428.192a55.858,55.858,0,0,1,7.6-16.286c.12-.177-.274-.449-.394-.272Z" transform="translate(-492.163 -2038.392)" fill="#002daa"/>
            </g>
            <g id="Group_1769" data-name="Group 1769" transform="translate(8.343 36.739)">
              <path id="Path_11184" data-name="Path 11184" d="M502.015,2057.581q-4.223,10.882-7.748,22.006c-.051.163.357.4.42.2q3.514-11.093,7.721-21.937c.07-.18-.333-.428-.394-.272Z" transform="translate(-494.263 -2057.531)" fill="#002daa"/>
            </g>
            <g id="Group_1770" data-name="Group 1770" transform="translate(0 5.69)">
              <path id="Path_11185" data-name="Path 11185" d="M473.557,1980.448a51.523,51.523,0,0,1,5.242,8.786c.051.108.457.3.39.161a51.9,51.9,0,0,0-5.283-8.858c-.067-.091-.49-.281-.349-.089Z" transform="translate(-473.529 -1980.366)" fill="#002daa"/>
            </g>
            <g id="Group_1771" data-name="Group 1771" transform="translate(1.831 18.545)">
              <path id="Path_11186" data-name="Path 11186" d="M478.105,2012.436a56.565,56.565,0,0,1,4.6,9.794c.052.145.482.328.412.13a57.064,57.064,0,0,0-4.628-9.878c-.079-.134-.515-.276-.379-.046Z" transform="translate(-478.079 -2012.314)" fill="#002daa"/>
            </g>
            <g id="Group_1772" data-name="Group 1772" transform="translate(2.752 32.09)">
              <path id="Path_11187" data-name="Path 11187" d="M480.458,2046.158c2.419,2.226,2.852,5.583,4.36,8.363.062.114.48.3.359.075-1.562-2.876-2.009-6.228-4.5-8.525-.155-.142-.454-.134-.214.087Z" transform="translate(-480.368 -2045.976)" fill="#002daa"/>
            </g>
            <g id="Group_1773" data-name="Group 1773" transform="translate(2.179 39.759)">
              <path id="Path_11188" data-name="Path 11188" d="M478.976,2065.107c2.629,3.077,3.295,6.886,5.535,10.142.06.088.476.291.343.1a34.136,34.136,0,0,1-2.734-5.886,17.064,17.064,0,0,0-2.8-4.256c-.067-.079-.49-.271-.343-.1Z" transform="translate(-478.945 -2065.038)" fill="#002daa"/>
            </g>
            <g id="Group_1774" data-name="Group 1774" transform="translate(2.938 49.21)">
              <path id="Path_11189" data-name="Path 11189" d="M480.856,2088.623c1.882,3.057,4.247,6.151,5.314,9.607.039.124.452.327.4.151-1.079-3.493-3.454-6.6-5.352-9.683-.067-.108-.49-.289-.359-.076Z" transform="translate(-480.83 -2088.524)" fill="#002daa"/>
            </g>
          </g>
        </g>
        <path id="Path_11190" data-name="Path 11190" d="M183.794,2097.192a12.4,12.4,0,0,1,1.7-4.139,17.776,17.776,0,0,1,5.763,3.078l.4-.179c-1.67-9.715,5.423-14,5.423-14a16.989,16.989,0,0,1,5.151,7.511,16.144,16.144,0,0,1,10.368-10,22.248,22.248,0,0,1,2.738,6.4c.5-.2.988-.406,1.484-.6-5.264-8.263-.427-14.941-.427-14.941a16.578,16.578,0,0,1,9.35,7.163,13.29,13.29,0,0,1,9.625-8.729,17.009,17.009,0,0,1,1.975,8.775q1.314-.442,2.639-.862A12.972,12.972,0,0,1,245,2070.3a18.3,18.3,0,0,1,3.376,4.029q.652-.153,1.306-.294c2.112-9.161,9.943-10.574,9.943-10.574a16.965,16.965,0,0,1,2.123,9q.79-.025,1.578-.024a13.128,13.128,0,0,1,3.909-9.457,16.519,16.519,0,0,1,8.009,11.054c.219.062.436.13.654.2a11.176,11.176,0,0,1,1.261-2.577,16.879,16.879,0,0,1,8.034,5.323,13.094,13.094,0,0,1,7-6.434,16.53,16.53,0,0,1,2.9,13.736l.251.155a13.03,13.03,0,0,1,8.812-2.043,17.752,17.752,0,0,1-.345,6.588q1.049.463,2.121.867a13.032,13.032,0,0,1,6.479-5.473,18.181,18.181,0,0,1,2.551,4.979,12.758,12.758,0,0,1,6.192-1.391,18.817,18.817,0,0,1,.488,4.191c2.551-.064,5.116-.255,7.685-.454a12.989,12.989,0,0,1,6.361-5.274,18.341,18.341,0,0,1,2.4,4.559,15.773,15.773,0,0,1,7.43-4.932,22.381,22.381,0,0,1,2.6,5.92c.56.122,1.118.251,1.671.4a13.09,13.09,0,0,1,9.129-2.266,17.883,17.883,0,0,1-.27,6.269c.377.26.737.539,1.094.818Z" transform="translate(-183.794 -2024.048)" fill="#1067db"/>
      </g>
      <g id="Group_1778" data-name="Group 1778" transform="translate(289.349 156.438)">
        <path id="Rectangle_608" data-name="Rectangle 608" d="M15.227,0h0A15.227,15.227,0,0,1,30.454,15.227V32.653a0,0,0,0,1,0,0H0a0,0,0,0,1,0,0V15.227A15.227,15.227,0,0,1,15.227,0Z" transform="translate(40.125 82.58) rotate(180)" fill="#fff"/>
        <path id="Path_11191" data-name="Path 11191" d="M959.1,2086.466c-1.084-.669-2.241-1.712-2.063-3a3.213,3.213,0,0,1,1.18-1.83c3.195-2.89,5.019-4.089,6.776-8.177a8.659,8.659,0,0,1,3.952,5.458,26.583,26.583,0,0,1,.656,6.958c.031,5.262.927,15.534-7.075,14.922-1.387-.106-2.924-.522-3.623-1.765a5.384,5.384,0,0,1-.3-3.271c.3-2.533.865-5.471,3.078-6.6C961.445,2087.874,960.186,2087.135,959.1,2086.466Z" transform="translate(-930.706 -2020.884)" fill="#eef4fc"/>
        <path id="Rectangle_609" data-name="Rectangle 609" d="M15.227,0h0A15.227,15.227,0,0,1,30.454,15.227V32.653a0,0,0,0,1,0,0H0a0,0,0,0,1,0,0V15.227A15.227,15.227,0,0,1,15.227,0Z" transform="translate(40.125 82.58) rotate(180)" fill="none" stroke="#002daa" stroke-miterlimit="10" stroke-width="2"/>
        <path id="Path_11192" data-name="Path 11192" d="M941.919,1997.523c.8-3.948,3.727-7.235,7.233-9.217a29.136,29.136,0,0,1,11.562-3.192c-.834,3,.811,6.043,1.813,8.989a16.086,16.086,0,0,1,.254,10.494,11.186,11.186,0,0,1-3.515,4.953c-1.627,1.3-3.5,1.593-5.417,2.254a10.927,10.927,0,0,1-2.955,1.014c-1.521.065-2.81-1.122-3.642-2.4a37.185,37.185,0,0,0-2-3.217,20.043,20.043,0,0,1-2.233-2.706A10.25,10.25,0,0,1,941.919,1997.523Z" transform="translate(-921.563 -1968.089)" fill="#fff"/>
        <path id="Path_11193" data-name="Path 11193" d="M919.223,1961.176c-.684-3.969.851-8.094,3.4-11.212a29.147,29.147,0,0,1,9.619-7.166c.309,3.1,2.947,5.338,4.947,7.721a16.088,16.088,0,0,1,4.04,9.689,11.188,11.188,0,0,1-1.481,5.89c-1.046,1.8-2.684,2.753-4.232,4.065a10.913,10.913,0,0,1-2.386,2.016c-1.394.612-3.026-.027-4.263-.913a37.237,37.237,0,0,0-3.029-2.275,20,20,0,0,1-3.062-1.712A10.248,10.248,0,0,1,919.223,1961.176Z" transform="translate(-908.019 -1942.799)" fill="#b3cdfa"/>
        <path id="Path_11194" data-name="Path 11194" d="M891.735,1997.262c.372-3.169,1.481-6.2,2.14-9.325a33.292,33.292,0,0,0,.583-9.828c3.653,4.26,10.249,4.287,14.965,7.329a14.709,14.709,0,0,1,5.786,7.705,14.4,14.4,0,0,1-.173,10.391c-.063.15-.127.3-.192.448l-1.288,2.986c-.212.492-.481,1.037-.993,1.193a2.24,2.24,0,0,1-.713.043c-1.717-.044-3.312.7-4.975,1a24.294,24.294,0,0,1-4.733.216c-2.967-.074-6.112-.863-8.164-3.146C891.843,2003.9,891.363,2000.432,891.735,1997.262Z" transform="translate(-891.62 -1963.902)" fill="#1067db"/>
        <path id="Path_11195" data-name="Path 11195" d="M969.183,1998.521c-5.234,8.011-6.421,17.95-6.918,27.507" transform="translate(-933.84 -1976.1)" fill="none" stroke="#002daa" stroke-miterlimit="10" stroke-width="2"/>
        <path id="Path_11196" data-name="Path 11196" d="M951.443,1971.1c.058,13.4-1.8,29.232.427,38.539" transform="translate(-926.972 -1959.713)" fill="none" stroke="#002daa" stroke-miterlimit="10" stroke-width="2"/>
        <path id="Path_11197" data-name="Path 11197" d="M911.547,2003.823a51.07,51.07,0,0,1,14.11,25.373" transform="translate(-903.529 -1979.269)" fill="none" stroke="#002daa" stroke-miterlimit="10" stroke-width="2"/>
      </g>
      <g id="Group_1779" data-name="Group 1779" transform="translate(23.369 56.743)">
        <path id="Path_11198" data-name="Path 11198" d="M284.02,1707.775a3.886,3.886,0,0,0-3.928-3.843,3.82,3.82,0,0,0-1.642.413,5.432,5.432,0,0,0-3.853-2.87,6.13,6.13,0,0,0,.221-1.162,6.466,6.466,0,0,0-6.537-6.4,6.4,6.4,0,0,0-4.335,1.794,11.821,11.821,0,0,0-23.225-2.089,8.119,8.119,0,0,0-9.416,6.025,7.361,7.361,0,0,0-10.087,6.974,7.21,7.21,0,0,0,1.188,3.712l61.076-.665A3.785,3.785,0,0,0,284.02,1707.775Z" transform="translate(-221.219 -1684.786)" fill="#fff"/>
        <line id="Line_11" data-name="Line 11" y1="0.671" x2="61.659" transform="translate(1.162 24.875)" fill="none" stroke="#002daa" stroke-linecap="round" stroke-miterlimit="10" stroke-width="2"/>
        <path id="Path_11199" data-name="Path 11199" d="M341.21,1723.719a3.882,3.882,0,0,1-5.4-.868,3.815,3.815,0,0,1-.548-1.144,3.838,3.838,0,0,0,.724,2.106,3.882,3.882,0,0,0,5.4.869h0a3.872,3.872,0,0,0,1.417-4.261A3.874,3.874,0,0,1,341.21,1723.719Z" transform="translate(-289.372 -1706.083)" fill="#d1e1f2"/>
        <path id="Path_11200" data-name="Path 11200" d="M303.786,1700.312a6.466,6.466,0,0,0-6.537-6.4,6.4,6.4,0,0,0-4.335,1.794,11.821,11.821,0,0,0-23.224-2.089" transform="translate(-250.187 -1684.786)" fill="none" stroke="#002daa" stroke-linecap="round" stroke-miterlimit="10" stroke-width="2"/>
      </g>
      <g id="Group_1780" data-name="Group 1780" transform="translate(257.939 67.906)">
        <path id="Path_11201" data-name="Path 11201" d="M887.094,1740.265a4.55,4.55,0,0,0-4.6-4.5,4.476,4.476,0,0,0-1.922.484,6.365,6.365,0,0,0-4.512-3.361,7.173,7.173,0,0,0,.259-1.36,7.516,7.516,0,0,0-12.73-5.388,13.842,13.842,0,0,0-27.195-2.446,9.51,9.51,0,0,0-11.026,7.055,8.619,8.619,0,0,0-11.811,8.166,8.446,8.446,0,0,0,1.391,4.346l71.518-.779A4.433,4.433,0,0,0,887.094,1740.265Z" transform="translate(-813.556 -1713.346)" fill="#fff"/>
        <line id="Line_12" data-name="Line 12" y1="0.786" x2="72.201" transform="translate(1.361 29.128)" fill="none" stroke="#002daa" stroke-linecap="round" stroke-miterlimit="10" stroke-width="2"/>
        <path id="Path_11202" data-name="Path 11202" d="M954.061,1758.936a4.546,4.546,0,0,1-6.329-1.017,4.474,4.474,0,0,1-.642-1.339,4.5,4.5,0,0,0,.848,2.466,4.546,4.546,0,0,0,6.33,1.017h0a4.534,4.534,0,0,0,1.659-4.989A4.535,4.535,0,0,1,954.061,1758.936Z" transform="translate(-893.361 -1738.284)" fill="#d1e1f2"/>
        <path id="Path_11203" data-name="Path 11203" d="M910.239,1731.526a7.516,7.516,0,0,0-12.73-5.388,13.842,13.842,0,0,0-27.2-2.446" transform="translate(-847.476 -1713.346)" fill="none" stroke="#002daa" stroke-linecap="round" stroke-miterlimit="10" stroke-width="2"/>
      </g>
      <g id="Group_1781" data-name="Group 1781" transform="translate(58.022 92.104)">
        <path id="Path_11204" data-name="Path 11204" d="M321.458,1783.65l177.165.99a5.748,5.748,0,0,1,5.461,4.694l21.893,134.04H338.646l-21.892-133.942a4.018,4.018,0,0,1,1.893-4.09Z" transform="translate(-316.701 -1783.352)" fill="url(#linear-gradient)"/>
        <path id="Path_11205" data-name="Path 11205" d="M321.458,1783.65l177.165.99a5.748,5.748,0,0,1,5.461,4.694l21.893,134.04H338.646l-21.892-133.942a4.018,4.018,0,0,1,1.893-4.09Z" transform="translate(-316.701 -1783.352)" fill="none" stroke="#002daa" stroke-miterlimit="10" stroke-width="2"/>
        <path id="Path_11206" data-name="Path 11206" d="M344.616,1921.645H531.947L510.054,1787.6a5.748,5.748,0,0,0-5.461-4.694H326.65a3.885,3.885,0,0,0-3.927,4.694Z" transform="translate(-320.262 -1782.91)" fill="#1067db"/>
        <path id="Path_11207" data-name="Path 11207" d="M531.947,1921.645,510.054,1787.6a5.748,5.748,0,0,0-5.461-4.694H326.65a3.885,3.885,0,0,0-3.927,4.694l20.14,123.305" transform="translate(-320.262 -1782.91)" fill="none" stroke="#002daa" stroke-linecap="round" stroke-miterlimit="10" stroke-width="2"/>
        <path id="Path_11208" data-name="Path 11208" d="M535.18,1925.321l-20.186-123.584H342.814L363,1925.321Z" transform="translate(-332.307 -1794.162)" fill="#cfe1f8"/>
        <path id="Path_11209" data-name="Path 11209" d="M374.77,2125.546H631.04a7.562,7.562,0,0,0,7.562-7.562h0a7.562,7.562,0,0,0-7.562-7.562H374.77a7.562,7.562,0,0,0-7.562,7.562h0A7.562,7.562,0,0,0,374.77,2125.546Z" transform="translate(-346.886 -1978.643)" fill="#fff"/>
        <path id="Path_11210" data-name="Path 11210" d="M374.77,2127.536H631.04a7.544,7.544,0,0,0,7.058-4.91,7.509,7.509,0,0,1-7.058,10.213H374.77a7.509,7.509,0,0,1-7.058-10.213A7.544,7.544,0,0,0,374.77,2127.536Z" transform="translate(-346.886 -1985.936)" fill="#eef4fc"/>
        <path id="Path_11211" data-name="Path 11211" d="M830.985,2115.333h17.062a8.686,8.686,0,0,0,7.823-4.91H823.162A8.686,8.686,0,0,0,830.985,2115.333Z" transform="translate(-619.38 -1978.643)" fill="#cfe1f8"/>
        <path id="Path_11212" data-name="Path 11212" d="M374.77,2125.546H631.04a7.562,7.562,0,0,0,7.562-7.562h0a7.562,7.562,0,0,0-7.562-7.562H374.77a7.562,7.562,0,0,0-7.562,7.562h0A7.562,7.562,0,0,0,374.77,2125.546Z" transform="translate(-346.886 -1978.643)" fill="none" stroke="#002daa" stroke-miterlimit="10" stroke-width="2"/>
        <path id="Path_11213" data-name="Path 11213" d="M374.77,2125.546H508.359a7.562,7.562,0,0,0,7.562-7.562h0a7.562,7.562,0,0,0-7.562-7.562H374.77a7.562,7.562,0,0,0-7.562,7.562h0A7.562,7.562,0,0,0,374.77,2125.546Z" transform="translate(-346.886 -1978.643)" fill="#fff"/>
        <path id="Path_11214" data-name="Path 11214" d="M374.77,2125.546H508.359a7.562,7.562,0,0,0,7.562-7.562h0a7.562,7.562,0,0,0-7.562-7.562H374.77a7.562,7.562,0,0,0-7.562,7.562h0A7.562,7.562,0,0,0,374.77,2125.546Z" transform="translate(-346.886 -1978.643)" fill="none" stroke="#002daa" stroke-miterlimit="10" stroke-width="2"/>
        <rect id="Rectangle_610" data-name="Rectangle 610" width="11.76" height="3.418" transform="translate(45.49 141.05) rotate(180)" fill="#002daa"/>
        <rect id="Rectangle_611" data-name="Rectangle 611" width="11.76" height="3.418" transform="translate(59.527 141.05) rotate(180)" fill="#002daa"/>
      </g>
      <line id="Line_13" data-name="Line 13" x2="370" transform="translate(0 239.007)" fill="none" stroke="#002daa" stroke-linecap="round" stroke-miterlimit="10" stroke-width="2"/>
      <g id="Group_1786" data-name="Group 1786" transform="translate(96.672 64.829)">
        <path id="Path_11215" data-name="Path 11215" d="M432.2,1873.557h120.83l-23.7-151.715a8.159,8.159,0,0,0-7.772-6.719H413.181a5.6,5.6,0,0,0-5.666,6.719Z" transform="translate(-407.432 -1715.123)" fill="#fff"/>
        <path id="Path_11216" data-name="Path 11216" d="M449.333,1823.463h99.185a2.011,2.011,0,0,0,2.034-2.413l-5.225-33.345a2.929,2.929,0,0,0-2.79-2.413H443.352a2.011,2.011,0,0,0-2.034,2.413l5.225,33.345A2.929,2.929,0,0,0,449.333,1823.463Z" transform="translate(-427.665 -1757.058)" fill="#ff5722"/>
        <g id="Group_1782" data-name="Group 1782" transform="translate(54.834 79.182)">
          <path id="Path_11217" data-name="Path 11217" d="M544.766,1916.911h37.126a.263.263,0,0,0,.266-.316l-.684-4.365a.383.383,0,0,0-.365-.316H543.983a.263.263,0,0,0-.266.316l.684,4.365A.383.383,0,0,0,544.766,1916.911Z" transform="translate(-543.712 -1911.914)" fill="#d1e1fc"/>
          <path id="Path_11218" data-name="Path 11218" d="M548.653,1938.911h73.339a.263.263,0,0,0,.266-.316l-.684-4.365a.383.383,0,0,0-.365-.316H547.87a.263.263,0,0,0-.266.316l.684,4.365A.383.383,0,0,0,548.653,1938.911Z" transform="translate(-546.035 -1925.062)" fill="#d1e1fc"/>
        </g>
        <g id="Group_1783" data-name="Group 1783" transform="translate(60.736 112.219)">
          <path id="Path_11219" data-name="Path 11219" d="M559.433,1999.019h37.126a.263.263,0,0,0,.266-.316l-.684-4.365a.383.383,0,0,0-.365-.316H558.65a.263.263,0,0,0-.266.316l.684,4.365A.384.384,0,0,0,559.433,1999.019Z" transform="translate(-558.379 -1994.022)" fill="#d1e1fc"/>
          <path id="Path_11220" data-name="Path 11220" d="M563.32,2021.019h73.339a.263.263,0,0,0,.266-.316l-.684-4.365a.383.383,0,0,0-.365-.316H562.537a.263.263,0,0,0-.266.316l.684,4.365A.384.384,0,0,0,563.32,2021.019Z" transform="translate(-560.702 -2007.17)" fill="#d1e1fc"/>
        </g>
        <g id="Group_1784" data-name="Group 1784" transform="translate(66.637 145.256)">
          <path id="Path_11221" data-name="Path 11221" d="M574.1,2081.126h37.127a.263.263,0,0,0,.266-.316l-.684-4.365a.384.384,0,0,0-.365-.316H573.317a.263.263,0,0,0-.266.316l.684,4.365A.383.383,0,0,0,574.1,2081.126Z" transform="translate(-573.046 -2076.129)" fill="#d1e1fc"/>
          <path id="Path_11222" data-name="Path 11222" d="M650.908,2098.445a.384.384,0,0,0-.365-.316H577.2a.263.263,0,0,0-.266.316l.628,4.01h73.971Z" transform="translate(-575.369 -2089.277)" fill="#d1e1fc"/>
        </g>
        <path id="Path_11223" data-name="Path 11223" d="M464.819,1922.509h24.7a1.276,1.276,0,0,0,1.291-1.531l-3.315-21.156a1.858,1.858,0,0,0-1.77-1.531h-24.7a1.276,1.276,0,0,0-1.291,1.531l3.315,21.156A1.859,1.859,0,0,0,464.819,1922.509Z" transform="translate(-438.678 -1824.591)" fill="#b3cdfa"/>
        <path id="Path_11224" data-name="Path 11224" d="M478.486,2005.355h24.7a1.276,1.276,0,0,0,1.291-1.531l-3.315-21.156a1.859,1.859,0,0,0-1.771-1.531h-24.7a1.276,1.276,0,0,0-1.291,1.531l3.315,21.156A1.859,1.859,0,0,0,478.486,2005.355Z" transform="translate(-446.846 -1874.103)" fill="#b3cdfa"/>
        <path id="Path_11225" data-name="Path 11225" d="M515.421,2065.334a1.859,1.859,0,0,0-1.77-1.531h-24.7a1.276,1.276,0,0,0-1.291,1.531l2.6,16.607h27.763Z" transform="translate(-455.367 -1923.507)" fill="#b3cdfa"/>
        <path id="Path_11226" data-name="Path 11226" d="M409.861,1736.817l-2.346-14.975a5.6,5.6,0,0,1,5.666-6.719H521.565a8.158,8.158,0,0,1,7.772,6.719l2.347,14.975Z" transform="translate(-407.432 -1715.123)" fill="#002daa"/>
        <path id="Path_11227" data-name="Path 11227" d="M478.312,1739.321a2.257,2.257,0,0,0,2.15,1.859,1.55,1.55,0,0,0,1.567-1.859,2.257,2.257,0,0,0-2.149-1.858A1.55,1.55,0,0,0,478.312,1739.321Z" transform="translate(-449.779 -1728.474)" fill="#fff"/>
        <path id="Path_11228" data-name="Path 11228" d="M458.249,1739.321a2.257,2.257,0,0,0,2.15,1.859,1.55,1.55,0,0,0,1.567-1.859,2.257,2.257,0,0,0-2.15-1.858A1.55,1.55,0,0,0,458.249,1739.321Z" transform="translate(-437.788 -1728.474)" fill="#fff"/>
        <path id="Path_11229" data-name="Path 11229" d="M438.187,1739.321a2.257,2.257,0,0,0,2.149,1.859,1.55,1.55,0,0,0,1.567-1.859,2.256,2.256,0,0,0-2.149-1.858A1.55,1.55,0,0,0,438.187,1739.321Z" transform="translate(-425.798 -1728.474)" fill="#fff"/>
        <g id="Group_1785" data-name="Group 1785" transform="translate(42.193 32.68)">
          <path id="Path_11230" data-name="Path 11230" d="M567.894,1857.061h-55.2l-.4-2.057h55.2Z" transform="translate(-512.294 -1831.401)" fill="#bf411a"/>
          <path id="Path_11231" data-name="Path 11231" d="M543.723,1857.061H512.694l-.4-2.057h31.029Z" transform="translate(-512.294 -1831.401)" fill="#fff"/>
          <path id="Path_11232" data-name="Path 11232" d="M588.719,1854.123a1.852,1.852,0,0,1-1.865,2.314,2.947,2.947,0,0,1-2.764-2.314,1.852,1.852,0,0,1,1.864-2.314A2.948,2.948,0,0,1,588.719,1854.123Z" transform="translate(-555.176 -1829.491)" fill="#fff"/>
          <path id="Path_11233" data-name="Path 11233" d="M589.247,1855.65a1.029,1.029,0,0,1-1.035,1.286,1.637,1.637,0,0,1-1.536-1.286,1.029,1.029,0,0,1,1.036-1.286A1.638,1.638,0,0,1,589.247,1855.65Z" transform="translate(-556.733 -1831.018)" fill="#ff5722"/>
          <path id="Path_11234" data-name="Path 11234" d="M568.392,1806.32l-11.558,7.517a1.564,1.564,0,0,1-2.2-1.141l-2.922-15.033c-.2-1.014.778-1.648,1.755-1.141l14.48,7.516C568.926,1804.545,569.172,1805.813,568.392,1806.32Z" transform="translate(-535.837 -1796.343)" fill="#fff"/>
        </g>
      </g>
      <g id="Group_1790" data-name="Group 1790" transform="translate(199.929 86.01)">
        <path id="Path_11235" data-name="Path 11235" d="M680.969,1975.144l-10.551,17.884a7.443,7.443,0,0,0,1.366,9.256l17.471,16.106,8.894-11.288Z" transform="translate(-669.385 -1891.701)" fill="#b3cdfa"/>
        <g id="Group_1787" data-name="Group 1787" transform="translate(75.002 0.178)">
          <path id="Path_11236" data-name="Path 11236" d="M912.235,1886.3l4.953,7.671-2.369,1.606-4.694-5.523Z" transform="translate(-888.261 -1838.782)" fill="#f1f2f2"/>
          <path id="Path_11237" data-name="Path 11237" d="M901.163,1886.176l5.277,18.947a.531.531,0,0,1-.371.653l-8.516,2.371a.53.53,0,0,1-.657-.367l-5.276-18.947Z" transform="translate(-877.203 -1838.709)" fill="#002daa"/>
          <path id="Path_11238" data-name="Path 11238" d="M865.391,1862.966a7.571,7.571,0,1,1-4.063-14.586Z" transform="translate(-855.787 -1816.121)" fill="#002daa"/>
          <path id="Path_11239" data-name="Path 11239" d="M1009.262,1823.846a7.018,7.018,0,1,0-3.765-13.521Z" transform="translate(-945.259 -1793.223)" fill="#002daa"/>
          <rect id="Rectangle_612" data-name="Rectangle 612" width="19.68" height="19.678" transform="translate(3.607 30.218) rotate(-15.561)" fill="#fff"/>
          <rect id="Rectangle_613" data-name="Rectangle 613" width="19.68" height="9.834" transform="translate(6.247 39.702) rotate(-15.561)" fill="#d1e1f2"/>
          <rect id="Rectangle_614" data-name="Rectangle 614" width="3.558" height="47.586" transform="translate(55.693 0.955) rotate(-15.563)" fill="#fff"/>
          <rect id="Rectangle_615" data-name="Rectangle 615" width="14.441" height="2.449" transform="translate(11.594 48.421) rotate(-15.561)" fill="#002280"/>
          <path id="Path_11240" data-name="Path 11240" d="M897,1895.451l-3.865,1.076.9,3.243,3.864-1.076a1.683,1.683,0,1,0-.9-3.243Z" transform="translate(-878.109 -1844.215)" fill="#002280"/>
          <path id="Path_11241" data-name="Path 11241" d="M900.816,1909.146l-3.864,1.082.9,3.243,3.865-1.076a1.686,1.686,0,1,0-.9-3.248Z" transform="translate(-880.389 -1852.401)" fill="#002280"/>
          <path id="Path_11242" data-name="Path 11242" d="M904.632,1922.848l-3.865,1.076.9,3.248,3.866-1.081a1.683,1.683,0,1,0-.9-3.243Z" transform="translate(-882.669 -1860.588)" fill="#002280"/>
          <path id="Path_11243" data-name="Path 11243" d="M945.013,1770.639l-33.128,23.985,2.561,9.2,36.942-10.287Z" transform="translate(-889.313 -1769.66)" fill="#3357bb"/>
          <path id="Path_11244" data-name="Path 11244" d="M918.251,1837.831l2.716,9.758,40.6,2.851-6.377-22.9Z" transform="translate(-893.118 -1803.668)" fill="#002daa"/>
        </g>
        <path id="Path_11245" data-name="Path 11245" d="M786.836,1865.556s-5.709,6.4-5.536,11.764l0,5.536H765.73s3.062-24.817,0-26.815h10.553Z" transform="translate(-726.964 -1820.521)" fill="#fff"/>
        <path id="Path_11246" data-name="Path 11246" d="M786.836,1865.556s-5.709,6.4-5.536,11.764l0,5.536H765.73s3.062-24.817,0-26.815h10.553Z" transform="translate(-726.964 -1820.521)" fill="none" stroke="#002daa" stroke-linecap="round" stroke-miterlimit="10" stroke-width="2"/>
        <g id="Group_1788" data-name="Group 1788" transform="translate(41.173 9.993)">
          <path id="Path_11247" data-name="Path 11247" d="M850.4,1811.564c-.282-.676-.58-1.363-.9-2.041-.018-.089-.033-.179-.051-.268Z" transform="translate(-818.172 -1802.553)" fill="#fff"/>
          <path id="Path_11248" data-name="Path 11248" d="M772.725,1807.146a26.844,26.844,0,0,1,2.169-4.225c2.371-3.923,5.349-7.837,9.656-9.409a21.47,21.47,0,0,1,7.74-.9,13.47,13.47,0,0,1,5.757.99c2.388,1.171,3.846,3.507,5,5.969.36,1.745.667,3.513.9,5.291.406,3.127,2.923,6.283,2.726,9.4-.034.533-2.427,1.065-2.483,1.6a32.7,32.7,0,0,1-1.478,6.947,12.711,12.711,0,0,1-3.268,5.564,11.85,11.85,0,0,1-5.056,2.461,13.515,13.515,0,0,1-6.019.325,19.338,19.338,0,0,1-5.138-2.143,32.463,32.463,0,0,1-5.894-3.725A16.652,16.652,0,0,1,772.725,1807.146Z" transform="translate(-771.713 -1792.598)" fill="#fff"/>
        </g>
        <g id="Group_1789" data-name="Group 1789" transform="translate(42.185 9.993)">
          <path id="Path_11249" data-name="Path 11249" d="M774.228,1807.146a26.849,26.849,0,0,1,2.169-4.225c2.371-3.923,5.349-7.837,9.656-9.409a21.47,21.47,0,0,1,7.74-.9,13.47,13.47,0,0,1,5.757.99c2.388,1.171,3.846,3.507,5,5.969.36,1.745.667,3.513.9,5.291.406,3.127,2.923,6.283,2.726,9.4-.034.533-2.427,1.065-2.483,1.6a32.707,32.707,0,0,1-1.478,6.947,12.71,12.71,0,0,1-3.268,5.564,11.85,11.85,0,0,1-5.056,2.461,13.515,13.515,0,0,1-6.019.325,19.339,19.339,0,0,1-5.138-2.143" transform="translate(-774.228 -1792.598)" fill="none" stroke="#002daa" stroke-linecap="round" stroke-miterlimit="10" stroke-width="2"/>
        </g>
        <path id="Path_11250" data-name="Path 11250" d="M756.252,1799.142a6.636,6.636,0,0,1-.71-8.346,1.68,1.68,0,0,0,.441-.927,1.767,1.767,0,0,0-.418-.909,4.758,4.758,0,0,1,0-5.151A1.528,1.528,0,0,0,755.9,1782a4.771,4.771,0,0,1,5.625-5.967,6.846,6.846,0,0,1,.648-3.9c.7-1.14,2.372-1.783,3.425-.956,0-2.563,3.606-3.029,5.461-3.167a13.106,13.106,0,0,1,4.12-.094,7.346,7.346,0,0,1,2.009.777c.162.092,1.415,1.119,1.448,1.1a7.96,7.96,0,0,1,9.206,2.658,4.152,4.152,0,0,1,4.165-.572,4.1,4.1,0,0,1,1.886,1.686c.325.554.351,1.259.8,1.708.583.577,1.655.816,2.321,1.354a4.374,4.374,0,0,1,1.46,1.953,6.523,6.523,0,0,1,.127,2.833,4.869,4.869,0,0,1-.712,2.37,4.274,4.274,0,0,1-1.691,1.246,11.3,11.3,0,0,1-4.029,1.168,4.661,4.661,0,0,1-2.835-1.1c-.522-.351-2.913-2.493-2.246-3.182a8.649,8.649,0,0,1-2.806,2.164,3.144,3.144,0,0,1-3.342-.442c.653,1.58-.07,3.175-.066,4.838,0,1.85.243,3.75-.332,5.546-.554,1.734-1.838,3.243-1.978,5.059a8.468,8.468,0,0,1-.1,1.339,1.226,1.226,0,0,1-.836.962,1.192,1.192,0,0,1-.993-.321,3.429,3.429,0,0,1-.889-2.656c0-1.361.22-2.71.246-4.069s.177-2.526-1.237-2.934c-2.352-.678-5.247-.125-6.571,1.933-1.244,1.935-.768,4.488-1.4,6.7a8.619,8.619,0,0,1-4.884,5.245,17.041,17.041,0,0,1-7.237,1.224A6.865,6.865,0,0,1,756.252,1799.142Z" transform="translate(-720.073 -1767.763)" fill="#ff5722"/>
        <path id="Path_11251" data-name="Path 11251" d="M725.665,1875.82s-1.057.53-2.794,1.367a46.09,46.09,0,0,0-26.1,37.576,117.585,117.585,0,0,0-.276,13.781c.049,1.386,3.242,18.56,3.422,19.935.283,2.168-.379,11.529-1.222,21.451l56.072.285-7.763-54.879a45.375,45.375,0,0,0-2.046-11.979L740,1887.5Z" transform="translate(-685.539 -1832.342)" fill="#002daa"/>
        <path id="Path_11252" data-name="Path 11252" d="M748.608,1903.5l23.534,21.357a3.015,3.015,0,0,0,4.3-.254l18.947-21.792-3.28-3.9a5.967,5.967,0,0,1-1.391-4.219h0a5.459,5.459,0,0,1,3.591-4.791l.816-.3.367,3.266,3.877-1.132,4.828-5.244h0a4.719,4.719,0,0,1,5.14-1.79l1.3.372,1.244,1.775-.647,1.987,1.13,2.31-.512,3.191.39.968a5.686,5.686,0,0,1,.063,4.084l-1.5,4.083a3.6,3.6,0,0,1-1.42,1.779l-5.484,3.558-20.939,36.229a7.645,7.645,0,0,1-10.942,2.481l-37.755-25.882a11.593,11.593,0,0,1-1.949-17.441h0A11.592,11.592,0,0,1,748.608,1903.5Z" transform="translate(-705.147 -1837.548)" fill="#fff"/>
        <path id="Path_11253" data-name="Path 11253" d="M748.608,1903.5l22.668,22.246c1.251,1.136,4.344,1.108,5.453-.168l17.967-21.922a1.315,1.315,0,0,0-.011-1.681l-2.576-3.059a5.967,5.967,0,0,1-1.391-4.219h0a5.459,5.459,0,0,1,3.591-4.791l.816-.3.367,3.266,3.877-1.132,4.828-5.244h0a4.719,4.719,0,0,1,5.14-1.79l1.3.372,1.244,1.775-.647,1.987,1.13,2.31-.512,3.191.39.968a5.684,5.684,0,0,1,.063,4.084l-1.5,4.083a3.6,3.6,0,0,1-1.419,1.778l-5.485,3.559-21.38,34.63c-2.229,3.856-6.227,5.706-9.9,3.188l-38.356-24.991a11.593,11.593,0,0,1-1.949-17.441h0A11.592,11.592,0,0,1,748.608,1903.5Z" transform="translate(-705.147 -1837.548)" fill="none" stroke="#002daa" stroke-linecap="round" stroke-miterlimit="10" stroke-width="2"/>
        <path id="Path_11254" data-name="Path 11254" d="M794.265,1926.393l-17.822,21.927a3.015,3.015,0,0,1-4.3.254l-23.534-21.357a11.592,11.592,0,0,0-16.294.705h0a11.593,11.593,0,0,0,1.949,17.441l37.755,25.882a7.645,7.645,0,0,0,10.942-2.48l20.616-34.452Z" transform="translate(-705.147 -1861.26)" fill="#b3cdfa"/>
        <path id="Path_11255" data-name="Path 11255" d="M761.87,1870.368l-1.73,4.985,21,25.753,3.393-14.241Z" transform="translate(-723.623 -1829.083)" fill="#b3cdfa"/>
      </g>
      <path id="Path_11256" data-name="Path 11256" d="M385.687,1799.17l-4.338-27.475a4.831,4.831,0,0,0-4.771-4.077H317.459l6.551,37.136h56.906A4.831,4.831,0,0,0,385.687,1799.17Z" transform="translate(-256.132 -1678.525)" fill="#001755" opacity="0.5"/>
      <g id="Group_1792" data-name="Group 1792" transform="translate(20.444 84.786)">
        <path id="Path_11257" data-name="Path 11257" d="M317.59,1788.17l-4.338-27.475a4.83,4.83,0,0,0-4.771-4.077h-89.7a4.831,4.831,0,0,0-4.772,5.584l4.338,27.475a4.83,4.83,0,0,0,4.771,4.077h89.7A4.831,4.831,0,0,0,317.59,1788.17Z" transform="translate(-213.951 -1756.618)" fill="#1067db"/>
        <g id="Group_1791" data-name="Group 1791" transform="translate(34.335 8.647)">
          <path id="Path_11258" data-name="Path 11258" d="M317.882,1782.546l-.61-3.864a.679.679,0,0,0-.671-.573H299.964a.679.679,0,0,0-.671.785l.61,3.864a.68.68,0,0,0,.671.573h16.638A.679.679,0,0,0,317.882,1782.546Z" transform="translate(-299.284 -1778.109)" fill="#ff5722"/>
          <path id="Path_11259" data-name="Path 11259" d="M360.619,1800.712l-.61-3.864a.679.679,0,0,0-.671-.573H302.464a.679.679,0,0,0-.671.785l.61,3.864a.679.679,0,0,0,.671.573h56.874A.679.679,0,0,0,360.619,1800.712Z" transform="translate(-300.778 -1788.966)" fill="#b3cdfa"/>
          <path id="Path_11260" data-name="Path 11260" d="M343,1818.879l-.61-3.864a.679.679,0,0,0-.671-.573H304.964a.679.679,0,0,0-.671.785l.61,3.864a.679.679,0,0,0,.671.573H342.33A.679.679,0,0,0,343,1818.879Z" transform="translate(-302.272 -1799.823)" fill="#b3cdfa"/>
        </g>
        <path id="Path_11261" data-name="Path 11261" d="M249.718,1791.086a2.959,2.959,0,0,0-2.391,1l-5.994-3.037a2.962,2.962,0,0,0-.145-1.089,4.131,4.131,0,0,0-.519-1l4.074-2.924a5.49,5.49,0,0,0,2.943.935c2.131,0,3.348-1.536,2.718-3.432a5.532,5.532,0,0,0-5-3.432c-2.131,0-3.348,1.537-2.718,3.432a4.211,4.211,0,0,0,.607,1.131l-4.018,2.885a5.532,5.532,0,0,0-3.087-1.025c-2.131,0-3.348,1.537-2.718,3.432a5.531,5.531,0,0,0,5,3.432,2.974,2.974,0,0,0,2.349-.962l6.035,3.057a2.993,2.993,0,0,0,.146,1.028,5.532,5.532,0,0,0,5,3.432c2.131,0,3.348-1.537,2.718-3.432A5.532,5.532,0,0,0,249.718,1791.086Z" transform="translate(-225.517 -1769.461)" fill="#fff"/>
      </g>
      <path id="Path_11262" data-name="Path 11262" d="M475.2,1950.369l-4.822-33.731a5.026,5.026,0,0,0-4.813-4.212H413.348a3.566,3.566,0,0,0-3.609,4.212l4.822,33.731a5.025,5.025,0,0,0,4.813,4.211h52.217A3.565,3.565,0,0,0,475.2,1950.369Z" transform="translate(-311.702 -1766.732)" fill="#001755" opacity="0.5"/>
      <g id="Group_1793" data-name="Group 1793" transform="translate(92.429 141.976)">
        <path id="Path_11263" data-name="Path 11263" d="M405.374,1945.08h52.217a3.565,3.565,0,0,0,3.609-4.211l-4.822-33.731a5.026,5.026,0,0,0-4.813-4.211H399.348a3.566,3.566,0,0,0-3.609,4.211l4.822,33.731A5.025,5.025,0,0,0,405.374,1945.08Z" transform="translate(-395.695 -1902.926)" fill="#fff"/>
        <path id="Path_11264" data-name="Path 11264" d="M417.181,1945.167h44.757a2.9,2.9,0,0,0,2.931-3.419l-3.622-25.337a4.081,4.081,0,0,0-3.908-3.42H412.582a2.9,2.9,0,0,0-2.931,3.42l3.622,25.337A4.08,4.08,0,0,0,417.181,1945.167Z" transform="translate(-404.015 -1908.941)" fill="#1067db"/>
        <path id="Path_11265" data-name="Path 11265" d="M516.491,1953.867l.827,5.607a2.881,2.881,0,0,1-2.937,3.273H497.367l9.548-20.34Z" transform="translate(-456.458 -1926.521)" fill="#002daa"/>
        <path id="Path_11266" data-name="Path 11266" d="M517.033,1948.378l-.545,1.179-1.518-1.816,2.465-5.334,4.414,5.283-.863,1.868-1.044-1.249-1.057,2.287Z" transform="translate(-466.978 -1926.521)" fill="#fff"/>
        <path id="Path_11267" data-name="Path 11267" d="M482.307,1968.6l-7.323-9-6.393,13.42h11.6Z" transform="translate(-439.26 -1936.799)" fill="#002daa"/>
        <path id="Path_11268" data-name="Path 11268" d="M436.08,1931.812a6.76,6.76,0,0,0,6.475,5.665,4.8,4.8,0,0,0,4.855-5.665,6.761,6.761,0,0,0-6.474-5.665A4.8,4.8,0,0,0,436.08,1931.812Z" transform="translate(-419.796 -1916.804)" fill="#ff5722"/>
        <path id="Path_11269" data-name="Path 11269" d="M480.234,1965.577l-.545,1.179-1.518-1.816,2.539-5.334,4.34,5.282-.863,1.868-1.044-1.249-1.057,2.287Z" transform="translate(-444.986 -1936.799)" fill="#fff"/>
      </g>
      <g id="Group_1798" data-name="Group 1798" transform="translate(138.22 27.705)">
        <path id="Path_11270" data-name="Path 11270" d="M615.156,1640.485l-4.338-27.474a4.83,4.83,0,0,0-4.771-4.077h-89.7a4.831,4.831,0,0,0-4.772,5.584l4.338,27.475a4.83,4.83,0,0,0,4.771,4.077h89.7A4.83,4.83,0,0,0,615.156,1640.485Z" transform="translate(-511.517 -1608.934)" fill="#fff"/>
        <g id="Group_1794" data-name="Group 1794" transform="translate(37.606 10.734)">
          <path id="Path_11271" data-name="Path 11271" d="M663.813,1640.049l-.61-3.864a.679.679,0,0,0-.671-.573H605.658a.679.679,0,0,0-.671.785l.61,3.864a.68.68,0,0,0,.671.573h56.874A.679.679,0,0,0,663.813,1640.049Z" transform="translate(-604.978 -1635.612)" fill="#b3cdfa"/>
          <path id="Path_11272" data-name="Path 11272" d="M646.195,1658.215l-.61-3.864a.68.68,0,0,0-.671-.573H608.158a.68.68,0,0,0-.671.786l.61,3.864a.68.68,0,0,0,.671.573h36.756A.679.679,0,0,0,646.195,1658.215Z" transform="translate(-606.472 -1646.469)" fill="#002daa"/>
        </g>
        <g id="Group_1797" data-name="Group 1797" transform="translate(11.126 8.79)">
          <g id="Group_1796" data-name="Group 1796">
            <g id="Group_1795" data-name="Group 1795">
              <path id="Path_11273" data-name="Path 11273" d="M551.3,1649.212a11.672,11.672,0,0,1-5.239,1.123c-4.609,0-7.8-3.372-6.654-8.767,1.227-5.786,6.307-10.789,12.543-10.789,4.889,0,7.449,3.429,6.454,8.121-.894,4.214-3.778,6.687-6.42,6.687-1.123,0-2-.759-1.555-2.473h-.112a5.671,5.671,0,0,1-4.486,2.473c-1.63,0-2.755-1.32-2.283-3.541a8.638,8.638,0,0,1,8.07-6.657,6.521,6.521,0,0,1,2.882.59l-2.034,5.083c-.874,2.136-.745,3.12.175,3.148,1.428.028,3.434-1.883,4.126-5.143.863-4.072-.961-7-5.316-7-4.58,0-9.2,3.626-10.408,9.33-1,4.692,1.454,7.586,5.612,7.586A10.054,10.054,0,0,0,551.1,1648Zm1.029-12.136a4.411,4.411,0,0,0-1.362-.2c-2.473,0-4.962,2.331-5.541,5.056-.262,1.238.166,2.137,1.4,2.137,1.63,0,3.56-2.079,4.239-3.823Z" transform="translate(-539.168 -1630.78)" fill="#002daa"/>
            </g>
          </g>
        </g>
      </g>
      <g id="Group_1799" data-name="Group 1799" transform="translate(21.659 126.591)">
        <path id="Path_11274" data-name="Path 11274" d="M226.061,1894.968l20.774.2a4.812,4.812,0,0,0,4.791-5.6l-3.6-21.552a5.557,5.557,0,0,0-5.429-4.642l-20.774-.195a4.812,4.812,0,0,0-4.791,5.6l3.6,21.553A5.557,5.557,0,0,0,226.061,1894.968Z" transform="translate(-216.968 -1863.17)" fill="#002daa"/>
        <path id="Path_11275" data-name="Path 11275" d="M241.889,1892.885a.526.526,0,0,1-.006.61l-.835,1.018a.694.694,0,0,0,.171.947l1.946,1.65a.668.668,0,0,0,.948,0l.829-1.01a.519.519,0,0,1,.616-.1q.211.089.425.165a.713.713,0,0,1,.469.524l.258,1.43a.84.84,0,0,0,.791.671l2.331,0a.544.544,0,0,0,.55-.669l-.261-1.445a.448.448,0,0,1,.258-.514c.126-.052.272-.115.406-.177a.6.6,0,0,1,.631.118l1.2,1.021a.668.668,0,0,0,.948,0l1.352-1.645a.694.694,0,0,0-.171-.947l-1.194-1.013a.63.63,0,0,1-.219-.636q.054-.194.093-.395a.449.449,0,0,1,.456-.373l1.431,0a.543.543,0,0,0,.55-.668l-.418-2.331a.84.84,0,0,0-.79-.671l-1.446,0a.688.688,0,0,1-.577-.351c-.077-.136-.168-.293-.256-.438a.526.526,0,0,1,.007-.61l.837-1.016a.694.694,0,0,0-.169-.947l-1.944-1.652a.669.669,0,0,0-.948,0l-.831,1.009a.52.52,0,0,1-.617.1q-.221-.094-.445-.173a.714.714,0,0,1-.47-.523l-.26-1.43a.84.84,0,0,0-.791-.67h-2.331a.544.544,0,0,0-.548.67l.263,1.444a.448.448,0,0,1-.256.515c-.126.052-.272.115-.405.178a.605.605,0,0,1-.632-.117l-1.2-1.02a.667.667,0,0,0-.947,0l-1.349,1.647a.694.694,0,0,0,.172.947l1.2,1.012a.63.63,0,0,1,.22.636c-.035.13-.066.262-.092.4a.449.449,0,0,1-.456.374h-1.43a.543.543,0,0,0-.549.669l.422,2.33a.84.84,0,0,0,.791.67l1.828,0C241.448,1892.122,241.677,1892.537,241.889,1892.885Zm6.993.461a3.941,3.941,0,0,1-4.892-2.485,2.8,2.8,0,0,1,1.388-3.674,3.941,3.941,0,0,1,4.892,2.484A2.8,2.8,0,0,1,248.882,1893.346Z" transform="translate(-229.767 -1874.271)" fill="#fff"/>
      </g>
      <g id="Group_1802" data-name="Group 1802" transform="translate(67.671 5.755)">
        <g id="Group_1801" data-name="Group 1801">
          <path id="Path_11276" data-name="Path 11276" d="M333.532,1578c1.864,13.042,13.946,23.613,26.988,23.613s22.1-10.571,20.237-23.613-13.948-23.613-26.988-23.613S331.667,1564.956,333.532,1578Z" transform="translate(-333.289 -1554.383)" fill="#ff5722"/>
          <g id="Group_1800" data-name="Group 1800" transform="translate(14.77 9.951)">
            <path id="Path_11277" data-name="Path 11277" d="M379.562,1606.438l-.353-2.423a17.824,17.824,0,0,1-8.325-3.818l2.541-3.752a16.2,16.2,0,0,0,5.1,2.888l-.721-4.947a13.938,13.938,0,0,1-5.463-2.407,6.592,6.592,0,0,1-2.26-4.349,5.588,5.588,0,0,1,1.177-4.681,6.868,6.868,0,0,1,4.559-2.208l-.237-1.627h3.52l.247,1.693a17.717,17.717,0,0,1,7.008,2.756l-2.151,3.917a15.077,15.077,0,0,0-4.175-1.992l.7,4.78a14.73,14.73,0,0,1,5.658,2.49,6.648,6.648,0,0,1,2.353,4.415,5.57,5.57,0,0,1-1.222,4.715,7.2,7.2,0,0,1-4.772,2.224l.339,2.324Zm-3.072-21.082a1.555,1.555,0,0,0-1.162,1.826,2.646,2.646,0,0,0,1.723,2.025Zm6.973,12.085a2.105,2.105,0,0,0-.534-1.162,3.985,3.985,0,0,0-1.454-.863l.6,4.083A1.742,1.742,0,0,0,383.463,1597.442Z" transform="translate(-369.997 -1579.115)" fill="#fff"/>
          </g>
        </g>
      </g>
      <g id="Group_1803" data-name="Group 1803" transform="translate(63.21 1.573)">
        <ellipse id="Ellipse_2381" data-name="Ellipse 2381" cx="0.907" cy="1.046" rx="0.907" ry="1.046" transform="matrix(0.681, -0.732, 0.732, 0.681, 30.856, 54.91)" fill="#002daa"/>
        <path id="Path_11278" data-name="Path 11278" d="M377.4,1674.85a1.161,1.161,0,0,0-1.1-.989.823.823,0,0,0-.848.96,1.161,1.161,0,0,0,1.1.99A.824.824,0,0,0,377.4,1674.85Z" transform="translate(-353.989 -1621.604)" fill="#002daa"/>
        <path id="Path_11279" data-name="Path 11279" d="M355.646,1663.02a1.16,1.16,0,0,0-1.081-1,.823.823,0,0,0-.862.946,1.159,1.159,0,0,0,1.081,1A.823.823,0,0,0,355.646,1663.02Z" transform="translate(-340.993 -1614.525)" fill="#002daa"/>
        <path id="Path_11280" data-name="Path 11280" d="M338.3,1645.207a1.159,1.159,0,0,0-1.064-1.02.822.822,0,0,0-.875.932,1.159,1.159,0,0,0,1.064,1.02A.822.822,0,0,0,338.3,1645.207Z" transform="translate(-330.63 -1603.87)" fill="#002daa"/>
        <path id="Path_11281" data-name="Path 11281" d="M327.148,1622.976a1.158,1.158,0,0,0-1.048-1.035.821.821,0,0,0-.888.918,1.158,1.158,0,0,0,1.048,1.035A.822.822,0,0,0,327.148,1622.976Z" transform="translate(-323.967 -1590.574)" fill="#002daa"/>
        <path id="Path_11282" data-name="Path 11282" d="M324.059,1597.307a1.157,1.157,0,0,0-1.032-1.051.821.821,0,0,0-.9.9,1.157,1.157,0,0,0,1.032,1.051A.821.821,0,0,0,324.059,1597.307Z" transform="translate(-322.124 -1575.224)" fill="#002daa"/>
        <path id="Path_11283" data-name="Path 11283" d="M330.829,1573.707a1.156,1.156,0,0,0-1.015-1.066.82.82,0,0,0-.915.89,1.157,1.157,0,0,0,1.015,1.066A.821.821,0,0,0,330.829,1573.707Z" transform="translate(-326.171 -1561.109)" fill="#002daa"/>
        <path id="Path_11284" data-name="Path 11284" d="M346.174,1555.813a1.157,1.157,0,0,0-1-1.081.821.821,0,0,0-.929.876,1.157,1.157,0,0,0,1,1.081A.821.821,0,0,0,346.174,1555.813Z" transform="translate(-335.344 -1550.406)" fill="#002daa"/>
        <path id="Path_11285" data-name="Path 11285" d="M368.339,1545.68a1.157,1.157,0,0,0-.983-1.1.821.821,0,0,0-.942.862,1.156,1.156,0,0,0,.983,1.1A.821.821,0,0,0,368.339,1545.68Z" transform="translate(-348.593 -1544.34)" fill="#002daa"/>
        <path id="Path_11286" data-name="Path 11286" d="M459.667,1635.8a1.157,1.157,0,0,0-.983-1.1.821.821,0,0,0-.942.862,1.158,1.158,0,0,0,.983,1.1A.821.821,0,0,0,459.667,1635.8Z" transform="translate(-403.174 -1598.2)" fill="#002daa"/>
        <path id="Path_11287" data-name="Path 11287" d="M448.564,1659.076a1.157,1.157,0,0,0-.983-1.1.821.821,0,0,0-.942.862,1.157,1.157,0,0,0,.983,1.1A.821.821,0,0,0,448.564,1659.076Z" transform="translate(-396.538 -1612.109)" fill="#002daa"/>
        <path id="Path_11288" data-name="Path 11288" d="M428.459,1672.513a1.157,1.157,0,0,0-.983-1.1.821.821,0,0,0-.942.862,1.157,1.157,0,0,0,.983,1.1A.821.821,0,0,0,428.459,1672.513Z" transform="translate(-384.523 -1620.139)" fill="#002daa"/>
        <path id="Path_11289" data-name="Path 11289" d="M393.937,1545.109a1.157,1.157,0,0,0-.966-1.112.821.821,0,0,0-.956.848,1.158,1.158,0,0,0,.966,1.112A.821.821,0,0,0,393.937,1545.109Z" transform="translate(-363.893 -1543.988)" fill="#002daa"/>
        <path id="Path_11290" data-name="Path 11290" d="M417.321,1553.1a1.159,1.159,0,0,0-.95-1.127.822.822,0,0,0-.969.834,1.159,1.159,0,0,0,.95,1.127A.822.822,0,0,0,417.321,1553.1Z" transform="translate(-377.87 -1548.751)" fill="#002daa"/>
        <path id="Path_11291" data-name="Path 11291" d="M437.264,1567.908a1.159,1.159,0,0,0-.934-1.143.823.823,0,0,0-.983.82,1.16,1.16,0,0,0,.934,1.143A.823.823,0,0,0,437.264,1567.908Z" transform="translate(-389.79 -1557.592)" fill="#002daa"/>
        <path id="Path_11292" data-name="Path 11292" d="M451.976,1587.979a1.161,1.161,0,0,0-.917-1.158.824.824,0,0,0-1,.806,1.162,1.162,0,0,0,.917,1.158A.824.824,0,0,0,451.976,1587.979Z" transform="translate(-398.584 -1569.577)" fill="#002daa"/>
        <path id="Path_11293" data-name="Path 11293" d="M459.668,1611.743a1.162,1.162,0,0,0-.9-1.173.825.825,0,0,0-1.01.791,1.162,1.162,0,0,0,.9,1.173A.825.825,0,0,0,459.668,1611.743Z" transform="translate(-403.182 -1583.768)" fill="#002daa"/>
      </g>
      <g id="Group_1804" data-name="Group 1804" transform="translate(246.044 25.004)">
        <path id="Path_11294" data-name="Path 11294" d="M803.72,1617.377l2.521,18.841a5.083,5.083,0,0,0,4.885,4.308h1.984l.588,4.4.78,5.832c.061.454.656.661.9.312l9.51-10.54h22.485a3.685,3.685,0,0,0,3.732-4.308l-2.521-18.841a5.083,5.083,0,0,0-4.885-4.308H807.452A3.685,3.685,0,0,0,803.72,1617.377Z" transform="translate(-794.946 -1608.704)" fill="#ff5722"/>
        <path id="Path_11295" data-name="Path 11295" d="M845.531,1630.743h22.408a1.361,1.361,0,0,0,1.379-1.591h0a1.878,1.878,0,0,0-1.8-1.592H845.105a1.361,1.361,0,0,0-1.378,1.592h0A1.877,1.877,0,0,0,845.531,1630.743Z" transform="translate(-818.87 -1617.365)" fill="#fff"/>
        <path id="Path_11296" data-name="Path 11296" d="M847.815,1647.819h22.408a1.361,1.361,0,0,0,1.378-1.591h0a1.878,1.878,0,0,0-1.8-1.592H847.389a1.362,1.362,0,0,0-1.378,1.592h0A1.878,1.878,0,0,0,847.815,1647.819Z" transform="translate(-820.235 -1627.57)" fill="#fff"/>
        <path id="Path_11297" data-name="Path 11297" d="M850.1,1664.9h22.408a1.361,1.361,0,0,0,1.378-1.592h0a1.877,1.877,0,0,0-1.8-1.592H849.674a1.361,1.361,0,0,0-1.378,1.592h0A1.878,1.878,0,0,0,850.1,1664.9Z" transform="translate(-821.601 -1637.775)" fill="#fff"/>
        <path id="Path_11298" data-name="Path 11298" d="M807.452,1613.069h27c.018.092.051.179.064.272l2.713,20.274a3.965,3.965,0,0,1-4.016,4.636h-2.136l.3,2.276H824.89l-1.668,1.849-4.824-4.124H807.045a4.782,4.782,0,0,1-.8-2.033l-2.521-18.841A3.685,3.685,0,0,1,807.452,1613.069Z" transform="translate(-794.946 -1608.704)" fill="#231f20" opacity="0.3"/>
        <path id="Path_11299" data-name="Path 11299" d="M819.948,1606.857l2.713,20.274a3.965,3.965,0,0,1-4.016,4.636h-2.136l.633,4.729.84,6.276c.066.489-.515.711-.88.336l-13.268-11.342H789.983a5.469,5.469,0,0,1-5.256-4.636l-2.713-20.274a3.965,3.965,0,0,1,4.016-4.636h28.661A5.47,5.47,0,0,1,819.948,1606.857Z" transform="translate(-781.972 -1602.221)" fill="#1067db"/>
        <path id="Path_11300" data-name="Path 11300" d="M799.646,1621.056h23.475a.905.905,0,0,0,.917-1.058l-.143-1.066a1.248,1.248,0,0,0-1.2-1.059H799.22a.905.905,0,0,0-.917,1.058l.143,1.067A1.248,1.248,0,0,0,799.646,1621.056Z" transform="translate(-791.727 -1611.575)" fill="#fff"/>
        <path id="Path_11301" data-name="Path 11301" d="M802.333,1636.415h22.408a1.361,1.361,0,0,0,1.378-1.591h0a1.878,1.878,0,0,0-1.8-1.592H801.907a1.361,1.361,0,0,0-1.379,1.592h0A1.878,1.878,0,0,0,802.333,1636.415Z" transform="translate(-793.053 -1620.754)" fill="#fff"/>
        <path id="Path_11302" data-name="Path 11302" d="M807.155,1651.775H820.4a1.361,1.361,0,0,0,1.378-1.591h0a1.877,1.877,0,0,0-1.8-1.591H806.729a1.361,1.361,0,0,0-1.378,1.591h0A1.877,1.877,0,0,0,807.155,1651.775Z" transform="translate(-795.935 -1629.934)" fill="#fff"/>
      </g>
    </g>
  </g>
</svg>
