<svg xmlns="http://www.w3.org/2000/svg" width="190.528" height="40" viewBox="0 0 190.528 40">
  <g id="Logo" transform="translate(-375 -75)">
    <path id="Path_9733" data-name="Path 9733" d="M3.04-28.272h8.32q5.536,0,8.592,2.96t3.056,8.3q0,5.344-3.056,8.32T11.36-5.712H3.04ZM11.1-9.072q7.776,0,7.776-7.936,0-7.9-7.776-7.9H7.168v15.84Zm16.064,3.36v-22.56h15.1v3.264H31.2V-18.8H41.632v3.232H31.2v6.592H42.272v3.264ZM64.8-28.272h3.232v22.56H64.384V-20.624L58.432-9.36H55.68L49.7-20.464l.032,14.752H46.08v-22.56h3.264L57.088-13.52Zm26.912,0h3.232v22.56H91.3V-20.624L85.344-9.36H82.592l-5.984-11.1L76.64-5.712H72.992v-22.56h3.264L84-13.52ZM109.888-5.424a11.145,11.145,0,0,1-5.712-1.408,9.418,9.418,0,0,1-3.728-4.032,13.577,13.577,0,0,1-1.312-6.144,13.616,13.616,0,0,1,1.3-6.128,9.31,9.31,0,0,1,3.728-4.016,11.233,11.233,0,0,1,5.728-1.408,11.145,11.145,0,0,1,5.712,1.408,9.338,9.338,0,0,1,3.712,4.016,13.616,13.616,0,0,1,1.3,6.128,13.577,13.577,0,0,1-1.312,6.144,9.418,9.418,0,0,1-3.728,4.032A11.08,11.08,0,0,1,109.888-5.424Zm0-3.3a5.9,5.9,0,0,0,4.848-2.144,9.517,9.517,0,0,0,1.744-6.144,9.448,9.448,0,0,0-1.744-6.128,5.922,5.922,0,0,0-4.848-2.128,5.958,5.958,0,0,0-4.88,2.128,9.448,9.448,0,0,0-1.744,6.128,9.517,9.517,0,0,0,1.744,6.144A5.939,5.939,0,0,0,109.888-8.72Zm24.928,3.3A11.145,11.145,0,0,1,129.1-6.832a9.418,9.418,0,0,1-3.728-4.032,13.577,13.577,0,0,1-1.312-6.144,13.616,13.616,0,0,1,1.3-6.128,9.31,9.31,0,0,1,3.728-4.016,11.233,11.233,0,0,1,5.728-1.408,11.145,11.145,0,0,1,5.712,1.408,9.338,9.338,0,0,1,3.712,4.016,13.616,13.616,0,0,1,1.3,6.128,13.577,13.577,0,0,1-1.312,6.144A9.418,9.418,0,0,1,140.5-6.832,11.08,11.08,0,0,1,134.816-5.424Zm0-3.3a5.9,5.9,0,0,0,4.848-2.144,9.517,9.517,0,0,0,1.744-6.144,9.448,9.448,0,0,0-1.744-6.128,5.922,5.922,0,0,0-4.848-2.128,5.958,5.958,0,0,0-4.88,2.128,9.448,9.448,0,0,0-1.744,6.128,9.517,9.517,0,0,0,1.744,6.144A5.939,5.939,0,0,0,134.816-8.72Z" transform="translate(419.992 112.36)" fill="#fc7e1a"/>
    <g id="Group_1487" data-name="Group 1487" transform="translate(375 75)">
      <path id="Path_9730" data-name="Path 9730" d="M57.085,67.833V86.384l.008.012L70.181,99.52a18.484,18.484,0,0,0,5.45-13.08l0-.056A18.55,18.55,0,0,0,57.085,67.833Z" transform="translate(-35.636 -67.833)" fill="#3457b4"/>
      <path id="Path_9731" data-name="Path 9731" d="M57.163,73.248a17.977,17.977,0,0,0-5.45,12.877H69.964l-.036-18.291A17.717,17.717,0,0,0,57.163,73.248Z" transform="translate(-51.713 -67.83)" fill="#fc7318"/>
      <path id="Path_9732" data-name="Path 9732" d="M70.272,73.24h-.008L51.713,73.2v.036A18.549,18.549,0,0,0,83.364,86.364Z" transform="translate(-51.713 -51.783)" fill="#6c98e3"/>
    </g>
  </g>
</svg>
