<svg xmlns="http://www.w3.org/2000/svg" xmlns:xlink="http://www.w3.org/1999/xlink" width="371" height="240.347" viewBox="0 0 371 240.347">
  <defs>
    <linearGradient id="linear-gradient" y1="0.5" x2="1" y2="0.5" gradientUnits="objectBoundingBox">
      <stop offset="0.004" stop-color="#e3edfe"/>
      <stop offset="0.269" stop-color="#f1f6fe"/>
      <stop offset="0.603" stop-color="#fbfcfe"/>
      <stop offset="1" stop-color="#fff"/>
    </linearGradient>
  </defs>
  <g id="Illustration" transform="translate(-1406.835 -294.621)">
    <g id="Group_1840" data-name="Group 1840" transform="translate(1407.835 294.621)">
      <path id="Path_11303" data-name="Path 11303" d="M1786.32,399.818a106.954,106.954,0,0,0-22.69-65.856c-8.365-10.582-20.084-19.967-33.386-19.628-11.049.282-20.773,7.145-31.3,10.6a52.557,52.557,0,0,1-40.1-3.238c-10.1-5.221-18.352-13.626-28.371-19.012-15.414-8.285-33.652-8.751-51.028-7.593-12.991.866-26.183,2.606-37.979,8.237s-22.139,15.7-25.494,28.567c-2.773,10.633-.608,21.987-2.327,32.85a45.994,45.994,0,0,1-18.936,30.3c-12.829,8.859-29.555,10.462-42.016,19.856-15.857,11.955-21.294,35.032-15.931,54.418,4.45,16.082,14.942,28.439,27.3,38.848,4.633,3.9,8.533,9.593,14.081,12.028,7.618,3.344,16.34,2.457,23.775,6.7,3.472,1.982,6.166,5.8,9.826,6.945,3.7,1.158,8.362-.516,12.154-.5l50.393.2,119.917.466h.014c7.944.031,18.222,1.642,25.609-.444-2.117.6,2.1-17.472,2.784-19.221a67.162,67.162,0,0,1,12.469-19.455c8.078-9.168,17.621-16.9,25.617-26.145A106.738,106.738,0,0,0,1786.3,401.9Q1786.319,400.857,1786.32,399.818Z" transform="translate(-1424.2 -294.621)" fill="#dbe8fa"/>
      <path id="Path_11304" data-name="Path 11304" d="M1607.082,439.007l6.44-.005a2.959,2.959,0,0,0,2.788-2.362l1.488-8.213a1.914,1.914,0,0,0-1.934-2.358l-5.04,0a1.581,1.581,0,0,1-1.606-1.319q-.137-.707-.325-1.392a2.223,2.223,0,0,1,.776-2.241l4.212-3.566a2.447,2.447,0,0,0,.606-3.338l-4.754-5.805a2.352,2.352,0,0,0-3.338,0l-4.244,3.592a2.128,2.128,0,0,1-2.226.412c-.472-.219-.985-.441-1.428-.627a1.579,1.579,0,0,1-.9-1.813l.926-5.091a1.914,1.914,0,0,0-1.93-2.361h-8.213a2.96,2.96,0,0,0-2.79,2.361l-.917,5.04a2.518,2.518,0,0,1-1.655,1.843q-.791.279-1.57.609a1.831,1.831,0,0,1-2.175-.362l-2.929-3.556a2.356,2.356,0,0,0-3.34.01l-6.85,5.824a2.444,2.444,0,0,0-.6,3.338l2.951,3.582a1.853,1.853,0,0,1,.026,2.149c-.311.512-.632,1.066-.9,1.543a2.425,2.425,0,0,1-2.035,1.238l-5.095.013a2.961,2.961,0,0,0-2.785,2.366l-1.474,8.213a1.914,1.914,0,0,0,1.938,2.355l5.044-.013a1.583,1.583,0,0,1,1.608,1.316q.138.705.328,1.39a2.224,2.224,0,0,1-.772,2.241l-4.208,3.572a2.446,2.446,0,0,0-.6,3.338l4.765,5.8a2.354,2.354,0,0,0,3.339-.007l4.24-3.6a2.126,2.126,0,0,1,2.225-.415c.472.218.986.438,1.429.624a1.579,1.579,0,0,1,.907,1.811l-.918,5.092a1.914,1.914,0,0,0,1.936,2.356l8.215-.013a2.959,2.959,0,0,0,2.786-2.364l.909-5.04a2.518,2.518,0,0,1,1.654-1.846q.754-.267,1.5-.58a1.83,1.83,0,0,1,2.173.367l2.922,3.56a2.353,2.353,0,0,0,3.339,0l6.858-5.815a2.447,2.447,0,0,0,.6-3.338l-2.943-3.587a1.854,1.854,0,0,1-.023-2.15C1606.235,440.556,1607.04,439.094,1607.082,439.007Zm-31.13-8.546c2.687-7.26,10.953-11.36,17.242-8.755,4.777,1.979,6.895,7.537,4.892,12.946-2.687,7.26-10.954,11.36-17.242,8.756C1576.067,441.43,1573.95,435.871,1575.953,430.461Z" transform="translate(-1497.831 -358.757)" fill="#1067db"/>
      <path id="Path_11305" data-name="Path 11305" d="M1591.846,351.5l3.241,0a1.49,1.49,0,0,0,1.4-1.189l.749-4.133a.963.963,0,0,0-.973-1.186l-2.536,0a.8.8,0,0,1-.808-.664q-.069-.355-.164-.7a1.119,1.119,0,0,1,.39-1.128l2.12-1.795a1.231,1.231,0,0,0,.305-1.68l-2.392-2.921a1.184,1.184,0,0,0-1.68,0l-2.135,1.808a1.071,1.071,0,0,1-1.12.207c-.237-.111-.5-.222-.719-.315a.8.8,0,0,1-.455-.913l.466-2.561a.963.963,0,0,0-.972-1.188h-4.133a1.489,1.489,0,0,0-1.4,1.188l-.462,2.536a1.267,1.267,0,0,1-.833.927q-.4.141-.79.307a.922.922,0,0,1-1.095-.182l-1.474-1.79a1.186,1.186,0,0,0-1.681,0l-3.447,2.931a1.23,1.23,0,0,0-.3,1.68l1.485,1.8a.933.933,0,0,1,.013,1.081c-.156.258-.318.536-.455.777a1.221,1.221,0,0,1-1.024.623l-2.564.006a1.49,1.49,0,0,0-1.4,1.191l-.742,4.133a.963.963,0,0,0,.975,1.185l2.538-.006a.8.8,0,0,1,.809.662q.069.355.165.7a1.119,1.119,0,0,1-.389,1.128l-2.118,1.8a1.231,1.231,0,0,0-.3,1.68l2.4,2.916a1.185,1.185,0,0,0,1.681,0l2.134-1.812a1.07,1.07,0,0,1,1.12-.209c.238.109.5.22.719.314a.8.8,0,0,1,.456.912l-.462,2.562a.964.964,0,0,0,.974,1.186l4.134-.007a1.489,1.489,0,0,0,1.4-1.19l.457-2.536a1.269,1.269,0,0,1,.832-.929q.379-.134.753-.292a.922.922,0,0,1,1.094.185l1.47,1.792a1.184,1.184,0,0,0,1.68,0l3.451-2.926a1.231,1.231,0,0,0,.3-1.68l-1.481-1.8a.934.934,0,0,1-.012-1.082C1591.42,352.283,1591.825,351.547,1591.846,351.5Zm-15.665-4.3c1.352-3.654,5.512-5.717,8.676-4.406a4.959,4.959,0,0,1,2.462,6.515c-1.352,3.653-5.512,5.717-8.677,4.406A4.96,4.96,0,0,1,1576.181,347.2Z" transform="translate(-1503.94 -318.036)" fill="#002daa"/>
      <path id="Path_11306" data-name="Path 11306" d="M1605.168,643.949c-5.487-6.451-6.834-15.449-6.806-23.919.014-4.338.326-8.718-.47-12.982s-2.89-8.517-6.6-10.77c-4.154-2.523-9.463-2.077-14.149-.79s-9.209,3.335-14.047,3.8" transform="translate(-1502.027 -473.064)" fill="none" stroke="#002daa" stroke-linecap="round" stroke-miterlimit="10" stroke-width="2" stroke-dasharray="8"/>
      <g id="Group_1806" data-name="Group 1806" transform="translate(20.336 118.952)">
        <path id="Path_11307" data-name="Path 11307" d="M1488.791,589.5l-29.1,25.382,43.062-9.4-5.89-7.582-2.546.983-.117-3.866Z" transform="translate(-1459.688 -589.502)" fill="#1067db"/>
        <path id="Path_11308" data-name="Path 11308" d="M1531.872,603.559l-10.2,8.013,10.319-4.147Z" transform="translate(-1497.362 -598.046)" fill="#002daa"/>
      </g>
      <g id="Group_1807" data-name="Group 1807" transform="translate(243.305 33.475)">
        <path id="Path_11309" data-name="Path 11309" d="M2026.484,571.476q.86-.519,1.658-1.117" transform="translate(-2026.484 -495.694)" fill="none" stroke="#002daa" stroke-linecap="round" stroke-miterlimit="10" stroke-width="2"/>
        <path id="Path_11310" data-name="Path 11310" d="M2031.572,453.579a30.006,30.006,0,0,0,6.837-13.984c1.508-7.132,1.018-14.518.442-21.785-.706-8.917-1.6-18.064-5.583-26.072-.947-1.9-3.07-4-4.843-2.828-1.048.693-1.2,2.142-1.247,3.4-.087,2.317-.143,4.758.946,6.806s3.749,3.453,5.795,2.362c1.968-1.049,2.357-3.625,2.909-5.787a19.48,19.48,0,0,1,11.455-12.92" transform="translate(-2026.88 -381.673)" fill="none" stroke="#002daa" stroke-linecap="round" stroke-miterlimit="10" stroke-width="2" stroke-dasharray="8.212 8.212"/>
        <path id="Path_11311" data-name="Path 11311" d="M2086.01,380.406a17.56,17.56,0,0,1,1.953-.429" transform="translate(-2062.665 -379.977)" fill="none" stroke="#002daa" stroke-linecap="round" stroke-miterlimit="10" stroke-width="2"/>
      </g>
      <g id="Group_1808" data-name="Group 1808" transform="translate(270.21 20.661)">
        <path id="Path_11312" data-name="Path 11312" d="M2094.365,368.722l45.3-12.664-35.511-8.755-3.5,8.936,1.628,2.786-2.937.59Z" transform="translate(-2094.365 -347.303)" fill="#ff5722"/>
        <path id="Path_11313" data-name="Path 11313" d="M2112.023,372.875l12.547-2.52-14.175-.266Z" transform="translate(-2104.109 -361.153)" fill="#002daa"/>
      </g>
      <g id="Group_1809" data-name="Group 1809" transform="translate(47.594 157.463)">
        <path id="Path_11314" data-name="Path 11314" d="M1601.619,719.943c-2.417-4.513-2.218-10.1-.392-14.885s5.125-8.863,8.729-12.5c1.614,3.61,5.693,5.256,9.062,7.328a20.45,20.45,0,0,1,8.756,10.066,14.22,14.22,0,0,1,.576,7.7c-.54,2.589-2.134,4.4-3.475,6.6-.692,1.137-1.082,2.5-2.07,3.388-1.436,1.3-3.66,1.18-5.508.607a47.252,47.252,0,0,0-4.565-1.529,25.544,25.544,0,0,1-4.379-.838A13.029,13.029,0,0,1,1601.619,719.943Z" transform="translate(-1572.128 -687.996)" fill="#fff"/>
        <path id="Path_11315" data-name="Path 11315" d="M1549.762,709.467c-3.888-3.33-5.729-8.612-5.76-13.731s1.564-10.118,3.605-14.812c2.814,2.78,7.212,2.836,11.1,3.546a20.451,20.451,0,0,1,11.809,6.208,14.221,14.221,0,0,1,3.327,6.966c.434,2.609-.4,4.871-.847,7.41-.232,1.31-.1,2.718-.7,3.908-.868,1.728-2.984,2.426-4.913,2.562a47.252,47.252,0,0,0-4.808.229,25.469,25.469,0,0,1-4.385.806A13.029,13.029,0,0,1,1549.762,709.467Z" transform="translate(-1538.193 -680.924)" fill="#70a4e9"/>
        <path id="Path_11316" data-name="Path 11316" d="M1542.055,773.686c-2.206-3.4-3.579-7.271-5.466-10.861a42.322,42.322,0,0,0-7.4-10.092c7.029,1.207,13.507-4.113,20.589-4.959a18.692,18.692,0,0,1,11.91,2.851,18.3,18.3,0,0,1,8.255,10.311c.06.2.118.4.176.594q.58,1.983,1.161,3.966a2.4,2.4,0,0,1-.005,1.973,2.843,2.843,0,0,1-.663.619c-1.715,1.349-2.676,3.369-4.06,5.011a30.889,30.889,0,0,1-4.458,4.049c-2.964,2.333-6.682,4.11-10.542,3.541C1547.542,780.1,1544.261,777.091,1542.055,773.686Z" transform="translate(-1529.192 -721.487)" fill="#1067db"/>
        <path id="Path_11317" data-name="Path 11317" d="M1627.294,713.893c1.438,12.659,8.743,24.073,14.96,34.9,6.965,12.13,14.818,23.873,24.7,33.843" transform="translate(-1588.82 -700.963)" fill="none" stroke="#002daa" stroke-miterlimit="10" stroke-width="2"/>
        <path id="Path_11318" data-name="Path 11318" d="M1577.354,708.833c9.177,10.982,16.9,23.393,27.242,33.349q17.965,17.3,34.769,35.745" transform="translate(-1558.466 -697.888)" fill="none" stroke="#002daa" stroke-miterlimit="10" stroke-width="2"/>
        <path id="Path_11319" data-name="Path 11319" d="M1563.509,775.706c12.046.981,24.229,5.284,33.38,13.21,11.336,9.818,23.168,19.119,34.735,28.664" transform="translate(-1550.05 -738.534)" fill="none" stroke="#002daa" stroke-miterlimit="10" stroke-width="2"/>
        <path id="Path_11320" data-name="Path 11320" d="M1648.12,828.52c-1.408.24-2.718-.663-4-1.294a22.746,22.746,0,0,0-7.505-1.752c-2.057-.239-4.394-.4-5.938.986a2.2,2.2,0,0,0-.742,1.186c-.212,1.114.8,2.074,1.793,2.622a14.557,14.557,0,0,0,8.895,1.369,43.371,43.371,0,0,0,8.8-2.434Z" transform="translate(-1590.408 -768.688)" fill="#002daa"/>
        <path id="Path_11321" data-name="Path 11321" d="M1641.7,805.671c-1,.171-1.939-.473-2.853-.923a16.224,16.224,0,0,0-5.354-1.25c-1.468-.17-3.135-.282-4.236.7a1.573,1.573,0,0,0-.53.846c-.151.8.571,1.48,1.279,1.871a10.388,10.388,0,0,0,6.346.977,30.971,30.971,0,0,0,6.282-1.737Z" transform="translate(-1589.677 -755.358)" fill="#002daa"/>
        <path id="Path_11322" data-name="Path 11322" d="M1682.266,791.175a4.816,4.816,0,0,0-4.943,3.013,9.657,9.657,0,0,0-.183,6.131c.493,2.023,1.3,3.963,1.726,6l2.342,1.309c-.2-1.5.7-2.9,1.556-4.145,1.393-2.027,2.821-4.174,3.065-6.621S1684.685,791.616,1682.266,791.175Z" transform="translate(-1618.869 -747.901)" fill="#002daa"/>
        <path id="Path_11323" data-name="Path 11323" d="M1663.826,777.349a2.99,2.99,0,0,0-3.068,1.87,6,6,0,0,0-.113,3.805c.306,1.255.805,2.459,1.071,3.724l1.453.812a3.886,3.886,0,0,1,.966-2.573,9.181,9.181,0,0,0,1.9-4.109C1666.189,779.359,1665.327,777.623,1663.826,777.349Z" transform="translate(-1608.937 -739.511)" fill="#002daa"/>
      </g>
      <g id="Group_1811" data-name="Group 1811" transform="translate(30.332 40.904)">
        <path id="Path_11324" data-name="Path 11324" d="M1506.933,420.375l-19.316.181a2.453,2.453,0,0,1-2.413-2.75l3.388-20a1.871,1.871,0,0,1,1.874-1.569l19.343-.206h0a2.453,2.453,0,0,1,2.393,2.75l-3.392,20.023A1.871,1.871,0,0,1,1506.933,420.375Z" transform="translate(-1485.175 -396.034)" fill="#ff5722"/>
        <g id="Group_1810" data-name="Group 1810" transform="translate(7.259 4.183)">
          <path id="Path_11325" data-name="Path 11325" d="M1507.544,422.857l.285-1.433a7.068,7.068,0,0,1-4.144-2.257l2.267-2.219a6.068,6.068,0,0,0,2.428,1.708l.582-2.925a5.522,5.522,0,0,1-2.74-1.423,2.879,2.879,0,0,1-.451-2.572,4.677,4.677,0,0,1,1.65-2.768,5.906,5.906,0,0,1,3.145-1.306l.191-.962h2.081l-.2,1a7.3,7.3,0,0,1,3.583,1.629l-2.071,2.317a5.873,5.873,0,0,0-2.062-1.178l-.562,2.826a5.839,5.839,0,0,1,2.839,1.472,2.883,2.883,0,0,1,.491,2.611,4.678,4.678,0,0,1-1.683,2.788,6.136,6.136,0,0,1-3.275,1.315l-.273,1.375Zm2.48-12.466a1.411,1.411,0,0,0-1.059,1.08,1.035,1.035,0,0,0,.606,1.2Zm1.661,7.146a.959.959,0,0,0-.079-.687,1.469,1.469,0,0,0-.684-.51l-.48,2.415A1.582,1.582,0,0,0,1511.685,417.536Z" transform="translate(-1503.685 -406.7)" fill="#fff"/>
        </g>
      </g>
      <g id="Group_1812" data-name="Group 1812" transform="translate(43.408 109.145)">
        <path id="Path_11326" data-name="Path 11326" d="M1886.095,558.394l-157.024.877a5.1,5.1,0,0,0-4.84,4.161l-19.4,118.8h166.035l19.4-118.715a3.56,3.56,0,0,0-1.678-3.625Z" transform="translate(-1631.759 -558.13)" fill="url(#linear-gradient)"/>
        <path id="Path_11327" data-name="Path 11327" d="M1886.095,558.394l-157.024.877a5.1,5.1,0,0,0-4.84,4.161l-19.4,118.8h166.035l19.4-118.715a3.56,3.56,0,0,0-1.678-3.625Z" transform="translate(-1631.759 -558.13)" fill="none" stroke="#002daa" stroke-miterlimit="10" stroke-width="2"/>
        <path id="Path_11328" data-name="Path 11328" d="M1865.418,680.683H1699.383l19.4-118.8a5.094,5.094,0,0,1,4.84-4.16h157.714a3.444,3.444,0,0,1,3.481,4.16Z" transform="translate(-1628.451 -557.721)" fill="#1067db"/>
        <path id="Path_11329" data-name="Path 11329" d="M1699.383,680.683l19.4-118.8a5.094,5.094,0,0,1,4.84-4.16h157.714a3.444,3.444,0,0,1,3.481,4.16l-17.85,109.287" transform="translate(-1628.451 -557.721)" fill="none" stroke="#002daa" stroke-linecap="round" stroke-miterlimit="10" stroke-width="2"/>
        <path id="Path_11330" data-name="Path 11330" d="M1719.3,684.375l17.891-109.534H1889.8L1871.9,684.375Z" transform="translate(-1640.556 -568.127)" fill="#cfe1f8"/>
        <path id="Path_11331" data-name="Path 11331" d="M1752.356,868.938H1525.22a6.7,6.7,0,0,1-6.7-6.7h0a6.7,6.7,0,0,1,6.7-6.7h227.136a6.7,6.7,0,0,1,6.7,6.7h0A6.7,6.7,0,0,1,1752.356,868.938Z" transform="translate(-1518.518 -738.736)" fill="#fff"/>
        <path id="Path_11332" data-name="Path 11332" d="M1752.356,870.984H1525.22a6.687,6.687,0,0,1-6.256-4.352,6.655,6.655,0,0,0,6.256,9.052h227.136a6.656,6.656,0,0,0,6.256-9.052A6.687,6.687,0,0,1,1752.356,870.984Z" transform="translate(-1518.518 -745.482)" fill="#eef4fc"/>
        <path id="Path_11333" data-name="Path 11333" d="M1665.384,859.886h-15.122a7.7,7.7,0,0,1-6.933-4.352h28.988A7.7,7.7,0,0,1,1665.384,859.886Z" transform="translate(-1594.38 -738.736)" fill="#cfe1f8"/>
        <path id="Path_11334" data-name="Path 11334" d="M1752.356,868.938H1525.22a6.7,6.7,0,0,1-6.7-6.7h0a6.7,6.7,0,0,1,6.7-6.7h227.136a6.7,6.7,0,0,1,6.7,6.7h0A6.7,6.7,0,0,1,1752.356,868.938Z" transform="translate(-1518.518 -738.736)" fill="none" stroke="#002daa" stroke-miterlimit="10" stroke-width="2"/>
        <path id="Path_11335" data-name="Path 11335" d="M1920.874,868.938h-118.4a6.7,6.7,0,0,1-6.7-6.7h0a6.7,6.7,0,0,1,6.7-6.7h118.4a6.7,6.7,0,0,1,6.7,6.7h0A6.7,6.7,0,0,1,1920.874,868.938Z" transform="translate(-1687.036 -738.736)" fill="#fff"/>
        <path id="Path_11336" data-name="Path 11336" d="M1920.874,868.938h-118.4a6.7,6.7,0,0,1-6.7-6.7h0a6.7,6.7,0,0,1,6.7-6.7h118.4a6.7,6.7,0,0,1,6.7,6.7h0A6.7,6.7,0,0,1,1920.874,868.938Z" transform="translate(-1687.036 -738.736)" fill="none" stroke="#002daa" stroke-miterlimit="10" stroke-width="2"/>
        <rect id="Rectangle_616" data-name="Rectangle 616" width="10.423" height="3.029" transform="translate(218.234 121.986)" fill="#002daa"/>
        <rect id="Rectangle_617" data-name="Rectangle 617" width="10.423" height="3.029" transform="translate(205.792 121.986)" fill="#002daa"/>
      </g>
      <line id="Line_14" data-name="Line 14" x2="365.273" transform="translate(0 239.347)" fill="none" stroke="#002daa" stroke-linecap="round" stroke-miterlimit="10" stroke-width="2"/>
      <path id="Path_11337" data-name="Path 11337" d="M1729.975,556.721a5.05,5.05,0,0,0-2.434.656l-17.714,97.567H1776.8a110.721,110.721,0,0,0,19.018-47.047l7.89-51.176Z" transform="translate(-1590.975 -447.968)" fill="#1067db" opacity="0.5"/>
      <g id="Group_1813" data-name="Group 1813" transform="translate(78.899 44.064)">
        <path id="Path_11338" data-name="Path 11338" d="M1608.175,554.781H1711.09a110.725,110.725,0,0,0,19.018-47.047l16.755-108.683-102.911-.024-16.758,108.707a110.726,110.726,0,0,1-19.019,47.047Z" transform="translate(-1608.175 -399.027)" fill="#002daa"/>
      </g>
      <g id="Group_1815" data-name="Group 1815" transform="translate(208.423 123.741)">
        <path id="Path_11339" data-name="Path 11339" d="M1982.119,668.68l4.656-5.355-18.625-33.758c11.482-2.208,15.634,4.365,16.032,5.049a.055.055,0,0,0,.087.008l6-5.29v-4.889l-17.229-21.187h-6.722l2.063-8.253-.093-.066-15.03,9.723h0a65.708,65.708,0,0,0-12.579,38.664v19.534l6.053,7.217h34.048Z" transform="translate(-1939.499 -594.939)" fill="#fff"/>
        <g id="Group_1814" data-name="Group 1814" transform="translate(1.178)">
          <path id="Path_11340" data-name="Path 11340" d="M1948.942,643.326a65.711,65.711,0,0,1,12.579-38.664l5.3-3.43,1.556-6.227-.093-.066-15.03,9.723a65.708,65.708,0,0,0-12.579,38.664v19.534l6.053,7.217h8.264l-6.053-7.217Z" transform="translate(-1940.677 -594.939)" fill="#e1ebfd"/>
        </g>
        <rect id="Rectangle_618" data-name="Rectangle 618" width="33.921" height="3.405" transform="translate(7.232 75.138)" fill="#b3cdfa"/>
        <path id="Path_11341" data-name="Path 11341" d="M1965.41,789.931h-9.3v-3.4h8.265C1965.091,787.056,1966,789.269,1965.41,789.931Z" transform="translate(-1948.88 -711.389)" fill="#d1e1fc"/>
        <path id="Path_11342" data-name="Path 11342" d="M1986.057,812.771h-48.384l7.232-17.563h33.921Z" transform="translate(-1937.673 -716.666)" fill="#fff"/>
        <path id="Path_11343" data-name="Path 11343" d="M1944.9,795.208l-7.232,17.563h9.3l7.232-17.563Z" transform="translate(-1937.673 -716.666)" fill="#e1ebfd"/>
        <rect id="Rectangle_619" data-name="Rectangle 619" width="48.384" height="5.546" transform="translate(0 96.106)" fill="#b3cdfa"/>
        <rect id="Rectangle_620" data-name="Rectangle 620" width="8.172" height="5.546" transform="translate(1.178 96.106)" fill="#d1e1fc"/>
        <line id="Line_15" data-name="Line 15" x2="7.395" transform="translate(1.342 59.455)" fill="none" stroke="#002daa" stroke-miterlimit="10" stroke-width="2"/>
        <line id="Line_16" data-name="Line 16" x2="7.395" transform="translate(1.342 53.031)" fill="none" stroke="#002daa" stroke-miterlimit="10" stroke-width="2"/>
        <line id="Line_17" data-name="Line 17" x2="7.395" transform="translate(1.342 46.606)" fill="none" stroke="#002daa" stroke-miterlimit="10" stroke-width="2"/>
        <line id="Line_18" data-name="Line 18" x2="7.006" transform="translate(1.731 40.181)" fill="none" stroke="#002daa" stroke-miterlimit="10" stroke-width="2"/>
        <line id="Line_19" data-name="Line 19" x2="6.662" y2="0.535" transform="translate(2.699 34.216)" fill="none" stroke="#002daa" stroke-miterlimit="10" stroke-width="2"/>
        <line id="Line_20" data-name="Line 20" x2="5.718" y2="1.273" transform="translate(4.402 28.272)" fill="none" stroke="#002daa" stroke-miterlimit="10" stroke-width="2"/>
        <line id="Line_21" data-name="Line 21" x2="5.629" y2="1.723" transform="translate(6.03 23.103)" fill="none" stroke="#002daa" stroke-miterlimit="10" stroke-width="2"/>
        <line id="Line_22" data-name="Line 22" x2="4.618" y2="2.145" transform="translate(9.35 17.188)" fill="none" stroke="#002daa" stroke-miterlimit="10" stroke-width="2"/>
        <path id="Path_11344" data-name="Path 11344" d="M1982.119,668.68l4.656-5.355-18.625-33.758c11.482-2.208,15.634,4.365,16.032,5.049a.055.055,0,0,0,.087.008l6-5.29v-4.889l-17.229-21.187h-6.722l2.063-8.253-.093-.066-15.03,9.723h0a65.708,65.708,0,0,0-12.579,38.664v19.534l6.053,7.217h34.048Z" transform="translate(-1939.499 -594.939)" fill="none" stroke="#002daa" stroke-miterlimit="10" stroke-width="2"/>
        <path id="Path_11345" data-name="Path 11345" d="M1937.673,812.771l7.232-17.563h33.921l7.231,17.563" transform="translate(-1937.673 -716.666)" fill="none" stroke="#002daa" stroke-miterlimit="10" stroke-width="2"/>
        <rect id="Rectangle_621" data-name="Rectangle 621" width="33.921" height="3.405" transform="translate(7.232 75.138)" fill="none" stroke="#002daa" stroke-miterlimit="10" stroke-width="2"/>
        <rect id="Rectangle_622" data-name="Rectangle 622" width="48.384" height="5.546" transform="translate(0 96.106)" fill="none" stroke="#002daa" stroke-miterlimit="10" stroke-width="2"/>
      </g>
      <g id="Group_1828" data-name="Group 1828" transform="translate(96.984 57.255)">
        <g id="Group_1817" data-name="Group 1817" transform="translate(22.456)">
          <path id="Path_11346" data-name="Path 11346" d="M1719.781,432.418a8.808,8.808,0,0,0-8.092,6.527c-.864,3.6,1.357,6.527,4.962,6.527a8.808,8.808,0,0,0,8.091-6.527C1725.607,435.34,1723.385,432.418,1719.781,432.418Z" transform="translate(-1711.502 -432.418)" fill="#fff"/>
          <path id="Path_11347" data-name="Path 11347" d="M1759.346,438.83l.319-2.121a.574.574,0,0,1,.567-.484h40.733a.574.574,0,0,1,.567.664l-.319,2.121a.574.574,0,0,1-.567.484h-40.733A.574.574,0,0,1,1759.346,438.83Z" transform="translate(-1740.578 -434.731)" fill="#fff"/>
          <path id="Path_11348" data-name="Path 11348" d="M1755.912,460.078l.319-2.121a.574.574,0,0,1,.567-.484h59.25a.574.574,0,0,1,.567.664l-.319,2.121a.574.574,0,0,1-.567.484h-59.25A.574.574,0,0,1,1755.912,460.078Z" transform="translate(-1738.491 -447.646)" fill="#fff"/>
          <g id="Group_1816" data-name="Group 1816" transform="translate(2.983 3.57)">
            <path id="Path_11349" data-name="Path 11349" d="M1721.035,447.435l-1.927-2.534,1.795-1.448.826,1.086,3.739-3.017,1.1,1.448Z" transform="translate(-1719.109 -441.522)" fill="#002daa"/>
          </g>
        </g>
        <g id="Group_1819" data-name="Group 1819" transform="translate(18.932 24.139)">
          <path id="Path_11350" data-name="Path 11350" d="M1710.8,493.968a8.808,8.808,0,0,0-8.092,6.527c-.864,3.6,1.357,6.527,4.962,6.527a8.808,8.808,0,0,0,8.092-6.527C1716.622,496.89,1714.4,493.968,1710.8,493.968Z" transform="translate(-1702.517 -493.968)" fill="#fff"/>
          <path id="Path_11351" data-name="Path 11351" d="M1750.361,500.38l.319-2.121a.573.573,0,0,1,.567-.484h40.733a.574.574,0,0,1,.567.664l-.319,2.121a.574.574,0,0,1-.567.484h-40.733A.574.574,0,0,1,1750.361,500.38Z" transform="translate(-1731.593 -496.281)" fill="#fff"/>
          <path id="Path_11352" data-name="Path 11352" d="M1746.927,521.628l.319-2.121a.574.574,0,0,1,.567-.484h59.251a.574.574,0,0,1,.567.664l-.319,2.121a.574.574,0,0,1-.567.484h-59.25A.574.574,0,0,1,1746.927,521.628Z" transform="translate(-1729.506 -509.196)" fill="#fff"/>
          <g id="Group_1818" data-name="Group 1818" transform="translate(2.983 3.57)">
            <path id="Path_11353" data-name="Path 11353" d="M1712.05,508.985l-1.927-2.534,1.795-1.448.826,1.086,3.739-3.017,1.1,1.448Z" transform="translate(-1710.123 -503.072)" fill="#002daa"/>
          </g>
        </g>
        <g id="Group_1821" data-name="Group 1821" transform="translate(15.409 48.278)">
          <path id="Path_11354" data-name="Path 11354" d="M1701.81,555.518a8.807,8.807,0,0,0-8.092,6.527c-.865,3.6,1.357,6.527,4.961,6.527a8.808,8.808,0,0,0,8.092-6.527C1707.636,558.44,1705.415,555.518,1701.81,555.518Z" transform="translate(-1693.532 -555.518)" fill="#fff"/>
          <path id="Path_11355" data-name="Path 11355" d="M1741.376,561.93l.319-2.121a.575.575,0,0,1,.567-.484h40.733a.574.574,0,0,1,.567.664l-.319,2.121a.574.574,0,0,1-.567.484h-40.733A.574.574,0,0,1,1741.376,561.93Z" transform="translate(-1722.608 -557.831)" fill="#fff"/>
          <path id="Path_11356" data-name="Path 11356" d="M1737.942,583.178l.319-2.121a.575.575,0,0,1,.567-.484h59.25a.574.574,0,0,1,.567.664l-.319,2.121a.574.574,0,0,1-.567.484h-59.251A.574.574,0,0,1,1737.942,583.178Z" transform="translate(-1720.521 -570.746)" fill="#fff"/>
          <g id="Group_1820" data-name="Group 1820" transform="translate(2.983 3.57)">
            <path id="Path_11357" data-name="Path 11357" d="M1703.065,570.535,1701.138,568l1.8-1.448.826,1.086,3.739-3.017,1.1,1.448Z" transform="translate(-1701.138 -564.622)" fill="#002daa"/>
          </g>
        </g>
        <g id="Group_1823" data-name="Group 1823" transform="translate(11.885 72.417)">
          <path id="Path_11358" data-name="Path 11358" d="M1692.825,617.068a8.807,8.807,0,0,0-8.092,6.527c-.865,3.6,1.357,6.527,4.961,6.527a8.807,8.807,0,0,0,8.092-6.527C1698.651,619.99,1696.43,617.068,1692.825,617.068Z" transform="translate(-1684.547 -617.068)" fill="#fff"/>
          <path id="Path_11359" data-name="Path 11359" d="M1732.39,623.48l.319-2.121a.574.574,0,0,1,.567-.484h40.733a.574.574,0,0,1,.567.664l-.319,2.121a.575.575,0,0,1-.567.484h-40.733A.574.574,0,0,1,1732.39,623.48Z" transform="translate(-1713.622 -619.381)" fill="#fff"/>
          <path id="Path_11360" data-name="Path 11360" d="M1728.956,644.728l.319-2.121a.574.574,0,0,1,.567-.484h59.25a.574.574,0,0,1,.567.664l-.319,2.121a.574.574,0,0,1-.567.484h-59.25A.574.574,0,0,1,1728.956,644.728Z" transform="translate(-1711.535 -632.296)" fill="#fff"/>
          <g id="Group_1822" data-name="Group 1822" transform="translate(2.983 3.57)">
            <path id="Path_11361" data-name="Path 11361" d="M1694.079,632.085l-1.927-2.534,1.795-1.448.826,1.086,3.739-3.017,1.1,1.448Z" transform="translate(-1692.153 -626.172)" fill="#002daa"/>
          </g>
        </g>
        <g id="Group_1825" data-name="Group 1825" transform="translate(8.361 96.556)">
          <path id="Path_11362" data-name="Path 11362" d="M1683.84,678.618a8.808,8.808,0,0,0-8.092,6.527c-.864,3.6,1.357,6.527,4.962,6.527a8.808,8.808,0,0,0,8.092-6.527C1689.666,681.54,1687.444,678.618,1683.84,678.618Z" transform="translate(-1675.561 -678.618)" fill="#fff"/>
          <path id="Path_11363" data-name="Path 11363" d="M1723.405,685.03l.319-2.121a.574.574,0,0,1,.567-.484h40.733a.574.574,0,0,1,.567.664l-.319,2.121a.574.574,0,0,1-.567.484h-40.733A.574.574,0,0,1,1723.405,685.03Z" transform="translate(-1704.637 -680.931)" fill="#fff"/>
          <path id="Path_11364" data-name="Path 11364" d="M1719.971,706.278l.319-2.121a.574.574,0,0,1,.567-.484h59.25a.574.574,0,0,1,.567.664l-.319,2.121a.574.574,0,0,1-.567.484h-59.25A.574.574,0,0,1,1719.971,706.278Z" transform="translate(-1702.55 -693.846)" fill="#fff"/>
          <g id="Group_1824" data-name="Group 1824" transform="translate(2.983 3.57)">
            <path id="Path_11365" data-name="Path 11365" d="M1685.094,693.635l-1.927-2.534,1.795-1.448.826,1.086,3.739-3.017,1.1,1.448Z" transform="translate(-1683.168 -687.722)" fill="#002daa"/>
          </g>
        </g>
        <g id="Group_1827" data-name="Group 1827" transform="translate(0 120.674)">
          <path id="Path_11366" data-name="Path 11366" d="M1662.521,740.115a8.807,8.807,0,0,0-8.092,6.527c-.865,3.6,1.357,6.527,4.961,6.527a8.808,8.808,0,0,0,8.092-6.527C1668.347,743.037,1666.126,740.115,1662.521,740.115Z" transform="translate(-1654.243 -740.115)" fill="#fff"/>
          <path id="Path_11367" data-name="Path 11367" d="M1702.087,746.527l.319-2.121a.575.575,0,0,1,.567-.484h40.733a.574.574,0,0,1,.567.664l-.319,2.121a.574.574,0,0,1-.567.484h-40.733A.574.574,0,0,1,1702.087,746.527Z" transform="translate(-1683.319 -742.428)" fill="#fff"/>
          <path id="Path_11368" data-name="Path 11368" d="M1698.653,767.775l.319-2.121a.574.574,0,0,1,.567-.484h59.25a.574.574,0,0,1,.567.664l-.319,2.121a.574.574,0,0,1-.567.484h-59.251A.574.574,0,0,1,1698.653,767.775Z" transform="translate(-1681.232 -755.343)" fill="#fff"/>
          <g id="Group_1826" data-name="Group 1826" transform="translate(2.983 3.57)">
            <path id="Path_11369" data-name="Path 11369" d="M1663.776,755.132l-1.927-2.534,1.8-1.448.826,1.086,3.739-3.017,1.1,1.448Z" transform="translate(-1661.849 -749.219)" fill="#002daa"/>
          </g>
        </g>
      </g>
      <g id="Group_1831" data-name="Group 1831" transform="translate(215.723 70.08)">
        <path id="Path_11370" data-name="Path 11370" d="M1955.487,487.393l2.328-15.474a4.187,4.187,0,0,1,4.135-3.534h103.907a4.187,4.187,0,0,1,4.136,4.84l-2.328,15.474a4.187,4.187,0,0,1-4.136,3.534H1959.623A4.187,4.187,0,0,1,1955.487,487.393Z" transform="translate(-1955.435 -468.385)" fill="#fff"/>
        <path id="Path_11371" data-name="Path 11371" d="M2041.009,481.8l.4-2.65a.717.717,0,0,1,.708-.6h50.871a.717.717,0,0,1,.708.829l-.4,2.649a.717.717,0,0,1-.708.605h-50.871A.717.717,0,0,1,2041.009,481.8Z" transform="translate(-2007.443 -474.56)" fill="#b3cdfa"/>
        <path id="Path_11372" data-name="Path 11372" d="M2036.72,508.334l.4-2.649a.718.718,0,0,1,.708-.605h74a.717.717,0,0,1,.708.829l-.4,2.65a.717.717,0,0,1-.708.605h-74A.717.717,0,0,1,2036.72,508.334Z" transform="translate(-2004.836 -490.689)" fill="#e1ebfd"/>
        <path id="Path_11373" data-name="Path 11373" d="M1957.814,471.919l-2.328,15.474a4.187,4.187,0,0,0,4.136,4.84h21.1q.067-.267.111-.542l3.4-22.573a6.253,6.253,0,0,0,.069-.733H1961.95A4.187,4.187,0,0,0,1957.814,471.919Z" transform="translate(-1955.434 -468.385)" fill="#ff5722"/>
        <g id="Group_1830" data-name="Group 1830" transform="translate(8.087 5.298)">
          <g id="Group_1829" data-name="Group 1829">
            <path id="Path_11374" data-name="Path 11374" d="M1988.193,489.244l-10.995,5.789a.726.726,0,0,1-1.132-.723L1978,482.731a.967.967,0,0,1,1.373-.723l9.061,5.789a.856.856,0,0,1-.242,1.447l-10.995,5.789a.726.726,0,0,1-1.132-.723L1978,482.731a.967.967,0,0,1,1.373-.723l9.061,5.789A.856.856,0,0,1,1988.193,489.244Z" transform="translate(-1976.054 -481.894)" fill="#fff"/>
          </g>
        </g>
      </g>
      <path id="Path_11375" data-name="Path 11375" d="M1688.453,483.55a6.469,6.469,0,0,0-.994-.941,6.4,6.4,0,0,0-3.968-1.317l-6.984.065-6.571,42.628,7.88-.074a7.448,7.448,0,0,0,7.277-6.221l4.821-28.887a6.411,6.411,0,0,0-1.043-4.71A6.5,6.5,0,0,0,1688.453,483.55Z" transform="translate(-1566.86 -405.802)" fill="#001755" opacity="0.5"/>
      <g id="Group_1833" data-name="Group 1833" transform="translate(71.235 68.618)">
        <path id="Path_11376" data-name="Path 11376" d="M1623.284,506.912l-27.843.261a6.45,6.45,0,0,1-6.422-7.511l4.822-28.888a7.448,7.448,0,0,1,7.276-6.221l27.843-.261a6.45,6.45,0,0,1,6.422,7.511l-4.821,28.887A7.448,7.448,0,0,1,1623.284,506.912Z" transform="translate(-1588.93 -464.292)" fill="#fff"/>
        <path id="Path_11377" data-name="Path 11377" d="M1640.978,475.913l.686-4.11a6.45,6.45,0,0,0-6.422-7.511l-27.843.261a7.448,7.448,0,0,0-7.276,6.221l-.858,5.138Z" transform="translate(-1595.212 -464.292)" fill="#002daa"/>
        <g id="Group_1832" data-name="Group 1832" transform="translate(9.03 17.754)">
          <path id="Path_11378" data-name="Path 11378" d="M1620.119,516.1a3.389,3.389,0,0,0,.857-1.643,1.605,1.605,0,0,0-.313-1.327,1.533,1.533,0,0,0-1.254-.531q-1.5,0-3.166,2.129l-2.57-1.676a11.061,11.061,0,0,1,2.844-2.606,6.673,6.673,0,0,1,3.515-.884,4.7,4.7,0,0,1,3.4,1.3,3.814,3.814,0,0,1,1,3.547,5.487,5.487,0,0,1-.991,2.346,19.4,19.4,0,0,1-2.749,2.866l-3.321,2.97h6.255l-.5,3.172h-11.172l.412-2.629,5.391-4.758A25.765,25.765,0,0,0,1620.119,516.1Z" transform="translate(-1611.954 -509.563)" fill="#002daa"/>
          <path id="Path_11379" data-name="Path 11379" d="M1659.763,510.487l-.479,3.059h-6.255l-.415,2.652a6.109,6.109,0,0,1,1.641-.205,5.161,5.161,0,0,1,3.727,1.382,4,4,0,0,1,1.07,3.728,5.96,5.96,0,0,1-2.318,3.876,7.044,7.044,0,0,1-4.466,1.529,5.881,5.881,0,0,1-5-2.38l2.263-2.583q.172.2.466.5a5.979,5.979,0,0,0,1.124.782,3.377,3.377,0,0,0,1.737.487,2.923,2.923,0,0,0,1.694-.544,2.285,2.285,0,0,0,.955-1.609,1.68,1.68,0,0,0-.5-1.643,2.772,2.772,0,0,0-1.87-.577,6.832,6.832,0,0,0-2.923.861l-1.482-.04,1.468-9.274Z" transform="translate(-1633.42 -510.125)" fill="#002daa"/>
        </g>
      </g>
      <g id="Group_1835" data-name="Group 1835" transform="translate(114.218 8.265)">
        <path id="Path_11380" data-name="Path 11380" d="M1698.04,333.969l2.238-14.876a4.025,4.025,0,0,1,3.976-3.4h99.9a4.026,4.026,0,0,1,3.976,4.653l-2.238,14.876a4.025,4.025,0,0,1-3.976,3.4h-99.9A4.026,4.026,0,0,1,1698.04,333.969Z" transform="translate(-1697.99 -315.695)" fill="#fff"/>
        <path id="Path_11381" data-name="Path 11381" d="M1780.262,328.59l.383-2.547a.689.689,0,0,1,.681-.582h48.908a.689.689,0,0,1,.68.8l-.383,2.547a.689.689,0,0,1-.68.582h-48.908A.689.689,0,0,1,1780.262,328.59Z" transform="translate(-1747.991 -321.631)" fill="#b3cdfa"/>
        <path id="Path_11382" data-name="Path 11382" d="M1776.139,354.1l.383-2.547a.689.689,0,0,1,.681-.582h71.142a.689.689,0,0,1,.681.8l-.383,2.547a.689.689,0,0,1-.681.582H1776.82A.689.689,0,0,1,1776.139,354.1Z" transform="translate(-1745.485 -337.137)" fill="#e1ebfd"/>
        <path id="Path_11383" data-name="Path 11383" d="M1700.279,319.093l-2.238,14.876a4.026,4.026,0,0,0,3.976,4.653H1722.3q.065-.257.107-.522l3.265-21.7a6.034,6.034,0,0,0,.067-.7h-21.484A4.025,4.025,0,0,0,1700.279,319.093Z" transform="translate(-1697.99 -315.695)" fill="#1067db"/>
        <g id="Group_1834" data-name="Group 1834" transform="translate(11.216 4.743)">
          <path id="Path_11384" data-name="Path 11384" d="M1727.6,339.855a.979.979,0,0,1-.165-.014,1.01,1.01,0,0,1-.834-1.161l1.648-10.045a1.01,1.01,0,1,1,1.994.327l-1.647,10.045A1.011,1.011,0,0,1,1727.6,339.855Z" transform="translate(-1726.59 -327.788)" fill="#fff"/>
        </g>
      </g>
      <g id="Group_1836" data-name="Group 1836" transform="translate(288.845 195.902)">
        <path id="Rectangle_623" data-name="Rectangle 623" d="M20.173,0h0A20.173,20.173,0,0,1,40.347,20.173V43.26a0,0,0,0,1,0,0H0a0,0,0,0,1,0,0V20.173A20.173,20.173,0,0,1,20.173,0Z" transform="translate(40.347 43.26) rotate(180)" fill="#fff"/>
        <path id="Path_11385" data-name="Path 11385" d="M2162.08,805.107c1.436-.887,2.969-2.268,2.733-3.98a4.256,4.256,0,0,0-1.563-2.424c-4.232-3.828-6.649-5.417-8.977-10.834-2.668,1.411-4.411,4.254-5.236,7.232a35.257,35.257,0,0,0-.869,9.217c-.042,6.971-1.228,20.58,9.374,19.77,1.837-.14,3.874-.692,4.8-2.339a7.131,7.131,0,0,0,.392-4.334c-.4-3.356-1.146-7.248-4.078-8.747C2158.975,806.971,2160.643,805.993,2162.08,805.107Z" transform="translate(-2145.667 -784.366)" fill="#eef4fc"/>
        <path id="Rectangle_624" data-name="Rectangle 624" d="M20.173,0h0A20.173,20.173,0,0,1,40.347,20.173V43.26a0,0,0,0,1,0,0H0a0,0,0,0,1,0,0V20.173A20.173,20.173,0,0,1,20.173,0Z" transform="translate(40.347 43.26) rotate(180)" fill="none" stroke="#002daa" stroke-miterlimit="10" stroke-width="2"/>
        <path id="Path_11386" data-name="Path 11386" d="M2227.725,792.524h-9.691v1.166h1.213a11.272,11.272,0,0,1,0,22.543h-1.213V817.4h9.691A11.272,11.272,0,0,0,2239,806.128V803.8A11.272,11.272,0,0,0,2227.725,792.524Z" transform="translate(-2188.168 -787.195)" fill="#fff"/>
        <path id="Path_11387" data-name="Path 11387" d="M2218.034,795.5h1.213a11.272,11.272,0,0,1,0,22.543h-1.213" transform="translate(-2188.168 -789.002)" fill="none" stroke="#002daa" stroke-miterlimit="10" stroke-width="2"/>
        <path id="Path_11388" data-name="Path 11388" d="M2218.034,817.4h9.691A11.272,11.272,0,0,0,2239,806.128V803.8a11.272,11.272,0,0,0-11.271-11.271h-9.691" transform="translate(-2188.168 -787.195)" fill="none" stroke="#002daa" stroke-miterlimit="10" stroke-width="2"/>
      </g>
      <path id="Path_11389" data-name="Path 11389" d="M2113.777,578.812l-30.232.211a6.019,6.019,0,0,0-5.88,5.027l-3.9,23.344a5.212,5.212,0,0,0,5.19,6.07l29.448-.211Z" transform="translate(-1811.791 -464.024)" fill="#1067db" opacity="0.5"/>
      <g id="Group_1839" data-name="Group 1839" transform="translate(257.398 108.527)">
        <path id="Path_11390" data-name="Path 11390" d="M2164.45,597.752l-97.491.211a5.212,5.212,0,0,1-5.19-6.07l3.9-23.344a6.019,6.019,0,0,1,5.88-5.027l97.492-.211a5.211,5.211,0,0,1,5.189,6.069l-3.9,23.344A6.019,6.019,0,0,1,2164.45,597.752Z" transform="translate(-2061.697 -563.311)" fill="#002daa"/>
        <g id="Group_1837" data-name="Group 1837" transform="translate(37.636 6.804)">
          <path id="Path_11391" data-name="Path 11391" d="M2186.1,585.46l-21.307.029a.726.726,0,0,1-.723-.846l.543-3.253a.839.839,0,0,1,.819-.7l21.307-.029a.726.726,0,0,1,.723.846l-.543,3.253A.839.839,0,0,1,2186.1,585.46Z" transform="translate(-2161.55 -580.661)" fill="#ff5722"/>
          <path id="Path_11392" data-name="Path 11392" d="M2218.938,604.822l-57.344.029a.726.726,0,0,1-.723-.846l.543-3.253a.839.839,0,0,1,.819-.7l57.344-.029a.726.726,0,0,1,.723.846l-.543,3.253A.839.839,0,0,1,2218.938,604.822Z" transform="translate(-2159.605 -592.429)" fill="#b3cdfa"/>
          <path id="Path_11393" data-name="Path 11393" d="M2190,624.184l-31.6.029a.726.726,0,0,1-.723-.846l.543-3.253a.839.839,0,0,1,.82-.7l31.6-.029a.727.727,0,0,1,.723.846l-.543,3.253A.839.839,0,0,1,2190,624.184Z" transform="translate(-2157.66 -604.198)" fill="#b3cdfa"/>
        </g>
        <path id="Path_11394" data-name="Path 11394" d="M2065.665,568.783l-3.9,23.344a5.212,5.212,0,0,0,5.19,6.07l27.77-.06,5.73-34.442-28.914.061A6.019,6.019,0,0,0,2065.665,568.783Z" transform="translate(-2061.697 -563.544)" fill="#002daa"/>
        <g id="Group_1838" data-name="Group 1838" transform="translate(12.609 6.804)">
          <path id="Path_11395" data-name="Path 11395" d="M2102.267,617.894l-6.3,1.114a.683.683,0,0,1-.832-.825h0a1.074,1.074,0,0,1,.845-.825l6.3-1.114a.683.683,0,0,1,.832.825h0A1.074,1.074,0,0,1,2102.267,617.894Z" transform="translate(-2094.619 -602.281)" fill="#fff"/>
          <path id="Path_11396" data-name="Path 11396" d="M2101,624.537l-6.3,1.114a.683.683,0,0,1-.832-.825h0a1.074,1.074,0,0,1,.845-.825l6.3-1.114a.683.683,0,0,1,.832.825h0A1.075,1.075,0,0,1,2101,624.537Z" transform="translate(-2093.847 -606.318)" fill="#fff"/>
          <path id="Path_11397" data-name="Path 11397" d="M2106.426,586.652a4.812,4.812,0,0,0-4.846-5.991,7.6,7.6,0,0,0-7.137,5.991,5.024,5.024,0,0,0,1.237,4.558l-.709,3.707,8.04-1.421.437-2.286A7.522,7.522,0,0,0,2106.426,586.652Z" transform="translate(-2094.142 -580.661)" fill="#fff"/>
          <path id="Path_11398" data-name="Path 11398" d="M2100.97,630.456a1.023,1.023,0,0,0,1.066,1.06,1.64,1.64,0,0,0,1.54-1.293,1.3,1.3,0,0,0,.021-.232Z" transform="translate(-2098.176 -610.645)" fill="#fff"/>
        </g>
      </g>
    </g>
  </g>
</svg>
