<svg xmlns="http://www.w3.org/2000/svg" xmlns:xlink="http://www.w3.org/1999/xlink" width="371" height="240.155" viewBox="0 0 371 240.155">
  <defs>
    <linearGradient id="linear-gradient" x1="-4.82" y1="0.5" x2="-3.82" y2="0.5" gradientUnits="objectBoundingBox">
      <stop offset="0.004" stop-color="#e3edfe"/>
      <stop offset="0.269" stop-color="#f1f6fe"/>
      <stop offset="0.603" stop-color="#fbfcfe"/>
      <stop offset="1" stop-color="#fff"/>
    </linearGradient>
  </defs>
  <g id="Illustration" transform="translate(-1408.231 -1548.251)">
    <g id="Group_1735" data-name="Group 1735" transform="translate(1408.231 1548.251)">
      <path id="Path_11047" data-name="Path 11047" d="M1683.5,1663.714a51.455,51.455,0,0,0-17.257-31.678c-13.061-11.021-30.049-14.469-46.349-14.179-28.834.512-38.569-30.751-60.761-44.919-15.524-9.911-35.573-7.257-51.106,2.635s-27.2,26.035-36.87,42.958c-4.275,7.477-8.35,15.328-14.391,21.042-5.438,5.144-12.133,8.231-18.174,12.429-17.772,12.349-29.527,35.087-30.319,58.643s9.4,47.236,26.3,61.072c13.688,11.212,33.745,19.175,49.553,25.191,17.588,6.694,37.634,1.023,55.692,1.1l114.846.493h.014c7.609.033,17.452,1.738,24.527-.469-3.037.947,4.207-19.406,4.4-20.865a37.231,37.231,0,0,0-4.551-22.754c-5.258-9.672-12.756-18.723-13.344-30.055-.835-16.115,12.458-28.473,16.751-43.87A41.7,41.7,0,0,0,1683.5,1663.714Z" transform="translate(-1408.23 -1560.179)" fill="#eef4fc"/>
      <g id="Group_1714" data-name="Group 1714" transform="translate(30.449 174.019)">
        <path id="Path_11048" data-name="Path 11048" d="M1510.767,2013.546a11.049,11.049,0,0,0-6.562-6.224,22.486,22.486,0,0,0-9.189-1.136c.974,2.2.061,4.706-.373,7.069a12.421,12.421,0,0,0,.988,8.043,8.637,8.637,0,0,0,3.242,3.387c1.388.807,2.852.822,4.391,1.112a8.42,8.42,0,0,0,2.371.441,3.482,3.482,0,0,0,2.511-2.24,28.639,28.639,0,0,1,1.164-2.682,15.511,15.511,0,0,0,1.4-2.318A7.913,7.913,0,0,0,1510.767,2013.546Z" transform="translate(-1494.391 -1991.503)" fill="#fff"/>
        <path id="Path_11049" data-name="Path 11049" d="M1525.907,1977.292a11.05,11.05,0,0,0-3.86-8.179,22.489,22.489,0,0,0-8.153-4.389c.112,2.4-1.649,4.408-2.909,6.454a12.42,12.42,0,0,0-1.994,7.854,8.639,8.639,0,0,0,1.794,4.332c1,1.256,2.36,1.8,3.689,2.627a8.428,8.428,0,0,0,2.05,1.271,3.481,3.481,0,0,0,3.153-1.177,28.782,28.782,0,0,1,2.057-2.078,15.466,15.466,0,0,0,2.145-1.652A7.914,7.914,0,0,0,1525.907,1977.292Z" transform="translate(-1503.788 -1964.724)" fill="#70a4e9"/>
        <path id="Path_11050" data-name="Path 11050" d="M1551.674,2002.932c-.641-2.379-1.83-4.569-2.684-6.88a25.7,25.7,0,0,1-1.552-7.44c-2.311,3.664-7.344,4.428-10.6,7.282a11.352,11.352,0,0,0-3.551,6.535,11.115,11.115,0,0,0,1.3,7.916q.1.16.2.32l1.319,2.135c.217.352.484.738.893.8a1.723,1.723,0,0,0,.549-.048,19.148,19.148,0,0,1,3.912.2,18.765,18.765,0,0,0,3.639-.368,8.591,8.591,0,0,0,5.881-3.322C1552.339,2008.013,1552.314,2005.311,1551.674,2002.932Z" transform="translate(-1519.399 -1980.17)" fill="#1067db"/>
        <path id="Path_11051" data-name="Path 11051" d="M1506.107,2016.716c5.132,5.791,7.318,13.726,9.681,20.932,2.648,8.072,4.76,16.388,5.249,24.9" transform="translate(-1501.967 -1998.342)" fill="none" stroke="#002daa" stroke-miterlimit="10" stroke-width="2"/>
        <path id="Path_11052" data-name="Path 11052" d="M1526.084,1989.411c1.23,8.6,3.7,17.134,3.992,25.847q.513,15.139,2.016,30.22" transform="translate(-1514.884 -1980.687)" fill="none" stroke="#002daa" stroke-miterlimit="10" stroke-width="2"/>
        <path id="Path_11053" data-name="Path 11053" d="M1549.8,2012.62c-4.451,5.838-7.457,13.086-7.6,20.438-.171,9.107-.778,18.227-1.167,27.328" transform="translate(-1524.554 -1995.693)" fill="none" stroke="#002daa" stroke-miterlimit="10" stroke-width="2"/>
        <path id="Path_11054" data-name="Path 11054" d="M1543.51,2079.246a4.22,4.22,0,0,0,1.04-2.331,13.8,13.8,0,0,1,2.258-4.1c.728-1.026,1.606-2.145,2.857-2.281a1.339,1.339,0,0,1,.837.146c.589.357.611,1.2.456,1.875a8.844,8.844,0,0,1-2.995,4.572,26.353,26.353,0,0,1-4.676,2.987Z" transform="translate(-1526.008 -2033.133)" fill="#002daa"/>
        <path id="Path_11055" data-name="Path 11055" d="M1538.007,2065.607a3.012,3.012,0,0,0,.742-1.663,9.848,9.848,0,0,1,1.611-2.926,3.245,3.245,0,0,1,2.038-1.627.957.957,0,0,1,.6.1c.421.255.436.859.325,1.338a6.308,6.308,0,0,1-2.137,3.262,18.77,18.77,0,0,1-3.336,2.131Z" transform="translate(-1522.49 -2025.931)" fill="#002daa"/>
        <path id="Path_11056" data-name="Path 11056" d="M1515.622,2081.3a2.926,2.926,0,0,1,3.368-1.008,5.87,5.87,0,0,1,2.842,2.408c.713,1.044,1.262,2.2,2.008,3.217l-.36,1.589a3.8,3.8,0,0,0-2.5-.981,8.979,8.979,0,0,1-4.235-1.306C1515.537,2084.331,1514.838,2082.567,1515.622,2081.3Z" transform="translate(-1507.905 -2039.342)" fill="#002daa"/>
        <path id="Path_11057" data-name="Path 11057" d="M1518.687,2064.99a1.815,1.815,0,0,1,2.09-.626,3.642,3.642,0,0,1,1.764,1.494c.442.648.783,1.363,1.246,2l-.223.986a2.361,2.361,0,0,0-1.554-.609,5.574,5.574,0,0,1-2.628-.81A1.936,1.936,0,0,1,1518.687,2064.99Z" transform="translate(-1509.968 -2029.086)" fill="#002daa"/>
      </g>
      <g id="Group_1715" data-name="Group 1715" transform="translate(273.347 155.455)">
        <path id="Path_11058" data-name="Path 11058" d="M2128.533,1955.88s-30.131-15.58-24.423-43.686c0,0,4.171,9.217,12.358,13.225C2116.468,1925.419,2133.585,1939.462,2128.533,1955.88Z" transform="translate(-2094.686 -1912.194)" fill="#1067db"/>
        <path id="Path_11059" data-name="Path 11059" d="M2233.7,2032.695s-.6,19.578-27.174,16.4c0,0-2.442-6.7,9.995-10.817a15.429,15.429,0,0,1,6.111-.606A12.734,12.734,0,0,0,2233.7,2032.695Z" transform="translate(-2161.249 -1990.11)" fill="#1067db"/>
        <path id="Path_11060" data-name="Path 11060" d="M2216.43,2039.211a15.426,15.426,0,0,1,6.111-.607c2.662.218,7.152-.292,11.068-4.978a13.875,13.875,0,0,1-.326,2.245,15.252,15.252,0,0,0,.557-3.178c-3.916,4.686-8.406,5.2-11.069,4.978a15.428,15.428,0,0,0-6.11.607c-7.8,2.58-9.748,6.179-10.115,8.5C2207.272,2044.5,2209.6,2041.469,2216.43,2039.211Z" transform="translate(-2161.385 -1990.109)" fill="#70a4e9"/>
        <path id="Path_11061" data-name="Path 11061" d="M2205.813,1921.167s-34.573,20.817-20.842,49.392c0,0,6.722-1.549,12.88-10.771a35.516,35.516,0,0,0,5.712-20.669A66.386,66.386,0,0,1,2205.813,1921.167Z" transform="translate(-2145.35 -1917.996)" fill="#1067db"/>
        <path id="Path_11062" data-name="Path 11062" d="M2209.351,1939.109a66.381,66.381,0,0,1,2.25-17.951s.073-.128-1.337.869a61.809,61.809,0,0,0-1.7,15.179c.183,7.313-1.557,16.456-5.619,22.54-4.6,6.881-9.99,9.923-12.186,10.8.182.417-.2-.42,0,0,0,0,6.721-1.549,12.879-10.771A35.512,35.512,0,0,0,2209.351,1939.109Z" transform="translate(-2151.139 -1917.986)" fill="#70a4e9"/>
        <path id="Path_11063" data-name="Path 11063" d="M2099.951,2012.981s-9.447-7.921-21.193,4.69c0,0,16.208-2.947,14.766,5.537,0,0,.878,11.325,9.426,15.245C2102.95,2038.453,2112.962,2020.318,2099.951,2012.981Z" transform="translate(-2078.758 -1975.775)" fill="#1067db"/>
        <path id="Path_11064" data-name="Path 11064" d="M2099.506,2013.833c11.324,6.385,5.211,20.944,3.435,24.614l.01.005s10.012-18.135-3-25.472c0,0-9.447-7.921-21.193,4.69,0,0,.188-.032.457-.073C2090.539,2006.323,2099.506,2013.833,2099.506,2013.833Z" transform="translate(-2078.758 -1975.775)" fill="#70a4e9"/>
        <path id="Path_11065" data-name="Path 11065" d="M2173.707,1946.625a281.072,281.072,0,0,0-10.932,31.468,74.389,74.389,0,0,1-2.89,8.97c-4.7,11.05-15.344,19.355-17.623,31.144" transform="translate(-2119.819 -1934.457)" fill="none" stroke="#002daa" stroke-linecap="round" stroke-miterlimit="10" stroke-width="1"/>
        <path id="Path_11066" data-name="Path 11066" d="M2193.259,2057.172c-5.993,5.272-15.168,4.855-22.023,8.944-7.046,4.2-11.882,14.945-12.707,23.107" transform="translate(-2130.338 -2005.937)" fill="none" stroke="#002daa" stroke-linecap="round" stroke-miterlimit="10" stroke-width="1"/>
        <path id="Path_11067" data-name="Path 11067" d="M2110.288,1941.335c.6,4.8,3.877,8.832,7.42,12.129s7.531,6.208,10.323,10.161a22.32,22.32,0,0,1,3.87,15.511c-.559,4.416-2.429,8.538-3.92,12.731s-2.627,8.725-1.654,13.068" transform="translate(-2099.145 -1931.036)" fill="none" stroke="#002daa" stroke-linecap="round" stroke-miterlimit="10" stroke-width="1"/>
        <path id="Path_11068" data-name="Path 11068" d="M2097,2022.745a22.48,22.48,0,0,1,7,1.007,7.624,7.624,0,0,1,3.8,2.232,9.141,9.141,0,0,1,1.418,3.147l7.349,24.083c1.365,4.472,2.745,9.105,2.177,13.746" transform="translate(-2090.553 -1983.674)" fill="none" stroke="#002daa" stroke-linecap="round" stroke-miterlimit="10" stroke-width="1"/>
      </g>
      <line id="Line_10" data-name="Line 10" x2="364.664" transform="translate(5.336 239.155)" fill="none" stroke="#002daa" stroke-linecap="round" stroke-miterlimit="10" stroke-width="2"/>
      <g id="Group_1716" data-name="Group 1716" transform="translate(63.83 86.035)">
        <path id="Path_11069" data-name="Path 11069" d="M1556.568,1716.517l159.214.889a5.166,5.166,0,0,1,4.908,4.219l19.675,120.458h-168.35l-19.674-120.371a3.61,3.61,0,0,1,1.7-3.676Z" transform="translate(-1552.293 -1716.249)" fill="url(#linear-gradient)"/>
        <path id="Path_11070" data-name="Path 11070" d="M1556.568,1716.517l159.214.889a5.166,5.166,0,0,1,4.908,4.219l19.675,120.458h-168.35l-19.674-120.371a3.61,3.61,0,0,1,1.7-3.676Z" transform="translate(-1552.293 -1716.249)" fill="none" stroke="#002daa" stroke-miterlimit="10" stroke-width="2"/>
        <path id="Path_11071" data-name="Path 11071" d="M1578.12,1840.437h168.35L1726.8,1719.979a5.165,5.165,0,0,0-4.908-4.219H1561.975a3.492,3.492,0,0,0-3.529,4.219Z" transform="translate(-1556.234 -1715.76)" fill="#002daa"/>
        <path id="Path_11072" data-name="Path 11072" d="M1746.471,1840.437,1726.8,1719.979a5.165,5.165,0,0,0-4.908-4.219H1561.975a3.492,3.492,0,0,0-3.529,4.219l18.1,110.811" transform="translate(-1556.234 -1715.76)" fill="none" stroke="#002daa" stroke-linecap="round" stroke-miterlimit="10" stroke-width="2"/>
        <path id="Path_11073" data-name="Path 11073" d="M1751.885,1846.085l-18.14-111.062H1579.011l18.14,111.062Z" transform="translate(-1569.568 -1728.216)" fill="#cfe1f8"/>
      </g>
      <g id="Group_1718" data-name="Group 1718" transform="translate(244.04 86.277)">
        <path id="Path_11074" data-name="Path 11074" d="M2077.58,1782.731h-76.888a2.2,2.2,0,0,1-2.231-1.839l-2.6-15.051a2.9,2.9,0,0,1,2.829-3.257h76.888a2.2,2.2,0,0,1,2.231,1.838l2.6,15.051A2.9,2.9,0,0,1,2077.58,1782.731Z" transform="translate(-1995.83 -1762.585)" fill="#002daa"/>
        <g id="Group_1717" data-name="Group 1717" transform="translate(27.564 4.779)">
          <path id="Path_11075" data-name="Path 11075" d="M2110.179,1778.445h-35.551a.3.3,0,0,1-.284-.213l-.506-1.746a.3.3,0,0,1,.284-.377h35.551a.3.3,0,0,1,.284.213l.506,1.745A.3.3,0,0,1,2110.179,1778.445Z" transform="translate(-2073.828 -1776.109)" fill="#4085e2"/>
          <path id="Path_11076" data-name="Path 11076" d="M2097.1,1793.793h-18.137a.3.3,0,0,1-.284-.213l-.506-1.745a.3.3,0,0,1,.283-.377h18.137a.294.294,0,0,1,.284.213l.506,1.745A.3.3,0,0,1,2097.1,1793.793Z" transform="translate(-2076.627 -1786.033)" fill="#fff"/>
          <path id="Path_11077" data-name="Path 11077" d="M2166.36,1793.793H2141.44a.3.3,0,0,1-.284-.213l-.506-1.745a.3.3,0,0,1,.284-.377h24.92a.3.3,0,0,1,.284.213l.506,1.745A.3.3,0,0,1,2166.36,1793.793Z" transform="translate(-2117.027 -1786.033)" fill="#fff"/>
        </g>
        <path id="Path_11078" data-name="Path 11078" d="M2020.079,1770.023a10.221,10.221,0,0,1,9.391,7.575c1,4.184-1.575,7.574-5.758,7.574a10.221,10.221,0,0,1-9.391-7.574C2013.317,1773.414,2015.9,1770.023,2020.079,1770.023Z" transform="translate(-2007.646 -1767.394)" fill="#ff5722"/>
      </g>
      <g id="Group_1719" data-name="Group 1719" transform="translate(48.467 120.754)">
        <path id="Path_11079" data-name="Path 11079" d="M1652.1,1896.879l14.141-7.379,12.958,12.484-4.844,4.169a7.419,7.419,0,0,1-10.154-.446l-3.625-3.723-9.646,20.642" transform="translate(-1613.629 -1862.82)" fill="#fff"/>
        <path id="Path_11080" data-name="Path 11080" d="M1652.1,1896.879l14.141-7.379,12.958,12.484-4.844,4.169a7.419,7.419,0,0,1-10.154-.446l-3.625-3.723-9.646,20.642" transform="translate(-1613.629 -1862.82)" fill="none" stroke="#002daa" stroke-linecap="round" stroke-miterlimit="10" stroke-width="2"/>
        <path id="Path_11081" data-name="Path 11081" d="M2018.28,1912.335l-10.006-5.267-14.337,2.634.475,1.849a6.011,6.011,0,0,0,7.047,4.391l6.083-1.265,10.517,10.83Z" transform="translate(-1835.415 -1874.179)" fill="#fff"/>
        <path id="Path_11082" data-name="Path 11082" d="M2018.28,1912.335l-10.006-5.267-14.337,2.634.475,1.849a6.011,6.011,0,0,0,7.047,4.391l6.083-1.265,10.517,10.83Z" transform="translate(-1835.415 -1874.179)" fill="none" stroke="#002daa" stroke-linecap="round" stroke-miterlimit="10" stroke-width="2"/>
        <path id="Path_11083" data-name="Path 11083" d="M1929.154,1832.791h0c-4.228.924-11.216,1.906-13.991-.87-3.59-3.588,3.588-11.637,0-15.226s-11.637-3.588-15.226,0,3.588,11.637,0,15.226c-4.1,4.1-17.4,0-17.4,0s-4.1,13.3,0,17.4c3.59,3.588,11.637-3.588,15.226,0s3.589,11.637,0,15.225-11.636-3.589-15.226,0c-4.1,4.1,0,17.4,0,17.4h50.028v-50.027S1931.171,1832.349,1929.154,1832.791Z" transform="translate(-1762.204 -1814.004)" fill="#ff5722"/>
        <path id="Path_11084" data-name="Path 11084" d="M1743.482,1870.689c-3.59-3.588-11.637,3.589-15.226,0-4.1-4.1,0-17.4,0-17.4s-13.3-4.1-17.4,0c-3.589,3.588,3.589,11.636,0,15.225s-11.636,3.589-15.225,0,3.589-11.637,0-15.225c-3.814-3.814-15.578-.536-17.21-.057l-.191.057h0v50.027h50.028s-.51-1.657-.99-3.978h0c-.882-4.261-1.664-10.768.991-13.423,3.588-3.589,11.636,3.589,15.226,0S1747.072,1874.278,1743.482,1870.689Z" transform="translate(-1631.278 -1838.227)" fill="#002daa"/>
        <path id="Path_11085" data-name="Path 11085" d="M1976.5,1856.566l-.182.5a5.662,5.662,0,0,0,2.824,7l5.258,2.59,6.954,13.02-.457,27.287-3.786,9.871-5.905.731-18.473-10.655a6.967,6.967,0,0,0-9.439,2.422l-1,1.65,22.553,17.116,13.648,17.538,2.859,14.205H2024.7l-19.008-59.184-5.12-25.956-12.074-15.214Z" transform="translate(-1808.487 -1841.525)" fill="#fff"/>
        <path id="Path_11086" data-name="Path 11086" d="M1601.981,1846.493l-15.507,4.292-10.524,10.972-10.49,24.285-11.765,36.834-8.321,30.458h29.4l-1.171-20.235a40.219,40.219,0,0,0,18.6-12.43l33.688-16.049-1.049-1.705a7.169,7.169,0,0,0-7.885-3.191l-23.138,5.92-11.146-10.826,1.171-25.747,5.55-10.484,11.01-6.417a3.349,3.349,0,0,0,1.661-3.006Z" transform="translate(-1545.375 -1835.011)" fill="#fff"/>
        <path id="Path_11087" data-name="Path 11087" d="M1623.377,2029.806l30.492-14.526a11.457,11.457,0,0,0-1.793.2,114.221,114.221,0,0,0-54.085,25.061l-3.527,1.114a20.792,20.792,0,0,1,.544,18.124c-.423.924-.916,1.813-1.428,2.691h12.369l-1.17-20.235A40.218,40.218,0,0,0,1623.377,2029.806Z" transform="translate(-1576.544 -1944.149)" fill="#b3cdfa"/>
        <path id="Path_11088" data-name="Path 11088" d="M1601.981,1846.493l-15.507,4.292-10.524,10.972-10.49,24.285-11.765,36.834-8.321,30.458h29.4l-1.171-20.235a40.219,40.219,0,0,0,18.6-12.43l33.688-16.049-1.049-1.705a7.169,7.169,0,0,0-7.885-3.191l-23.138,5.92-11.146-10.826,1.171-25.747,5.55-10.484,11.01-6.417a3.349,3.349,0,0,0,1.661-3.006Z" transform="translate(-1545.375 -1835.011)" fill="none" stroke="#002daa" stroke-linecap="round" stroke-miterlimit="10" stroke-width="2"/>
        <path id="Path_11089" data-name="Path 11089" d="M1998.107,2044.231c-2.289.568-4.068-2.212-4.105-4.571s.814-4.773.132-7.031c-.744-2.462-3.139-4.066-5.558-4.938s-5.018-1.225-7.365-2.278a28.165,28.165,0,0,1-6.514-4.627c-3.278-2.8-6.785-5.6-10.981-6.605a12.035,12.035,0,0,0-5.7.046l20.532,15.583,13.648,17.539,2.859,14.205H2012.4C2008.316,2055.532,1999.712,2051.584,1998.107,2044.231Z" transform="translate(-1812.184 -1943.23)" fill="#b3cdfa"/>
        <path id="Path_11090" data-name="Path 11090" d="M1976.5,1856.566l-.182.5a5.662,5.662,0,0,0,2.824,7l5.258,2.59,6.954,13.02-.457,27.287-3.786,9.871-5.905.731-18.473-10.655a6.967,6.967,0,0,0-9.439,2.422l-1,1.65,22.553,17.116,13.648,17.538,2.859,14.205H2024.7l-19.008-59.184-5.12-25.956-12.074-15.214Z" transform="translate(-1808.487 -1841.525)" fill="none" stroke="#002daa" stroke-linecap="round" stroke-miterlimit="10" stroke-width="2"/>
      </g>
      <path id="Path_11091" data-name="Path 11091" d="M1578.815,1715.76h-23.564l5.758,33.485h23.564Z" transform="translate(-1497.082 -1647.72)" fill="#001755" opacity="0.5"/>
      <path id="Path_11092" data-name="Path 11092" d="M1582.243,1831.7h-8.01l5.323,30.954h6.716a3.763,3.763,0,0,0,3.708-4.4l-4.029-23.429A3.763,3.763,0,0,0,1582.243,1831.7Z" transform="translate(-1508.852 -1716.778)" fill="#001755" opacity="0.5"/>
      <g id="Group_1720" data-name="Group 1720" transform="translate(33.306 56.079)">
        <path id="Path_11093" data-name="Path 11093" d="M1545.323,1725.537h-36.286l-6.563-39.883h36.286Z" transform="translate(-1502.474 -1685.654)" fill="#1067db"/>
        <path id="Path_11094" data-name="Path 11094" d="M1542.835,1693.174a7.739,7.739,0,0,0-7.822,9.362,11.481,11.481,0,0,0,10.9,9.363,7.739,7.739,0,0,0,7.822-9.363h-9.362Z" transform="translate(-1523.431 -1690.516)" fill="#fff"/>
        <path id="Path_11095" data-name="Path 11095" d="M1556.835,1754.449h-25.618l-.406-2.469h25.618Z" transform="translate(-1520.797 -1728.54)" fill="#fff"/>
        <path id="Path_11096" data-name="Path 11096" d="M1559.134,1768.423h-25.618l-.406-2.469h25.618Z" transform="translate(-1522.283 -1737.576)" fill="#fff"/>
        <path id="Path_11097" data-name="Path 11097" d="M1552.168,1782.4h-16.352l-.406-2.469h16.352Z" transform="translate(-1523.77 -1746.611)" fill="#fff"/>
      </g>
      <g id="Group_1721" data-name="Group 1721" transform="translate(61.357 16.488)">
        <path id="Path_11098" data-name="Path 11098" d="M1611.773,1641.1h-42.031l-7.611-46.2h42.031Z" transform="translate(-1562.132 -1594.906)" fill="#ff5722"/>
        <path id="Path_11099" data-name="Path 11099" d="M1626.172,1706.965h-38.254l-.471-2.86H1625.7Z" transform="translate(-1578.501 -1665.514)" fill="#fff"/>
        <path id="Path_11100" data-name="Path 11100" d="M1593.142,1681.309h-5.064l-1.582-9.6h5.064Z" transform="translate(-1577.886 -1644.565)" fill="#fff"/>
        <path id="Path_11101" data-name="Path 11101" d="M1611.86,1666.612H1606.8l-2.906-17.636h5.064Z" transform="translate(-1589.133 -1629.867)" fill="#fff"/>
        <path id="Path_11102" data-name="Path 11102" d="M1629.658,1646.33h-5.064l-4.732-28.721h5.064Z" transform="translate(-1599.46 -1609.586)" fill="#fff"/>
        <path id="Path_11103" data-name="Path 11103" d="M1652.949,1659.4h-5.064l-3.555-21.58h5.064Z" transform="translate(-1615.281 -1622.651)" fill="#fff"/>
        <path id="Path_11104" data-name="Path 11104" d="M1671.936,1646.33h-5.064l-4.732-28.721h5.064Z" transform="translate(-1626.797 -1609.586)" fill="#fff"/>
      </g>
      <g id="Group_1722" data-name="Group 1722" transform="translate(16.383 10.435)">
        <path id="Path_11105" data-name="Path 11105" d="M1491.049,1611.709h-30.87l-5.59-33.931h30.87Z" transform="translate(-1454.589 -1577.778)" fill="#002daa"/>
        <path id="Path_11106" data-name="Path 11106" d="M1482.156,1599.907h-9.1l-1.978-12.007h9.1Z" transform="translate(-1465.251 -1584.323)" fill="#fff"/>
        <path id="Path_11107" data-name="Path 11107" d="M1500.146,1632.049h-21.794l-.346-2.1H1499.8Z" transform="translate(-1469.731 -1611.511)" fill="#fff"/>
        <path id="Path_11108" data-name="Path 11108" d="M1502.456,1646.065h-21.794l-.346-2.1h21.794Z" transform="translate(-1471.224 -1620.574)" fill="#fff"/>
        <path id="Path_11109" data-name="Path 11109" d="M1496.881,1660.081H1482.97l-.346-2.1h13.911Z" transform="translate(-1472.717 -1629.637)" fill="#fff"/>
        <path id="Path_11110" data-name="Path 11110" d="M1513.157,1590h-10.9l-.346-2.1h10.9Z" transform="translate(-1485.189 -1584.323)" fill="#fff"/>
        <path id="Path_11111" data-name="Path 11111" d="M1515.466,1604.016h-10.9l-.346-2.1h10.9Z" transform="translate(-1486.682 -1593.385)" fill="#fff"/>
        <path id="Path_11112" data-name="Path 11112" d="M1517.775,1618.033h-10.9l-.346-2.1h10.9Z" transform="translate(-1488.175 -1602.448)" fill="#fff"/>
      </g>
      <path id="Path_11113" data-name="Path 11113" d="M1734.278,1746.263a4.235,4.235,0,0,0,4.025,3.464h78.5a2.87,2.87,0,0,0,2.9-3.464l-5.11-31.5h-85.423Z" transform="translate(-1598.77 -1647.053)" fill="#001755" opacity="0.5"/>
      <g id="Group_1727" data-name="Group 1727" transform="translate(122.354 42.408)">
        <path id="Path_11114" data-name="Path 11114" d="M1798.978,1703.765h-78.5a4.236,4.236,0,0,1-4.026-3.464l-7.426-45.781a2.87,2.87,0,0,1,2.9-3.464h78.5a4.235,4.235,0,0,1,4.026,3.464l7.426,45.781A2.87,2.87,0,0,1,1798.978,1703.765Z" transform="translate(-1708.984 -1651.056)" fill="#fff"/>
        <g id="Group_1723" data-name="Group 1723" transform="translate(11.754 43.029)">
          <path id="Path_11115" data-name="Path 11115" d="M1817.195,1773.477h-74.842l-.108-.664h74.842Z" transform="translate(-1742.245 -1772.813)" fill="#1067db"/>
        </g>
        <path id="Path_11116" data-name="Path 11116" d="M1816.326,1670.108h-62.438l-.2-1.2h62.438Z" transform="translate(-1737.892 -1662.596)" fill="#c2d7fb"/>
        <path id="Path_11117" data-name="Path 11117" d="M1781.284,1679.287h-25.908l-.2-1.2h25.908Z" transform="translate(-1738.855 -1668.531)" fill="#c2d7fb"/>
        <g id="Group_1724" data-name="Group 1724" transform="translate(17.02 18.037)">
          <path id="Path_11118" data-name="Path 11118" d="M1757.546,1724.665c5.929-1.861,8.743-8,15.755-7.493,6.42.461,12.709,4.321,18.988,2.91,5.86-1.317,9.108-5.106,12.517-9.4,4.117-5.185,10.567-7.8,17.705-7.68l-.146-.9a23.35,23.35,0,0,0-14.806,4.505,28.035,28.035,0,0,0-5.206,5.832,18.379,18.379,0,0,1-9.218,6.439c-6.985,2.156-14.068-2.7-21.28-2.665-6.516.028-9.04,5.81-14.691,7.584,0,0-.151,1.037.381.87Z" transform="translate(-1757.145 -1702.095)" fill="#3357bb"/>
        </g>
        <g id="Group_1725" data-name="Group 1725" transform="translate(17.521 18.217)">
          <path id="Path_11119" data-name="Path 11119" d="M1758.564,1727.275c5.415,1.2,6.76-4.026,9.487-7.019,5.257-5.769,14.483-6.491,22.623-4.283,5.723,1.552,11.656,3.427,16.268.018a48.227,48.227,0,0,0,6.475-5.94c2.942-3.163,5.8-7.467,11.308-6.348l-.146-.9c-5.576-1.132-8.425,2.78-11.478,6.151-2.5,2.759-5.556,6.4-9.253,7.658-4.034,1.376-8.8-.352-13.076-1.511-6.185-1.678-12.275-1.729-17.66.592a17.076,17.076,0,0,0-5.451,3.569c-2.585,2.616-3.937,8.263-9,7.142l-.1.87Z" transform="translate(-1758.564 -1702.604)" fill="#ff5722"/>
        </g>
        <g id="Group_1726" data-name="Group 1726" transform="translate(11.232 5.103)">
          <path id="Path_11120" data-name="Path 11120" d="M1748.257,1707.574h-.664l-6.826-42.079h.664Z" transform="translate(-1740.768 -1665.495)" fill="#1067db"/>
        </g>
      </g>
      <g id="Group_1729" data-name="Group 1729" transform="translate(217.029 11.742)">
        <path id="Path_11121" data-name="Path 11121" d="M1965.4,1622.946l27.092.254a6.276,6.276,0,0,0,6.249-7.308l-4.691-28.108a7.247,7.247,0,0,0-7.08-6.054l-27.092-.254a6.275,6.275,0,0,0-6.249,7.308l4.691,28.108A7.247,7.247,0,0,0,1965.4,1622.946Z" transform="translate(-1953.538 -1581.476)" fill="#ff5722"/>
        <g id="Group_1728" data-name="Group 1728" transform="translate(14.136 6.417)">
          <path id="Path_11122" data-name="Path 11122" d="M2009.806,1656.111l8.654,1.53a.938.938,0,0,0,1.142-1.133h0a1.475,1.475,0,0,0-1.161-1.133l-8.654-1.53a.938.938,0,0,0-1.142,1.133h0A1.475,1.475,0,0,0,2009.806,1656.111Z" transform="translate(-2003.293 -1634.675)" fill="#fff"/>
          <path id="Path_11123" data-name="Path 11123" d="M2011.74,1666.231l8.654,1.53a.938.938,0,0,0,1.142-1.133h0a1.476,1.476,0,0,0-1.161-1.133l-8.654-1.53a.938.938,0,0,0-1.142,1.133h0A1.475,1.475,0,0,0,2011.74,1666.231Z" transform="translate(-2004.543 -1641.218)" fill="#fff"/>
          <path id="Path_11124" data-name="Path 11124" d="M1993.689,1607.859c-.868-4.543,2.111-8.226,6.654-8.226a10.433,10.433,0,0,1,9.8,8.226,6.9,6.9,0,0,1-1.7,6.257l.973,5.09-11.037-1.951-.6-3.14A10.327,10.327,0,0,1,1993.689,1607.859Z" transform="translate(-1993.538 -1599.633)" fill="#fff"/>
          <path id="Path_11125" data-name="Path 11125" d="M2024.23,1675.43a1.4,1.4,0,0,1-1.464,1.456,2.251,2.251,0,0,1-2.114-1.775,1.773,1.773,0,0,1-.029-.319Z" transform="translate(-2011.051 -1648.231)" fill="#fff"/>
        </g>
      </g>
      <g id="Group_1730" data-name="Group 1730" transform="translate(11.511 111.047)">
        <path id="Path_11126" data-name="Path 11126" d="M1447.329,1853.531l49.556-.009a1.931,1.931,0,0,0,1.968-2.271l-3.882-26.952a2.727,2.727,0,0,0-2.622-2.27l-49.556.01a1.93,1.93,0,0,0-1.968,2.271l3.882,26.952A2.727,2.727,0,0,0,1447.329,1853.531Z" transform="translate(-1440.802 -1822.028)" fill="#002daa"/>
        <path id="Path_11127" data-name="Path 11127" d="M1462.269,1833.924l21.771,0-.276-1.918-21.771,0Z" transform="translate(-1454.504 -1828.477)" fill="#b3cdfa"/>
        <path id="Path_11128" data-name="Path 11128" d="M1464.157,1845.6l10.885,0-.276-1.918-10.885,0Z" transform="translate(-1455.725 -1836.025)" fill="#b3cdfa"/>
        <path id="Path_11129" data-name="Path 11129" d="M1504.39,1872.383c-2.071-2.328-4.369-5.318-6.661-7.44a5.61,5.61,0,0,0-2.753-1.675c-1.469-.214-2.581.87-3.5,1.854a7.674,7.674,0,0,1-3.987,2.681c-2.05.389-4.281-.627-6.307-1.646a17.319,17.319,0,0,1-4.936-3.278c-1.32-1.39-2.209-3.2-3.807-4.26a2.16,2.16,0,0,0-.911-.385,1.578,1.578,0,0,0-1.354.648c-.854,1.018-1,2.471-1.331,3.8s-1,2.7-2.358,3.012c-1.763.407-3.641-1.179-4.8-2.782s-2.152-3.486-3.9-4.409a1.733,1.733,0,0,0-1.664-.156c-.5.327-.508,1.047-.475,1.674q.2,3.906.4,7.812c.055,1.082.355,3.675,1.116,4.563Z" transform="translate(-1450.392 -1845.409)" fill="#fff"/>
      </g>
      <path id="Path_11130" data-name="Path 11130" d="M2104.4,1843.45a1.4,1.4,0,0,1,1.289,1.04.793.793,0,0,1-.791,1.04,1.4,1.4,0,0,1-1.289-1.04A.793.793,0,0,1,2104.4,1843.45Z" transform="translate(-1830.872 -1725.863)" fill="#002daa"/>
      <path id="Path_11131" data-name="Path 11131" d="M1478.109,1717.317a1.4,1.4,0,0,1,1.289,1.04.794.794,0,0,1-.791,1.04,1.4,1.4,0,0,1-1.289-1.04A.793.793,0,0,1,1478.109,1717.317Z" transform="translate(-1452.884 -1649.972)" fill="#002daa"/>
      <path id="Path_11132" data-name="Path 11132" d="M1868.283,1556.839a1.4,1.4,0,0,1,1.29,1.04.794.794,0,0,1-.791,1.04,1.4,1.4,0,0,1-1.29-1.04A.794.794,0,0,1,1868.283,1556.839Z" transform="translate(-1687.357 -1553.804)" fill="#002daa"/>
      <path id="Path_11133" data-name="Path 11133" d="M2145.673,1918.795a2.282,2.282,0,0,1,2.1,1.691,1.29,1.29,0,0,1-1.285,1.691,2.282,2.282,0,0,1-2.1-1.691A1.29,1.29,0,0,1,2145.673,1918.795Z" transform="translate(-1855.53 -1771.092)" fill="#1067db"/>
      <path id="Path_11134" data-name="Path 11134" d="M1548.705,1943.206a2.281,2.281,0,0,1,2.1,1.69,1.29,1.29,0,0,1-1.285,1.691,2.281,2.281,0,0,1-2.1-1.691A1.29,1.29,0,0,1,1548.705,1943.206Z" transform="translate(-1498.199 -1785.773)" fill="#1067db"/>
      <path id="Path_11135" data-name="Path 11135" d="M1701.239,1548.251a2.281,2.281,0,0,1,2.1,1.69,1.29,1.29,0,0,1-1.285,1.691,2.281,2.281,0,0,1-2.1-1.691A1.289,1.289,0,0,1,1701.239,1548.251Z" transform="translate(-1585.468 -1548.251)" fill="#1067db"/>
      <path id="Path_11136" data-name="Path 11136" d="M1498.327,1790.738a2.281,2.281,0,0,1,2.1,1.691,1.29,1.29,0,0,1-1.285,1.691,2.281,2.281,0,0,1-2.1-1.691A1.29,1.29,0,0,1,1498.327,1790.738Z" transform="translate(-1465.624 -1694.08)" fill="#ff5722"/>
      <path id="Path_11137" data-name="Path 11137" d="M2122.091,1597.132a2.282,2.282,0,0,1,2.1,1.691,1.29,1.29,0,0,1-1.285,1.691,2.281,2.281,0,0,1-2.1-1.691A1.29,1.29,0,0,1,2122.091,1597.132Z" transform="translate(-1841.2 -1579.857)" fill="#002daa"/>
      <path id="Path_11138" data-name="Path 11138" d="M2190.7,1864.86a.829.829,0,0,1,.762.615.469.469,0,0,1-.467.614.829.829,0,0,1-.762-.614A.469.469,0,0,1,2190.7,1864.86Z" transform="translate(-1877.476 -1738.801)" fill="#ff5722"/>
      <path id="Path_11139" data-name="Path 11139" d="M1489.481,1962.763a1.249,1.249,0,0,1,1.148.926.706.706,0,0,1-.7.926,1.249,1.249,0,0,1-1.148-.926A.706.706,0,0,1,1489.481,1962.763Z" transform="translate(-1460.295 -1797.67)" fill="#002daa"/>
      <path id="Path_11140" data-name="Path 11140" d="M1516.517,2026.7a.829.829,0,0,1,.762.615.469.469,0,0,1-.467.615.829.829,0,0,1-.762-.615A.469.469,0,0,1,1516.517,2026.7Z" transform="translate(-1477.935 -1836.206)" fill="#ff5722"/>
      <path id="Path_11141" data-name="Path 11141" d="M1914.93,1620.137a.83.83,0,0,1,.762.615.469.469,0,0,1-.467.615.829.829,0,0,1-.762-.615A.469.469,0,0,1,1914.93,1620.137Z" transform="translate(-1715.965 -1594.732)" fill="#ff5722"/>
      <path id="Path_11142" data-name="Path 11142" d="M2080.378,1726.388a.829.829,0,0,1,.762.615.469.469,0,0,1-.467.615.829.829,0,0,1-.762-.615A.469.469,0,0,1,2080.378,1726.388Z" transform="translate(-1816.543 -1655.462)" fill="#1067db"/>
      <path id="Path_11143" data-name="Path 11143" d="M1739.464,1621.876a.83.83,0,0,1,.762.615.469.469,0,0,1-.467.615.829.829,0,0,1-.762-.615A.469.469,0,0,1,1739.464,1621.876Z" transform="translate(-1609.297 -1595.857)" fill="#1067db"/>
      <path id="Path_11144" data-name="Path 11144" d="M1422.025,1757.228a.829.829,0,0,1,.762.615.469.469,0,0,1-.467.615.829.829,0,0,1-.762-.615A.469.469,0,0,1,1422.025,1757.228Z" transform="translate(-1416.836 -1674.024)" fill="#1067db"/>
      <g id="Group_1732" data-name="Group 1732" transform="translate(137.356 1.115)">
        <g id="Group_1731" data-name="Group 1731">
          <path id="Path_11145" data-name="Path 11145" d="M1779.727,1551.609l-21.723-.2a2.759,2.759,0,0,0-2.714,3.093l3.81,22.49a2.1,2.1,0,0,0,2.107,1.764l21.753.232h0a2.759,2.759,0,0,0,2.691-3.093l-3.815-22.518A2.1,2.1,0,0,0,1779.727,1551.609Z" transform="translate(-1755.256 -1551.405)" fill="#1067db"/>
          <path id="Path_11146" data-name="Path 11146" d="M1787.931,1572.863a.508.508,0,0,1,.006-.588l.805-.982a.669.669,0,0,0-.165-.913l-1.876-1.591a.644.644,0,0,0-.914,0l-.8.974a.5.5,0,0,1-.595.1q-.2-.086-.41-.159a.689.689,0,0,1-.453-.505l-.249-1.379a.81.81,0,0,0-.762-.647l-2.248,0a.524.524,0,0,0-.53.645l.251,1.393a.432.432,0,0,1-.248.5c-.122.051-.262.111-.391.171a.582.582,0,0,1-.609-.114l-1.16-.985a.645.645,0,0,0-.914,0l-1.3,1.586a.67.67,0,0,0,.164.914l1.152.978a.608.608,0,0,1,.211.613c-.035.125-.064.252-.09.381a.433.433,0,0,1-.44.36l-1.38,0a.524.524,0,0,0-.53.645l.4,2.247a.81.81,0,0,0,.762.647l1.394,0a.664.664,0,0,1,.557.339c.074.131.162.282.247.422a.507.507,0,0,1-.008.588l-.807.98a.668.668,0,0,0,.163.913l1.875,1.594a.645.645,0,0,0,.914,0l.8-.973a.5.5,0,0,1,.595-.1c.142.06.286.115.43.167a.688.688,0,0,1,.453.5l.251,1.379a.809.809,0,0,0,.763.646h2.247a.524.524,0,0,0,.528-.646l-.253-1.393a.432.432,0,0,1,.248-.5c.121-.051.261-.111.391-.171a.581.581,0,0,1,.609.113l1.161.983a.643.643,0,0,0,.913,0l1.3-1.589a.67.67,0,0,0-.166-.914l-1.153-.976a.607.607,0,0,1-.212-.613c.034-.125.064-.252.089-.381a.433.433,0,0,1,.439-.361h1.379a.524.524,0,0,0,.529-.645l-.407-2.247a.809.809,0,0,0-.763-.646l-1.762,0C1788.356,1573.6,1788.135,1573.2,1787.931,1572.863Zm-6.743-.445a3.8,3.8,0,0,1,4.718,2.4,2.7,2.7,0,0,1-1.338,3.542,3.8,3.8,0,0,1-4.718-2.4A2.7,2.7,0,0,1,1781.188,1572.418Z" transform="translate(-1767.663 -1561.597)" fill="#fff"/>
        </g>
      </g>
      <g id="Group_1734" data-name="Group 1734" transform="translate(278.316 39.823)">
        <path id="Path_11147" data-name="Path 11147" d="M2119.353,1674.238l18,.169a4.168,4.168,0,0,0,4.15-4.854l-3.116-18.67a4.814,4.814,0,0,0-4.7-4.021l-18-.169a4.168,4.168,0,0,0-4.151,4.855l3.116,18.67A4.814,4.814,0,0,0,2119.353,1674.238Z" transform="translate(-2111.476 -1646.691)" fill="#1067db"/>
        <g id="Group_1733" data-name="Group 1733" transform="translate(10.5 5.713)">
          <path id="Path_11148" data-name="Path 11148" d="M2147.652,1673.209h-3.1l-.108-1.531a2.768,2.768,0,0,1,.125-1.255,4.925,4.925,0,0,1,.827-1.133l1.288-1.429a1.358,1.358,0,0,0,.239-.95,1.552,1.552,0,0,0-.394-.969,1.148,1.148,0,0,0-.885-.389,1,1,0,0,0-.856.46,2.214,2.214,0,0,0-.353,1.215h-3.247a4.558,4.558,0,0,1,1.263-3.207,4.229,4.229,0,0,1,3.093-1.163,4.841,4.841,0,0,1,3.177,1.042,3.9,3.9,0,0,1,1.4,2.878,2.719,2.719,0,0,1-.118,1.216c-.117.264-.2.455-.245.571a2.558,2.558,0,0,1-.342.52c-.181.231-.3.38-.366.448q-.456.491-.863.919a2.834,2.834,0,0,0-.533.7,1.814,1.814,0,0,0-.084.828Zm-2.511,3.89a1.868,1.868,0,0,1-.61-1.276,1.634,1.634,0,0,1,1.669-1.8,1.935,1.935,0,0,1,1.923,1.8,1.634,1.634,0,0,1-1.669,1.8A1.859,1.859,0,0,1,2145.141,1677.1Z" transform="translate(-2141.186 -1662.858)" fill="#fff"/>
        </g>
      </g>
    </g>
  </g>
</svg>
