<svg xmlns="http://www.w3.org/2000/svg" width="372" height="240.568" viewBox="0 0 372 240.568">
  <g id="Illustration" transform="translate(-161.05 -293.092)">
    <g id="Group_1865" data-name="Group 1865" transform="translate(162.05 293.092)">
      <path id="Path_11399" data-name="Path 11399" d="M534.772,404.416A68.2,68.2,0,0,0,523.1,385.1c-11.893-13.982-29.915-22.71-48.176-22.39-26.134.458-49.614.746-71.813-15.9-20.081-15.059-46.618-26.749-71.26-31.663-17.65-3.52-36.882-2.318-52.283,7.064-16.018,9.758-30.284,24.021-27.435,43.965,1.466,10.264,4.685,21.02.974,30.69-4.89,12.741-19.564,18.18-32.727,21.4s-27.869,6.609-35.393,17.969c-7.3,11.015-4.96,26.34,2.185,37.456s18.222,18.946,29.055,26.437a188.949,188.949,0,0,1,24.838,20.347c2.707,2.636,6.538,5.542,8.506,8.754,2.517,4.106,1.577,9.928,5.217,13.328,3.784,3.525,8.406,1.135,13.46,1.151l51.04.2,121.457.465h.014c5.508.021,11.722,1.507,17.16.615,7.612-1.248,5.067-1.195,9.182-6.982,5.466-7.688,12.34-12.588,20.014-17.907C521.984,495.92,551.022,445.794,534.772,404.416Z" transform="translate(-173.172 -305.266)" fill="#eef4fc"/>
      <g id="Group_1842" data-name="Group 1842" transform="translate(241.908 126.797)">
        <path id="Path_11400" data-name="Path 11400" d="M878.267,666.495H771.57a2.133,2.133,0,0,1-2.159-2.515l7.57-53.527a3,3,0,0,1,2.871-2.515h106.7a2.133,2.133,0,0,1,2.16,2.515l-7.57,53.527A3,3,0,0,1,878.267,666.495Z" transform="translate(-769.385 -607.937)" fill="#1067db"/>
        <path id="Path_11401" data-name="Path 11401" d="M807.031,623.132h-6.5l.466-3.3h6.5Z" transform="translate(-788.128 -615.097)" fill="#fff"/>
        <path id="Path_11402" data-name="Path 11402" d="M972.078,636.391H922.165l.466-3.3h49.913Z" transform="translate(-861.311 -623.075)" fill="#fff"/>
        <path id="Path_11403" data-name="Path 11403" d="M968.777,659.73H918.864l.466-3.3h49.913Z" transform="translate(-859.325 -637.117)" fill="#fff"/>
        <path id="Path_11404" data-name="Path 11404" d="M965.476,683.07H915.563l.466-3.3h49.913Z" transform="translate(-857.339 -651.161)" fill="#fff"/>
        <path id="Path_11405" data-name="Path 11405" d="M940.861,706.409h-28.6l.466-3.3h28.6Z" transform="translate(-855.353 -665.203)" fill="#fff"/>
        <path id="Path_11406" data-name="Path 11406" d="M803.8,645.985h-6.5l.466-3.3h6.5Z" transform="translate(-786.184 -628.847)" fill="#fff"/>
        <path id="Path_11407" data-name="Path 11407" d="M800.568,668.837h-6.5l.466-3.3h6.5Z" transform="translate(-784.239 -642.597)" fill="#fff"/>
        <path id="Path_11408" data-name="Path 11408" d="M797.336,691.689h-6.5l.466-3.3h6.5Z" transform="translate(-782.295 -656.347)" fill="#fff"/>
        <path id="Path_11409" data-name="Path 11409" d="M794.1,714.542h-6.5l.466-3.3h6.5Z" transform="translate(-780.35 -670.097)" fill="#fff"/>
        <path id="Path_11410" data-name="Path 11410" d="M790.872,737.394h-6.5l.466-3.3h6.5Z" transform="translate(-778.406 -683.847)" fill="#fff"/>
        <g id="Group_1841" data-name="Group 1841" transform="translate(22.005 10.737)">
          <path id="Path_11411" data-name="Path 11411" d="M867.693,634.893l-2.162,15.289.007.008,9.258,10.817a17.869,17.869,0,0,0,6.015-10.78c0-.015.007-.03.009-.045C882.014,641.738,876.137,634.893,867.693,634.893Z" transform="translate(-849.241 -634.893)" fill="#fff"/>
          <path id="Path_11412" data-name="Path 11412" d="M831.316,639.357a17.867,17.867,0,0,0-6.019,10.8l15.282.037v-.008l2.162-15.289A17.536,17.536,0,0,0,831.316,639.357Z" transform="translate(-825.032 -634.893)" fill="#ff5722"/>
          <path id="Path_11413" data-name="Path 11413" d="M840.082,675.105h-.008l-15.282-.037c0,.01,0,.02-.006.029-1.194,8.444,4.683,15.289,13.127,15.289a17.536,17.536,0,0,0,11.427-4.464Z" transform="translate(-824.632 -659.066)" fill="#002daa"/>
        </g>
      </g>
      <g id="Group_1843" data-name="Group 1843" transform="translate(250.749 72.308)">
        <path id="Path_11414" data-name="Path 11414" d="M872.964,522.467l-78.239-.015a3.048,3.048,0,0,1-3.107-3.586l6.128-42.552a4.306,4.306,0,0,1,4.14-3.584l78.239.015a3.048,3.048,0,0,1,3.107,3.586L877.1,518.882A4.306,4.306,0,0,1,872.964,522.467Z" transform="translate(-791.581 -472.73)" fill="#fff"/>
        <path id="Path_11415" data-name="Path 11415" d="M860.637,489.737l-34.372-.007.436-3.028,34.372.007Z" transform="translate(-812.45 -481.137)" fill="#b3cdfa"/>
        <path id="Path_11416" data-name="Path 11416" d="M841.1,506.085l-17.186,0,.436-3.028,17.186,0Z" transform="translate(-811.033 -490.975)" fill="#b3cdfa"/>
        <path id="Path_11417" data-name="Path 11417" d="M804.405,544.738c3.269-3.676,6.9-8.4,10.517-11.747,1.275-1.181,2.7-2.406,4.346-2.645,2.32-.338,4.074,1.373,5.527,2.927,1.738,1.857,3.667,3.735,6.295,4.233,3.236.613,6.76-.99,9.957-2.6a27.359,27.359,0,0,0,7.793-5.175c2.085-2.194,3.488-5.058,6.01-6.725a3.413,3.413,0,0,1,1.438-.607,2.491,2.491,0,0,1,2.137,1.024c1.348,1.607,1.584,3.9,2.1,5.993s1.583,4.261,3.722,4.755c2.784.642,5.748-1.861,7.577-4.393s3.4-5.5,6.161-6.961a2.736,2.736,0,0,1,2.626-.246c.785.515.8,1.653.75,2.643q-.317,6.166-.634,12.334c-.088,1.708-.56,5.8-1.762,7.2Z" transform="translate(-799.297 -502.571)" fill="#002daa"/>
      </g>
      <g id="Group_1844" data-name="Group 1844" transform="translate(16.188 127.398)">
        <path id="Path_11418" data-name="Path 11418" d="M234.411,663.213s-30.6-7.321-31.719-33.9c0,0,5.808,7.372,14.072,9.158C216.764,638.468,235.3,647.3,234.411,663.213Z" transform="translate(-202.692 -620.799)" fill="#1067db"/>
        <path id="Path_11419" data-name="Path 11419" d="M336.57,690.359s3.82,17.763-20.82,20.82c0,0-3.691-5.493,6.593-11.967a14.309,14.309,0,0,1,5.368-1.906A11.813,11.813,0,0,0,336.57,690.359Z" transform="translate(-270.33 -657.531)" fill="#1067db"/>
        <path id="Path_11420" data-name="Path 11420" d="M322.345,700.1a14.314,14.314,0,0,1,5.368-1.907,11.811,11.811,0,0,0,8.86-6.947,12.857,12.857,0,0,1,.206,2.094,14.148,14.148,0,0,0-.206-2.986,11.812,11.812,0,0,1-8.86,6.947,14.314,14.314,0,0,0-5.368,1.907c-6.451,4.061-7.4,7.734-7.215,9.909C315.276,706.905,316.7,703.655,322.345,700.1Z" transform="translate(-270.332 -657.531)" fill="#70a4e9"/>
        <path id="Path_11421" data-name="Path 11421" d="M298,607.952s-26.5,26.443-7.772,49.119c0,0,5.708-2.891,9.2-12.568a32.947,32.947,0,0,0,.543-19.885A61.582,61.582,0,0,1,298,607.952Z" transform="translate(-251.33 -607.948)" fill="#1067db"/>
        <path id="Path_11422" data-name="Path 11422" d="M309.958,624.612a61.586,61.586,0,0,1-1.97-16.667s.037-.132-1.01,1.08a57.317,57.317,0,0,0,1.848,14.048c1.793,6.545,2.262,15.166-.042,21.549-2.606,7.219-6.786,11.16-8.568,12.442.256.335-.276-.334,0,0,0,0,5.708-2.891,9.2-12.567A32.943,32.943,0,0,0,309.958,624.612Z" transform="translate(-261.322 -607.942)" fill="#70a4e9"/>
        <path id="Path_11423" data-name="Path 11423" d="M222.841,705.519s-10.27-5.03-18.04,8.942c0,0,13.939-6.262,14.53,1.7,0,0,3.312,10,11.882,11.629C231.213,727.789,236.192,709.228,222.841,705.519Z" transform="translate(-203.961 -666.122)" fill="#1067db"/>
        <path id="Path_11424" data-name="Path 11424" d="M222.631,706.385c11.619,3.229,9.356,17.7,8.573,21.4l.01,0s4.979-18.56-8.372-22.27c0,0-10.27-5.03-18.04,8.942,0,0,.162-.071.4-.168C212.883,701.619,222.631,706.385,222.631,706.385Z" transform="translate(-203.961 -666.122)" fill="#70a4e9"/>
        <path id="Path_11425" data-name="Path 11425" d="M291.269,631.968a260.619,260.619,0,0,0-2.839,30.771,68.912,68.912,0,0,1-.606,8.721c-1.77,11-9.508,20.846-8.936,31.97" transform="translate(-248.52 -622.398)" fill="none" stroke="#002daa" stroke-linecap="round" stroke-miterlimit="10" stroke-width="1"/>
        <path id="Path_11426" data-name="Path 11426" d="M316.259,715.244c-4.223,6.082-12.578,7.75-17.841,12.957-5.409,5.353-6.732,13.731-5.657,21.265" transform="translate(-256.679 -672.504)" fill="none" stroke="#002daa" stroke-linecap="round" stroke-miterlimit="10" stroke-width="1"/>
        <path id="Path_11427" data-name="Path 11427" d="M212.332,651.633c1.613,4.19,5.458,7.091,9.382,9.271s8.164,3.913,11.558,6.852a20.706,20.706,0,0,1,6.938,13.106c.48,4.1-.286,8.229-.7,12.338s-.423,8.442,1.42,12.137" transform="translate(-208.492 -634.23)" fill="none" stroke="#002daa" stroke-linecap="round" stroke-miterlimit="10" stroke-width="1"/>
        <path id="Path_11428" data-name="Path 11428" d="M217.8,718.269a20.843,20.843,0,0,1,6.53-.652,7.076,7.076,0,0,1,3.918,1.165,8.474,8.474,0,0,1,1.977,2.518l11.98,20.052c2.224,3.723,4.5,7.589,5.02,11.894" transform="translate(-211.781 -673.911)" fill="none" stroke="#002daa" stroke-linecap="round" stroke-miterlimit="10" stroke-width="1"/>
        <path id="Path_11429" data-name="Path 11429" d="M273.277,826.056H252.753a4.816,4.816,0,0,1-4.767-4.13l-5.437-37.783h39.726l-4.212,37.633A4.816,4.816,0,0,1,273.277,826.056Z" transform="translate(-226.674 -713.96)" fill="#fff"/>
        <path id="Path_11430" data-name="Path 11430" d="M279.7,819.747l2.961-26.458H243.865l.413,2.869Z" transform="translate(-227.465 -719.464)" fill="#b3cdfa" opacity="0.57"/>
        <path id="Path_11431" data-name="Path 11431" d="M273.277,826.056H252.753a4.816,4.816,0,0,1-4.767-4.13l-5.437-37.783h39.726l-4.212,37.633A4.816,4.816,0,0,1,273.277,826.056Z" transform="translate(-226.674 -713.96)" fill="none" stroke="#002daa" stroke-linecap="round" stroke-miterlimit="10" stroke-width="2"/>
        <rect id="Rectangle_625" data-name="Rectangle 625" width="44.911" height="6.104" transform="translate(13.283 68.465)" fill="#fff"/>
        <rect id="Rectangle_626" data-name="Rectangle 626" width="44.911" height="6.104" transform="translate(13.283 68.465)" fill="none" stroke="#002daa" stroke-linecap="round" stroke-miterlimit="10" stroke-width="2"/>
      </g>
      <path id="Path_11432" data-name="Path 11432" d="M518.157,317.8a1.582,1.582,0,0,0-1.453,1.172.894.894,0,0,0,.891,1.172,1.582,1.582,0,0,0,1.453-1.172A.9.9,0,0,0,518.157,317.8Z" transform="translate(-375.421 -307.959)" fill="#002daa"/>
      <path id="Path_11433" data-name="Path 11433" d="M921.055,454.029a1.14,1.14,0,0,0-1.047.845.645.645,0,0,0,.643.845,1.14,1.14,0,0,0,1.047-.845A.645.645,0,0,0,921.055,454.029Z" transform="translate(-618.091 -389.386)" fill="#002daa"/>
      <path id="Path_11434" data-name="Path 11434" d="M863.991,346.318a1.582,1.582,0,0,0-1.453,1.172.894.894,0,0,0,.891,1.172,1.582,1.582,0,0,0,1.453-1.172A.894.894,0,0,0,863.991,346.318Z" transform="translate(-583.506 -325.117)" fill="#002daa"/>
      <path id="Path_11435" data-name="Path 11435" d="M268.174,415.743a1.582,1.582,0,0,0-1.453,1.172.894.894,0,0,0,.891,1.172,1.582,1.582,0,0,0,1.453-1.172A.894.894,0,0,0,268.174,415.743Z" transform="translate(-225.009 -366.477)" fill="#002daa"/>
      <path id="Path_11436" data-name="Path 11436" d="M939.762,781.2a1.581,1.581,0,0,0-1.453,1.172.894.894,0,0,0,.891,1.172,1.581,1.581,0,0,0,1.453-1.172A.894.894,0,0,0,939.762,781.2Z" transform="translate(-629.097 -584.792)" fill="#002daa"/>
      <path id="Path_11437" data-name="Path 11437" d="M652.207,346.3a1.59,1.59,0,0,0-1.461,1.178.9.9,0,0,0,.9,1.179,1.591,1.591,0,0,0,1.461-1.179A.9.9,0,0,0,652.207,346.3Z" transform="translate(-456.073 -325.108)" fill="#002daa"/>
      <path id="Path_11438" data-name="Path 11438" d="M983.164,405.59a2.3,2.3,0,0,0-2.115,1.706,1.3,1.3,0,0,0,1.3,1.706,2.3,2.3,0,0,0,2.115-1.706A1.3,1.3,0,0,0,983.164,405.59Z" transform="translate(-654.804 -360.401)" fill="#ff5722"/>
      <path id="Path_11439" data-name="Path 11439" d="M200.766,438.834a1.978,1.978,0,0,0-1.817,1.465,1.118,1.118,0,0,0,1.114,1.466,1.978,1.978,0,0,0,1.817-1.466A1.118,1.118,0,0,0,200.766,438.834Z" transform="translate(-184.226 -380.292)" fill="#ff5722"/>
      <path id="Path_11440" data-name="Path 11440" d="M612.365,293.092a1.813,1.813,0,0,0-1.666,1.344,1.025,1.025,0,0,0,1.022,1.344,1.814,1.814,0,0,0,1.666-1.344A1.026,1.026,0,0,0,612.365,293.092Z" transform="translate(-431.974 -293.092)" fill="#1067db"/>
      <path id="Path_11441" data-name="Path 11441" d="M888.791,823.128a1.814,1.814,0,0,0-1.666,1.344,1.025,1.025,0,0,0,1.022,1.344,1.813,1.813,0,0,0,1.666-1.344A1.025,1.025,0,0,0,888.791,823.128Z" transform="translate(-598.297 -610.019)" fill="#1067db"/>
      <path id="Path_11442" data-name="Path 11442" d="M1063.785,477.643a1.814,1.814,0,0,0-1.666,1.344,1.026,1.026,0,0,0,1.022,1.344,1.814,1.814,0,0,0,1.666-1.344A1.025,1.025,0,0,0,1063.785,477.643Z" transform="translate(-703.589 -403.513)" fill="#1067db"/>
      <path id="Path_11443" data-name="Path 11443" d="M368.325,312.086a2.572,2.572,0,0,0-2.362,1.906,1.454,1.454,0,0,0,1.449,1.905,2.571,2.571,0,0,0,2.362-1.905A1.454,1.454,0,0,0,368.325,312.086Z" transform="translate(-284.709 -304.52)" fill="#1067db"/>
      <path id="Path_11444" data-name="Path 11444" d="M854.738,786.1a.934.934,0,0,0-.859.692.528.528,0,0,0,.527.693.934.934,0,0,0,.859-.693A.528.528,0,0,0,854.738,786.1Z" transform="translate(-578.304 -587.738)" fill="#ff5722"/>
      <path id="Path_11445" data-name="Path 11445" d="M423.949,351.972a.935.935,0,0,0-.859.693.529.529,0,0,0,.527.693.935.935,0,0,0,.859-.693A.529.529,0,0,0,423.949,351.972Z" transform="translate(-319.103 -328.519)" fill="#ff5722"/>
      <path id="Path_11446" data-name="Path 11446" d="M215.293,551.34a2.572,2.572,0,0,0-2.362,1.906,1.454,1.454,0,0,0,1.449,1.905,2.57,2.57,0,0,0,2.362-1.905A1.454,1.454,0,0,0,215.293,551.34Z" transform="translate(-192.632 -447.603)" fill="#1067db"/>
      <g id="Group_1846" data-name="Group 1846" transform="translate(58.621 22.373)">
        <g id="Group_1845" data-name="Group 1845">
          <path id="Path_11447" data-name="Path 11447" d="M315.94,349.491l24.483-.23a3.109,3.109,0,0,1,3.059,3.485l-4.294,25.349a2.371,2.371,0,0,1-2.375,1.988l-24.518.261h0a3.11,3.11,0,0,1-3.034-3.486l4.3-25.38A2.371,2.371,0,0,1,315.94,349.491Z" transform="translate(-309.225 -349.261)" fill="#1067db"/>
          <path id="Path_11448" data-name="Path 11448" d="M331.73,372.3l-1.986,0a.913.913,0,0,0-.86.729l-.458,2.533a.59.59,0,0,0,.6.727h1.554a.488.488,0,0,1,.5.407c.028.145.062.288.1.429a.686.686,0,0,1-.239.691l-1.3,1.1a.754.754,0,0,0-.187,1.029l1.466,1.79a.726.726,0,0,0,1.03,0l1.308-1.108a.657.657,0,0,1,.687-.127c.145.068.3.136.44.193a.488.488,0,0,1,.279.559l-.286,1.57a.59.59,0,0,0,.6.728H337.5a.913.913,0,0,0,.86-.728l.283-1.555a.776.776,0,0,1,.51-.568q.244-.086.484-.188a.565.565,0,0,1,.671.112l.9,1.1a.727.727,0,0,0,1.03,0l2.113-1.8a.754.754,0,0,0,.184-1.03l-.91-1.1a.57.57,0,0,1-.008-.662c.1-.158.195-.329.278-.476a.748.748,0,0,1,.628-.382l1.571,0a.913.913,0,0,0,.859-.73l.455-2.533a.59.59,0,0,0-.6-.726l-1.556,0a.488.488,0,0,1-.5-.406q-.043-.217-.1-.429a.686.686,0,0,1,.238-.691l1.3-1.1a.754.754,0,0,0,.185-1.029l-1.469-1.788a.726.726,0,0,0-1.03,0l-1.308,1.11a.657.657,0,0,1-.686.128c-.145-.067-.3-.135-.441-.192a.487.487,0,0,1-.28-.558l.283-1.571a.59.59,0,0,0-.6-.727l-2.534,0a.912.912,0,0,0-.859.729l-.28,1.554a.777.777,0,0,1-.51.57q-.232.082-.462.179a.564.564,0,0,1-.67-.113l-.9-1.1a.726.726,0,0,0-1.03,0l-2.115,1.794a.755.755,0,0,0-.186,1.029l.908,1.106a.571.571,0,0,1,.007.663C331.991,371.821,331.743,372.272,331.73,372.3Zm9.6,2.635c-.829,2.239-3.379,3.5-5.317,2.7a3.04,3.04,0,0,1-1.509-3.993c.828-2.239,3.378-3.5,5.317-2.7A3.04,3.04,0,0,1,341.331,374.934Z" transform="translate(-320.77 -358.745)" fill="#fff"/>
        </g>
      </g>
      <g id="Group_1849" data-name="Group 1849" transform="translate(208.981 9.32)">
        <g id="Group_1847" data-name="Group 1847">
          <path id="Path_11449" data-name="Path 11449" d="M692.215,355.153H729.59a4.226,4.226,0,0,0,4.282-3.528l4.981-28.886a5.568,5.568,0,0,0-5.429-6.249H696.049a4.226,4.226,0,0,0-4.281,3.528L686.786,348.9A5.568,5.568,0,0,0,692.215,355.153Z" transform="translate(-686.717 -316.49)" fill="#002daa"/>
        </g>
        <g id="Group_1848" data-name="Group 1848" transform="translate(16.397 7.94)">
          <path id="Path_11450" data-name="Path 11450" d="M746.711,373.736l-5.641-2.029.21-1.347-2.122,1.226h-1.444l-1.7-1.246-.213,1.368-6.273,2.029a1.316,1.316,0,0,0-.887,1.018l-.756,4.86h18.64l.756-4.86A.9.9,0,0,0,746.711,373.736Z" transform="translate(-727.885 -356.83)" fill="#fff"/>
          <path id="Path_11451" data-name="Path 11451" d="M751.74,336.424a5.465,5.465,0,0,0-5.208,4.507l-.408,5.413a1.76,1.76,0,0,0,.862,1.718l.257.189,1.7,1.246h1.444l2.122-1.226.363-.21a2.6,2.6,0,0,0,1.4-1.718l1.276-5.413A3.763,3.763,0,0,0,751.74,336.424Z" transform="translate(-738.855 -336.424)" fill="#fff"/>
        </g>
      </g>
      <g id="Group_1850" data-name="Group 1850" transform="translate(75.434 95.28)">
        <path id="Path_11452" data-name="Path 11452" d="M551.2,538.8h0l-4.531-4.716s-.415,1.08-.946,2.483c-.048,0-.095,0-.143,0H380.362a8.178,8.178,0,0,0-8.062,6.8l-20.811,88.988c-.662,9.028,4.888,12.813,9.954,12.813h168.4a8.179,8.179,0,0,0,8.062-6.8l15.732-92.247A8.155,8.155,0,0,0,551.2,538.8Z" transform="translate(-351.435 -531.385)" fill="#fff"/>
        <path id="Path_11453" data-name="Path 11453" d="M551.2,538.8h0l-4.531-4.716s-.415,1.08-.946,2.483c-.048,0-.095,0-.143,0H380.362a8.178,8.178,0,0,0-8.062,6.8l-20.811,88.988c-.662,9.028,4.888,12.813,9.954,12.813h168.4a8.179,8.179,0,0,0,8.062-6.8l15.732-92.247A8.155,8.155,0,0,0,551.2,538.8Z" transform="translate(-351.435 -531.385)" fill="none" stroke="#002daa" stroke-linecap="round" stroke-miterlimit="10" stroke-width="2"/>
        <path id="Path_11454" data-name="Path 11454" d="M524.918,635.911H359.7a8.179,8.179,0,0,1-8.062-9.554l15.732-92.247a8.178,8.178,0,0,1,8.062-6.8H540.65a8.179,8.179,0,0,1,8.062,9.553L532.98,629.107A8.178,8.178,0,0,1,524.918,635.911Z" transform="translate(-351.488 -527.307)" fill="#002daa"/>
        <path id="Path_11455" data-name="Path 11455" d="M809.3,550.632a3.678,3.678,0,1,1-2.881-4.655A3.882,3.882,0,0,1,809.3,550.632Z" transform="translate(-622.551 -538.509)" fill="#0d2381"/>
      </g>
      <line id="Line_23" data-name="Line 23" x2="370" transform="translate(0 239.494)" fill="none" stroke="#002daa" stroke-linecap="round" stroke-miterlimit="10" stroke-width="2"/>
      <path id="Path_11456" data-name="Path 11456" d="M394.584,527.307a8.178,8.178,0,0,0-8.062,6.8l-3.175,18.615h47.91a2,2,0,0,0,1.889-1.607l4.178-23.812Z" transform="translate(-295.202 -433.144)" fill="#001755" opacity="0.5"/>
      <g id="Group_1852" data-name="Group 1852" transform="translate(31.695 61.372)">
        <path id="Path_11457" data-name="Path 11457" d="M339.233,497.752H243.08a1.416,1.416,0,0,1-1.43-1.734l8.552-48.744a2.156,2.156,0,0,1,2.038-1.734h96.152a1.416,1.416,0,0,1,1.43,1.734l-8.552,48.745A2.156,2.156,0,0,1,339.233,497.752Z" transform="translate(-241.624 -445.54)" fill="#fff"/>
        <path id="Path_11458" data-name="Path 11458" d="M279.08,459.088h-5.791l.516-2.939H279.6Z" transform="translate(-260.676 -451.924)" fill="#b3cdfa"/>
        <path id="Path_11459" data-name="Path 11459" d="M275.506,479.465h-5.791l.516-2.939h5.791Z" transform="translate(-258.526 -464.184)" fill="#b3cdfa"/>
        <path id="Path_11460" data-name="Path 11460" d="M271.931,499.84h-5.792l.516-2.938h5.791Z" transform="translate(-256.375 -476.444)" fill="#b3cdfa"/>
        <path id="Path_11461" data-name="Path 11461" d="M268.356,520.216h-5.792l.516-2.938h5.792Z" transform="translate(-254.224 -488.704)" fill="#b3cdfa"/>
        <path id="Path_11462" data-name="Path 11462" d="M264.781,540.592H258.99l.516-2.939H265.3Z" transform="translate(-252.073 -500.964)" fill="#b3cdfa"/>
        <path id="Path_11463" data-name="Path 11463" d="M261.207,560.968h-5.792l.516-2.939h5.792Z" transform="translate(-249.922 -513.224)" fill="#b3cdfa"/>
        <path id="Path_11464" data-name="Path 11464" d="M440.008,489.522H409.742l.516-2.939h30.266Z" transform="translate(-342.779 -470.235)" fill="#b3cdfa"/>
        <path id="Path_11465" data-name="Path 11465" d="M436.357,510.331H406.091l.516-2.939h30.266Z" transform="translate(-340.582 -482.756)" fill="#b3cdfa"/>
        <path id="Path_11466" data-name="Path 11466" d="M419.782,531.141H402.44l.516-2.939H420.3Z" transform="translate(-338.385 -495.277)" fill="#b3cdfa"/>
        <path id="Path_11467" data-name="Path 11467" d="M323.253,467.465h0a22.172,22.172,0,0,0-14.184,5.477,22.789,22.789,0,0,0-7.8,13.223c-1.812,10.327,5.091,18.7,15.419,18.7a22.172,22.172,0,0,0,14.183-5.477,22.793,22.793,0,0,0,7.8-13.223h0C340.484,475.837,333.581,467.465,323.253,467.465Zm4.518,28.159a15.86,15.86,0,0,1-10.146,3.918c-7.388,0-12.326-5.989-11.03-13.377a16.3,16.3,0,0,1,5.578-9.459,15.861,15.861,0,0,1,10.146-3.918h0c7.388,0,12.326,5.989,11.03,13.377h0A16.3,16.3,0,0,1,327.772,495.624Z" transform="translate(-277.34 -458.732)" fill="#b3cdfa" opacity="0.3"/>
        <g id="Group_1851" data-name="Group 1851" transform="translate(20.156 7.406)">
          <path id="Path_11468" data-name="Path 11468" d="M325.777,469.457h0l.934-5.323h0a22.171,22.171,0,0,0-14.183,5.477l3.1,3.764A15.86,15.86,0,0,1,325.777,469.457Z" transform="translate(-304.441 -464.134)" fill="#1067db"/>
          <path id="Path_11469" data-name="Path 11469" d="M346.726,464.134l-.934,5.323c7.388,0,12.326,5.989,11.03,13.376h0a16.3,16.3,0,0,1-5.578,9.459l3.1,3.764a22.788,22.788,0,0,0,7.8-13.222h0C363.957,472.506,357.053,464.134,346.726,464.134Z" transform="translate(-324.456 -464.134)" fill="#002daa"/>
          <path id="Path_11470" data-name="Path 11470" d="M298.275,491.107a16.3,16.3,0,0,1,5.578-9.459l-3.1-3.764a22.791,22.791,0,0,0-7.8,13.222h5.323Z" transform="translate(-292.663 -472.408)" fill="#b3cdfa"/>
          <path id="Path_11471" data-name="Path 11471" d="M319.015,520.54a15.861,15.861,0,0,1-10.146,3.918c-7.388,0-12.326-5.989-11.03-13.377h-5.323c-1.812,10.328,5.092,18.7,15.419,18.7a22.172,22.172,0,0,0,14.184-5.477Z" transform="translate(-292.227 -492.382)" fill="#ff5722"/>
        </g>
      </g>
      <g id="Group_1855" data-name="Group 1855" transform="translate(74.382 102.821)">
        <g id="Group_1853" data-name="Group 1853" transform="translate(13.271)">
          <path id="Path_11472" data-name="Path 11472" d="M382.436,697.576l9.222-64.5a1.778,1.778,0,0,0,1.549-1.467,1.274,1.274,0,0,0-1.292-1.5,1.789,1.789,0,0,0-1.716,1.5,1.255,1.255,0,0,0,1.134,1.467l-9.222,64.5Z" transform="translate(-382.112 -597.228)" fill="#002280" opacity="0.7"/>
          <path id="Path_11473" data-name="Path 11473" d="M459.817,707.9l8.249-57.664a1.778,1.778,0,0,0,1.549-1.467,1.274,1.274,0,0,0-1.292-1.5,1.789,1.789,0,0,0-1.716,1.5,1.255,1.255,0,0,0,1.134,1.467L459.492,707.9Z" transform="translate(-428.671 -607.556)" fill="#002280" opacity="0.7"/>
          <path id="Path_11474" data-name="Path 11474" d="M781.344,583.164a1.789,1.789,0,0,0-1.716,1.5,1.256,1.256,0,0,0,1.135,1.467l-11.88,83.2h.324l11.88-83.2a1.779,1.779,0,0,0,1.549-1.467A1.274,1.274,0,0,0,781.344,583.164Z" transform="translate(-614.828 -568.982)" fill="#002280" opacity="0.7"/>
          <path id="Path_11475" data-name="Path 11475" d="M691.859,680.155l10.862-76.033a1.778,1.778,0,0,0,1.549-1.467,1.274,1.274,0,0,0-1.292-1.5,1.789,1.789,0,0,0-1.716,1.5,1.256,1.256,0,0,0,1.134,1.467l-10.862,76.033Z" transform="translate(-568.289 -579.806)" fill="#002280" opacity="0.7"/>
          <path id="Path_11476" data-name="Path 11476" d="M614.455,647.906l13.895-97.381a1.778,1.778,0,0,0,1.549-1.467,1.274,1.274,0,0,0-1.292-1.5,1.789,1.789,0,0,0-1.716,1.5,1.256,1.256,0,0,0,1.134,1.467l-13.894,97.381Z" transform="translate(-521.715 -547.558)" fill="#002280" opacity="0.7"/>
          <path id="Path_11477" data-name="Path 11477" d="M537.112,664.119l12.371-86.649A1.779,1.779,0,0,0,551.032,576a1.274,1.274,0,0,0-1.292-1.5,1.789,1.789,0,0,0-1.716,1.5,1.256,1.256,0,0,0,1.134,1.467l-12.37,86.649Z" transform="translate(-475.179 -563.771)" fill="#002280" opacity="0.7"/>
        </g>
        <path id="Path_11478" data-name="Path 11478" d="M555.53,599.275l.271-1.922a77.367,77.367,0,0,0-12.659,7.418c-3.961,2.867-7.473,6.305-11.406,9.2-7.808,5.746-15.683,6.177-22.949,1.812-14.708-8.836-21.077-31.687-43.976-23.292-22.53,8.258-31.762,35.523-54.426,43.273-12.946,4.427-19.623-2.453-28.186-8.78a18.871,18.871,0,0,0-11.995-4.158l-.289,1.7c8.2-.044,13.247,6.476,20.37,11.017,6.507,4.148,14.295,4.252,22.262,1.052,22.127-8.889,31.441-36.385,54.54-43.231,25.389-7.524,28.58,25.384,50.168,27.161,8.182.673,14.665-4.618,20.992-9.937A84.384,84.384,0,0,1,555.53,599.275Z" transform="translate(-361.503 -573.497)" fill="#001755" opacity="0.2"/>
        <g id="Group_1854" data-name="Group 1854" transform="translate(0 10.701)">
          <path id="Path_11479" data-name="Path 11479" d="M548.812,579.036a77.841,77.841,0,0,0-17.464,9.491c-3.961,2.867-7.472,6.305-11.406,9.2-7.808,5.746-15.683,6.177-22.948,1.812-14.708-8.836-21.077-31.686-43.976-23.292-22.53,8.259-31.762,35.523-54.427,43.274-12.946,4.427-19.623-2.454-28.185-8.78-6.377-4.712-12.814-5.57-21.1-1.9a.766.766,0,1,0,.621,1.4c13.618-6.025,19.346,3.185,28.565,9.062,6.507,4.148,14.295,4.252,22.262,1.052,22.127-8.889,31.441-36.386,54.54-43.231,25.389-7.524,28.58,25.384,50.168,27.16,8.182.673,14.665-4.618,20.992-9.937a82.669,82.669,0,0,1,21.988-13.452C552.084,579.4,552.311,577.676,548.812,579.036Z" transform="translate(-348.794 -574.425)" fill="#ff5722"/>
        </g>
      </g>
      <g id="Group_1857" data-name="Group 1857" transform="translate(61.638 135.916)">
        <path id="Path_11480" data-name="Path 11480" d="M332.214,629.327h1.57a6.513,6.513,0,0,1,6.513,6.513v14.068l10.358,21.355,8.508,17.454a6.7,6.7,0,0,1,.306,5.134l-3.705,10.664c0,1.951-1.057,26.339-2.1,27.991h-.987l-35.883.215,14.55-35.9a16.182,16.182,0,0,0,.044-9.228l-6.727-23.023a9.3,9.3,0,0,1,.794-7.123l4.084-7.362-.356-5.688Z" transform="translate(-316.798 -629.327)" fill="#fff"/>
        <g id="Group_1856" data-name="Group 1856" transform="translate(1.555 17.583)">
          <path id="Path_11481" data-name="Path 11481" d="M348.422,675.484a12.391,12.391,0,0,0-.033-1.348,6.346,6.346,0,0,0-.093-.665Z" transform="translate(-337.305 -673.471)" fill="#b3cdfa"/>
          <path id="Path_11482" data-name="Path 11482" d="M327.014,696.422l6.727,23.023a16.211,16.211,0,0,1,.493,2.291q.084.6.121,1.2a16.179,16.179,0,0,1-.658,5.74L320.7,764.563l7.555-.045a32.321,32.321,0,0,1,2.358-8.534c3.02-6.9,8.764-12.8,9.6-20.284a32.8,32.8,0,0,0-.556-8.573c-1.224-7.967-2.469-16.016-5.479-23.493-1.621-4.028-3.78-8.019-3.817-12.361-.025-3.036,1-6.01,1.349-9.01l-.589,1.061-3.314,5.975a9.306,9.306,0,0,0-.794,7.123Z" transform="translate(-320.703 -678.76)" fill="#b3cdfa"/>
        </g>
        <path id="Path_11483" data-name="Path 11483" d="M332.214,629.327h1.57a6.513,6.513,0,0,1,6.513,6.513v14.068l10.358,21.355,8.48,17.4a6.7,6.7,0,0,1,.27,5.236l-3.884,10.619c0,1.951-.814,26.339-1.853,27.991h-.987l-35.883.215,14.55-35.9a16.182,16.182,0,0,0,.044-9.228l-6.727-23.023a9.3,9.3,0,0,1,.794-7.123l4.084-7.362-.356-5.688Z" transform="translate(-316.798 -629.327)" fill="none" stroke="#002daa" stroke-linecap="round" stroke-miterlimit="10" stroke-width="2"/>
        <path id="Path_11484" data-name="Path 11484" d="M358.034,819.328c0,1.951-3.328,20.972-4.366,22.624h-.987l-35.883.215,9.468-30.943Z" transform="translate(-316.798 -738.772)" fill="#002daa"/>
        <path id="Path_11485" data-name="Path 11485" d="M358.034,819.328c0,1.951-3.328,20.972-4.366,22.624h-.987l-35.883.215,9.468-30.943Z" transform="translate(-316.798 -738.772)" fill="none" stroke="#002daa" stroke-linecap="round" stroke-miterlimit="10" stroke-width="2"/>
        <path id="Path_11486" data-name="Path 11486" d="M348.795,681.444l2.982,13.393v6.985" transform="translate(-336.05 -660.686)" fill="none" stroke="#002daa" stroke-linecap="round" stroke-miterlimit="10" stroke-width="2"/>
        <path id="Path_11487" data-name="Path 11487" d="M326.267,811.224,316.8,842.167l9.11-.054a32.32,32.32,0,0,1,2.358-8.534c2.9-6.635,8.323-12.342,9.477-19.427Z" transform="translate(-316.799 -738.772)" fill="#002280"/>
      </g>
      <g id="Group_1858" data-name="Group 1858" transform="translate(203.143 122.892)">
        <path id="Path_11488" data-name="Path 11488" d="M686.412,635.313v20.746l-4.367-8.423-1.477-7.732a7.251,7.251,0,0,0-7.43-5.884l-1.075.046v16.378l9.7,18.053,12.635,14.06,3.781,3.335a8.683,8.683,0,0,1,2.71,4.529l4.6,22.877,37.2-.248-12.836-33.519a6.89,6.89,0,0,1-.455-2.414l-.205-28.4a9.687,9.687,0,0,0-4.106-7.848l-1.97-1.388a5.169,5.169,0,0,0-1.8-.808l-11.656-2.734-4.407-8.7a5.914,5.914,0,0,0-5.384-3.241l-4.871.088-7.651-24.937a3.561,3.561,0,0,0-3.4-2.516h0a3.561,3.561,0,0,0-3.508,4.169Z" transform="translate(-672.062 -596.629)" fill="#fff"/>
        <path id="Path_11489" data-name="Path 11489" d="M771.877,698.155a51.3,51.3,0,0,0,4.655,4.1,17.614,17.614,0,0,1,5.379,9.633c1.2,6.327-1.129,12.986.4,19.242.8,3.284,2.622,6.24,3.539,9.494,2.22,7.881-1.061,16.61,1.537,24.374.965,2.884,2.683,5.433,4.182,8.088l10.4-.069L789.13,739.493q-.11-.289-.195-.586a6.889,6.889,0,0,1-.26-1.827l-.206-28.4q0-.293-.022-.583a9.685,9.685,0,0,0-4.084-7.264l-1.156-.814-.814-.574q-.2-.143-.419-.266a5.18,5.18,0,0,0-1.38-.542l-10-2.346A11.149,11.149,0,0,0,771.877,698.155Z" transform="translate(-731.347 -656.593)" fill="#b3cdfa"/>
        <path id="Path_11490" data-name="Path 11490" d="M686.412,635.313v20.746l-4.367-8.423-1.477-7.732a7.251,7.251,0,0,0-7.43-5.884l-1.075.046v16.378l9.7,18.053,12.635,14.06,3.781,3.335a8.683,8.683,0,0,1,2.71,4.529l5.365,22.885,37.647-.073-14.055-33.7a6.89,6.89,0,0,1-.455-2.414l-.205-28.4a9.687,9.687,0,0,0-4.106-7.848l-1.97-1.388a5.169,5.169,0,0,0-1.8-.808l-11.656-2.734-4.407-8.7a5.914,5.914,0,0,0-5.384-3.241l-4.871.088-7.651-24.937a3.561,3.561,0,0,0-3.4-2.516h0a3.561,3.561,0,0,0-3.508,4.169Z" transform="translate(-672.062 -596.629)" fill="none" stroke="#002daa" stroke-linecap="round" stroke-miterlimit="10" stroke-width="2"/>
        <path id="Path_11491" data-name="Path 11491" d="M778.463,825.677l8.983,25.876-38.415-.442-4.6-17.5Z" transform="translate(-715.607 -734.445)" fill="#002daa"/>
        <path id="Path_11492" data-name="Path 11492" d="M778.463,825.677l8.983,25.37-38.415.064-4.6-17.5Z" transform="translate(-715.607 -734.445)" fill="none" stroke="#002daa" stroke-linecap="round" stroke-miterlimit="10" stroke-width="2"/>
        <path id="Path_11493" data-name="Path 11493" d="M699.184,664.626l-2.072,3.92a4.15,4.15,0,0,0-.456,2.4l.865,7.783a3.325,3.325,0,0,0,3.306,2.959h.368v-5.459Z" transform="translate(-686.845 -637.542)" fill="#fff"/>
        <path id="Path_11494" data-name="Path 11494" d="M699.184,664.626l-2.072,3.92a4.15,4.15,0,0,0-.456,2.4l.865,7.783a3.325,3.325,0,0,0,3.306,2.959h.368v-5.459Z" transform="translate(-686.845 -637.542)" fill="none" stroke="#002daa" stroke-linecap="round" stroke-miterlimit="10" stroke-width="2"/>
        <line id="Line_24" data-name="Line 24" x2="2.496" y2="9.671" transform="translate(22.929 27.453)" fill="none" stroke="#002daa" stroke-linecap="round" stroke-miterlimit="10" stroke-width="2"/>
        <path id="Path_11495" data-name="Path 11495" d="M817.961,825.677l-7.575,1.767c-.183,5.214-.885,10.5.755,15.4,1.024,3.061,2.9,5.744,4.455,8.577l11.348.131Z" transform="translate(-755.106 -734.445)" fill="#002280"/>
      </g>
      <g id="Group_1860" data-name="Group 1860" transform="translate(100.224 31.304)">
        <path id="Path_11496" data-name="Path 11496" d="M511.41,371.683H418.776a2.423,2.423,0,0,0-2.474,2.072l-2.6,16.964a3.344,3.344,0,0,0,3.259,3.67H509.6a2.423,2.423,0,0,0,2.474-2.072l2.6-16.964A3.344,3.344,0,0,0,511.41,371.683Z" transform="translate(-413.672 -371.683)" fill="#002daa"/>
        <g id="Group_1859" data-name="Group 1859" transform="translate(10.018 4.802)">
          <path id="Path_11497" data-name="Path 11497" d="M452,390.289a7.93,7.93,0,0,1-7.562,6.551,5.477,5.477,0,0,1-5.54-6.551,7.93,7.93,0,0,1,7.562-6.551A5.477,5.477,0,0,1,452,390.289Z" transform="translate(-438.822 -383.738)" fill="#b3cdfa"/>
        </g>
        <path id="Path_11498" data-name="Path 11498" d="M552.048,390.924l-50.9,0,.374-2.646,51.012,0Z" transform="translate(-466.305 -381.669)" fill="#ff5722"/>
        <path id="Path_11499" data-name="Path 11499" d="M536.321,407.082l-37.455,0,.374-2.646h37.566Z" transform="translate(-464.932 -391.391)" fill="#b3cdfa"/>
      </g>
      <g id="Group_1862" data-name="Group 1862" transform="translate(149.721 62.377)">
        <path id="Path_11500" data-name="Path 11500" d="M635.677,448.262H543.043a2.424,2.424,0,0,0-2.474,2.072l-2.6,16.964a3.344,3.344,0,0,0,3.259,3.67h92.634a2.423,2.423,0,0,0,2.474-2.072l2.6-16.964A3.344,3.344,0,0,0,635.677,448.262Z" transform="translate(-537.939 -448.262)" fill="#1067db"/>
        <g id="Group_1861" data-name="Group 1861" transform="translate(10.017 4.802)">
          <path id="Path_11501" data-name="Path 11501" d="M576.27,466.868a7.93,7.93,0,0,1-7.562,6.551,5.477,5.477,0,0,1-5.541-6.551,7.93,7.93,0,0,1,7.562-6.551A5.477,5.477,0,0,1,576.27,466.868Z" transform="translate(-563.089 -460.317)" fill="#b3cdfa"/>
        </g>
        <path id="Path_11502" data-name="Path 11502" d="M650.226,467.5l-24.811,0,.374-2.646,24.922,0Z" transform="translate(-590.572 -458.248)" fill="#fff"/>
        <path id="Path_11503" data-name="Path 11503" d="M660.588,483.662l-37.455,0,.374-2.646h37.566Z" transform="translate(-589.199 -467.97)" fill="#b3cdfa"/>
      </g>
      <g id="Group_1864" data-name="Group 1864" transform="translate(264.843 29.778)">
        <path id="Path_11504" data-name="Path 11504" d="M853.351,397.371l-23.424.22A2.975,2.975,0,0,1,827,394.256l4.108-24.251a2.268,2.268,0,0,1,2.272-1.9l23.457-.25h0a2.975,2.975,0,0,1,2.9,3.335l-4.114,24.281A2.269,2.269,0,0,1,853.351,397.371Z" transform="translate(-826.965 -367.853)" fill="#ff5722"/>
        <path id="Path_11505" data-name="Path 11505" d="M860.16,392.159a8.819,8.819,0,0,0-8.447-7.39,6.256,6.256,0,0,0-6.333,7.39,8.818,8.818,0,0,0,8.447,7.39A6.257,6.257,0,0,0,860.16,392.159Zm-6.707,4.779a5.7,5.7,0,0,1-5.462-4.779,4.046,4.046,0,0,1,4.1-4.779,5.7,5.7,0,0,1,5.462,4.779A4.047,4.047,0,0,1,853.453,396.939Z" transform="translate(-838 -378.031)" fill="#fff"/>
        <g id="Group_1863" data-name="Group 1863" transform="translate(20.757 19.238)">
          <rect id="Rectangle_627" data-name="Rectangle 627" width="3.383" height="5.969" transform="matrix(0.651, -0.759, 0.759, 0.651, 0, 2.567)" fill="#fff"/>
        </g>
      </g>
    </g>
  </g>
</svg>
